<svg width="119" height="97" viewBox="0 0 119 97" fill="none" xmlns="http://www.w3.org/2000/svg">
<path d="M38.8143 93.6032C38.8136 93.6282 38.813 93.6532 38.8124 93.6782C38.2163 93.6522 37.6203 93.6263 37.0243 93.6004C37.0249 93.5754 37.0256 93.5504 37.0262 93.5255C37.6222 93.5514 38.2182 93.5773 38.8143 93.6032Z" fill="#F8B06E"/>
<path d="M29.3946 25.0078C30.5317 26.2142 31.6374 27.4191 32.8067 28.5989C36.8697 32.6425 41.7457 35.5722 47.5671 37.1131C50.6027 37.9316 53.7136 38.2196 56.865 38.116C60.2051 38.0213 63.4325 37.3591 66.6303 36.6112C68.6565 36.145 70.6833 35.6508 72.7672 35.4122C76.4933 34.9704 80.2398 35.0075 83.9018 35.9681C88.9408 37.3033 92.6228 40.1201 95.1091 44.2577C95.5338 44.9524 95.8315 45.6974 96.0315 46.5783C95.7831 46.4259 95.6278 46.3343 95.4724 46.2426C93.2684 44.8731 91.0296 43.6426 88.6284 42.6293C85.6655 41.3926 82.5683 40.5149 79.3978 40.0835C75.2233 39.4921 71.0929 39.718 67.0123 40.5084C65.2096 40.8446 63.4056 41.237 61.6035 41.5451C58.7581 42.0286 55.8629 41.9476 52.9421 41.6124C46.4419 40.8264 41.0252 38.1241 36.4301 33.9428C34.3643 32.0459 32.459 30.016 30.9055 27.7498C30.3575 26.9368 29.9052 26.072 29.3894 25.2324C29.392 25.1201 29.3933 25.0639 29.3946 25.0078Z" fill="#F79020"/>
<path d="M30.7453 43.8723C30.7156 43.7844 30.6544 43.6951 30.5924 43.6345C28.404 41.0524 26.5686 38.257 24.861 35.4101C24.6179 34.9664 24.3741 34.5515 24.0987 34.1351C23.8543 33.7489 23.5789 33.3325 23.3023 32.9736C22.9024 32.4647 22.6915 31.9938 22.704 31.4473C23.1717 31.7578 23.5419 32.1788 23.8482 32.6256C24.0926 33.0117 24.3693 33.3706 24.6783 33.7023C27.1782 36.5011 29.7441 39.1878 32.5345 41.7414C36.1614 45.0841 40.1447 48.0696 44.5514 50.5285C44.6456 50.5618 44.7391 50.6239 44.8004 50.7133C44.8313 50.7436 44.8307 50.7723 44.8616 50.8026C44.0253 51.3958 43.069 51.6951 42.0231 51.7598C40.3752 51.853 38.768 51.545 37.1642 51.0932C35.0268 50.4429 32.9256 49.5927 30.887 48.7744C29.1935 48.0879 27.5001 47.4014 25.6742 46.9677C25.1388 46.8555 24.5723 46.7129 24.0006 46.8005C23.207 46.9061 22.6597 47.3117 22.3601 47.9595C22.025 48.7784 22.0054 49.6413 22.1439 50.5119C22.366 51.876 23.0038 53.0586 23.7686 54.2186C24.7476 55.7057 26.0163 56.9764 27.2212 58.2728C28.3345 59.4208 29.642 60.3766 30.8534 61.3854C30.9463 61.4762 31.0398 61.5383 31.1327 61.6292C31.1314 61.6867 31.1308 61.7155 31.1288 61.8018C30.2817 61.4729 29.4689 61.0305 28.7529 60.5064C26.917 59.122 25.1128 57.739 23.4706 56.1911C20.9608 53.8239 18.9002 51.1903 17.4823 48.1271C17 47.0671 16.6132 45.983 16.64 44.8037C16.6773 43.1641 17.5867 42.1426 19.3676 41.7679C20.5762 41.5095 21.8401 41.5993 23.0382 41.8011C25.4976 42.2079 27.855 42.9264 30.1782 43.7585C30.3982 43.8267 30.5562 43.8343 30.7453 43.8723C30.7762 43.9026 30.7762 43.9026 30.7756 43.9313C30.8072 43.9328 30.8072 43.9328 30.8072 43.9328C30.7762 43.9026 30.7762 43.9026 30.7453 43.8723Z" fill="#F79020"/>
<path d="M109.332 79.9757C108.606 79.9694 108.009 79.826 107.444 79.6556C105.971 79.2122 104.725 78.436 103.643 77.4384C102.314 76.1711 101.242 74.7443 100.329 73.2105C99.2331 71.4388 98.3918 69.5647 97.4867 67.7162C96.673 66.0153 95.8278 64.3129 94.9188 62.6361C94.5244 61.9295 94.0664 61.2485 93.5761 60.5946C92.6271 59.2883 91.2524 58.6491 89.5171 58.5942C86.9302 58.4982 84.2822 58.3134 81.734 57.9042C78.2745 57.3078 75.2439 55.9013 72.5778 53.7387C71.8339 53.1299 71.155 52.4383 70.4433 51.8024C70.1956 51.5899 69.9794 51.3789 69.6994 51.1935C69.296 50.8876 68.9884 50.529 68.8759 49.9219C69.2492 50.1691 69.4969 50.3816 69.7769 50.567C70.275 50.8775 70.7731 51.1879 71.3034 51.4713C73.6454 52.6155 76.0891 53.4495 78.6662 53.9747C80.6776 54.3867 82.7257 54.5713 84.7783 54.5556C87.4 54.5099 89.9954 54.2338 92.5882 54.0722C93.5054 54.0018 94.4548 53.9043 95.3984 54.0643C96.4682 54.2304 97.2462 54.7263 97.7319 55.5805C98.1282 56.2013 98.2709 56.8671 98.4129 57.5615C99.4335 62.653 101.058 67.573 103.603 72.2509C104.33 73.6038 105.184 74.9342 106.006 76.263C106.767 77.5029 107.752 78.6104 108.866 79.6095C109.023 79.6743 109.115 79.7934 109.332 79.9757Z" fill="#F79020"/>
<path d="M33.3139 1.70429C33.2784 1.87517 33.2422 2.07478 33.1745 2.27287C31.6981 5.99871 29.3797 9.19487 26.0332 11.7086C25.9371 11.7615 25.8719 11.8446 25.8074 11.899C25.8074 11.899 25.8068 11.9278 25.7732 12.0124C28.4744 11.4524 30.9017 10.419 33.0544 8.94077C35.2381 7.49283 36.9873 5.67871 38.4271 3.562C38.4245 3.67694 38.4535 3.79341 38.3877 3.90529C38.187 4.38463 38.0482 4.92448 37.785 5.37203C36.8302 7.02313 35.7806 8.66965 34.5132 10.1618C33.961 10.7968 33.3464 11.4 32.7008 11.9729C31.2161 13.282 29.3357 13.9104 27.3052 14.1863C26.258 14.3371 25.2102 14.5167 24.2545 14.8157C22.5354 15.3081 21.3725 16.3738 20.8304 17.9585C20.7278 18.2987 20.6251 18.639 20.6173 18.9838C20.5681 19.7581 20.1469 20.198 19.3834 20.3913C19.288 20.4155 19.1287 20.4653 19.0339 20.4607C17.3193 20.7519 15.8477 21.4863 14.59 22.5475C13.6555 23.3078 12.7519 24.0984 11.8483 24.889C10.9125 25.7068 9.88386 26.4338 8.76303 27.0413C8.34643 27.2801 7.92852 27.5764 7.60474 27.9059C7.21711 28.2612 7.17441 28.7481 7.3522 29.2745C7.53196 29.7147 7.87427 29.9613 8.41332 29.9011C8.79376 29.8619 9.1755 29.7653 9.55659 29.6974C9.81065 29.6521 10.0318 29.6628 10.3129 29.8202C9.41845 30.2085 8.58654 30.6286 7.75595 30.9912C7.4045 31.1468 7.05958 31.0151 6.77981 30.8002C5.84637 30.1223 5.46441 28.8382 5.89866 27.8236C6.09934 27.3443 6.42574 26.8998 6.87655 26.5476C7.29577 26.1938 7.74593 25.8704 8.25862 25.5787C10.3094 24.412 12.114 22.9457 13.8263 21.36C14.2469 20.9488 14.699 20.5391 15.1511 20.1295C15.6032 19.7198 15.773 19.2102 15.6603 18.6007C15.4956 17.4996 15.3934 16.4304 15.671 15.3506C15.9479 14.2997 16.5362 13.4651 17.4688 12.791C18.2085 12.2514 19.0707 11.8903 19.9632 11.5881C20.6648 11.3344 21.3658 11.1093 22.0667 10.8842C25.4767 9.75438 28.2402 7.8454 30.5422 5.36759C31.4826 4.34865 32.3295 3.26766 33.083 2.12463C33.1178 1.98248 33.2159 1.84338 33.3139 1.70429Z" fill="#F79120"/>
<path d="M31.5804 69.2153C31.9899 69.5248 32.3354 69.8312 32.8075 70.2016C32.8717 67.3934 32.9333 64.7009 32.9962 61.9506C34.3085 62.0136 35.5567 62.0735 36.869 62.1365C36.7439 67.6082 36.6188 73.08 36.4937 78.5518C36.3983 78.5182 36.3343 78.5151 36.2716 78.4542C34.639 76.9846 32.9744 75.5135 31.3412 74.0729C31.3099 74.0424 31.2792 73.983 31.2478 73.9525C31.2911 73.4619 31.3664 72.9728 31.3776 72.4806C31.4229 71.9031 31.4368 71.2952 31.418 70.7146C31.4253 70.3961 31.4006 70.0761 31.3438 69.7546C31.3164 69.5504 31.3851 69.3508 31.5804 69.2153Z" fill="#EE823A"/>
<path d="M72.6102 79.4285C71.2911 79.3655 69.972 79.3025 68.5885 79.2363C68.7103 73.9341 68.832 68.6318 68.9545 63.3005C70.2414 63.362 71.5283 63.4236 72.8475 63.4866C72.8428 63.6894 72.8388 63.8633 72.8348 64.0371C72.7477 67.8327 72.6598 71.6573 72.5733 75.424C72.5693 75.5978 72.4682 75.796 72.69 75.9516C72.6628 77.1396 72.6362 78.2986 72.6102 79.4285Z" fill="#F59228"/>
<path d="M26.2017 69.6038C26.2306 69.7502 26.2273 69.8951 26.2239 70.04C26.1693 72.4161 26.1154 74.7632 26.0615 77.1103C26.0575 77.2842 26.0219 77.4275 26.0179 77.6014C24.6978 77.5384 23.442 77.4784 22.1541 77.4169C22.1239 77.3284 22.1265 77.2125 22.1285 77.1256C22.2484 71.9097 22.3669 66.7518 22.4868 61.536C22.4881 61.4781 22.5216 61.4216 22.5236 61.3347C22.5558 61.3363 22.6209 61.3104 22.6531 61.3119C23.4434 61.9878 24.2653 62.6943 25.0556 63.3702C25.4669 63.709 25.8137 64.0446 26.1921 64.4108C26.1546 64.6411 26.0842 64.8988 26.0795 65.1016C26.0187 66.3461 26.0229 67.5647 25.995 68.7817C25.9548 69.1279 25.981 69.3902 26.2017 69.6038Z" fill="#F69121"/>
<path d="M46.4232 78.4346C45.3576 78.3838 44.2919 78.3331 43.1616 78.2792C43.1663 78.0763 43.1703 77.9024 43.175 77.6995C43.2618 73.9314 43.3493 70.1343 43.4361 66.3662C43.4401 66.1923 43.6076 65.9391 43.2543 65.8352C43.2817 64.6468 43.3078 63.5164 43.3351 62.328C43.8848 62.3252 44.4661 62.3529 45.0151 62.379C45.5963 62.4067 46.177 62.4634 46.7582 62.491C46.6677 67.8259 46.5455 73.1303 46.4232 78.4346Z" fill="#F1892E"/>
<path d="M9.19149 67.4902C9.63037 66.5257 10.1006 65.5918 10.5715 64.6288C11.2452 63.2118 11.9503 61.8253 12.6233 60.4373C12.6906 60.2956 12.758 60.1538 12.8574 60.0137C13.107 60.3155 13.962 62.1827 14.1997 63.0057C13.9395 63.1672 13.9976 63.4308 13.9923 63.6625C13.9426 65.8341 13.8936 67.9767 13.8439 70.1483C13.8386 70.3799 13.8007 70.639 13.5731 70.773C13.2995 70.1222 13.0265 69.4424 12.7214 68.7611C12.3245 69.2928 11.1459 71.758 11.1052 72.1329C12.002 72.1759 12.8988 72.219 13.7956 72.262C13.7704 73.3623 13.7452 74.4626 13.7201 75.5628C12.503 75.5044 11.2853 75.475 10.0362 75.4151C9.84404 75.4059 9.61918 75.4241 9.39432 75.4423C9.36627 75.267 9.30619 75.0902 9.3095 74.9454C9.36117 72.6869 9.41284 70.4285 9.46517 68.1411C9.46782 68.0252 9.47113 67.8805 9.47378 67.7647C9.47775 67.5909 9.38365 67.4995 9.19149 67.4902Z" fill="#F28B2D"/>
<path d="M56.1865 78.8051C55.1825 78.7574 54.2108 78.7113 53.2067 78.6636C53.1176 78.311 53.3964 63.4348 53.542 62.7451C54.5461 62.7928 55.5177 62.8389 56.5542 62.8882C56.4316 68.1938 56.3091 73.4995 56.1865 78.8051Z" fill="#F69121"/>
<path d="M13.6207 75.5003C13.6457 74.4021 13.6707 73.3039 13.6957 72.2058C13.7918 72.1815 13.8872 72.1861 14.0151 72.1633C13.8354 71.6628 13.6558 71.1623 13.5073 70.6923C13.7339 70.5296 13.7709 70.2999 13.7762 70.0687C13.8256 67.9013 13.8742 65.7627 13.9236 63.5952C13.9289 63.364 13.903 63.1024 14.1296 62.9397C14.5843 63.9453 15.0079 64.9205 15.4308 65.9245C17.0032 69.5878 18.5756 73.2511 20.148 76.9144C20.2077 77.0909 20.268 77.2385 20.3588 77.4454C18.9275 77.3764 17.528 77.3089 16.1284 77.2414C15.9488 76.7409 15.7386 76.1811 15.5285 75.6212C14.8612 75.5601 14.225 75.5295 13.6207 75.5003Z" fill="#EF8537"/>
<path d="M89.7357 64.1475C91.2713 64.2212 92.669 64.723 93.9321 65.5082C94.2794 65.7277 94.6253 66.0052 94.9399 66.2521C94.8546 69.9864 94.7705 73.6629 94.6852 77.3972C94.6772 77.7446 94.67 78.063 94.694 78.4119C93.4892 79.2814 92.1323 79.7959 90.5595 79.9522C90.5866 78.7653 90.6144 77.5495 90.6415 76.3626C90.8355 76.285 90.9967 76.2347 91.1907 76.1571C93.9697 75.0734 94.645 72.1499 93.4423 70.1215C92.6084 68.7773 91.3453 67.9922 89.6864 67.7096C89.6822 66.4923 89.7093 65.3054 89.7357 64.1475Z" fill="#EF8537"/>
<path d="M9.33567 88.9566C8.79889 88.9303 8.26211 88.904 7.72533 88.8777C7.76687 87.012 7.8084 85.1462 7.85185 83.1943C7.69014 83.3588 7.59414 83.4115 7.52907 83.4946C6.78367 84.3201 6.0692 85.1759 5.3238 86.0015C5.29095 86.0573 5.22716 86.0829 5.19366 86.1675C4.83675 86.581 4.71045 86.5748 4.37271 86.1273C3.69786 85.2034 2.9908 84.3067 2.28437 83.3813C2.1922 83.2618 2.06846 83.1408 1.88412 82.9019C1.83976 83.4744 1.82954 83.9337 1.81931 84.393C1.80909 84.8522 1.79887 85.3115 1.788 85.7995C1.77714 86.2874 1.76755 86.718 1.75669 87.206C1.74647 87.6653 1.73624 88.1245 1.72538 88.6125C1.1886 88.5862 0.65182 88.5599 0.115039 88.5336C0.173828 85.8928 0.232618 83.252 0.292046 80.5825C0.860402 80.6103 1.42939 80.6095 1.99647 80.6947C2.12277 80.7009 2.27682 80.8809 2.36899 81.0003C3.07541 81.9258 3.75026 82.8496 4.45668 83.7751C4.54885 83.8945 4.67196 84.0442 4.79442 84.2226C4.92392 84.0853 5.05278 83.9767 5.11848 83.865C5.86453 83.0107 6.61121 82.1277 7.35789 81.2448C7.55245 81.0244 7.71225 80.9461 8.02736 80.9902C8.50035 81.0422 8.97462 81.0367 9.47982 81.0614C9.45389 83.6463 9.3951 86.2871 9.33567 88.9566Z" fill="#F79120"/>
<path d="M56.092 78.7585C56.2136 73.4574 56.3352 68.1562 56.4567 62.8551C56.7465 62.8399 57.0034 62.8522 57.3247 62.8676C58.481 62.923 59.6366 63.0073 60.793 63.0626C60.7657 64.2503 60.7398 65.3801 60.7126 66.5677C59.6205 66.5155 58.4963 66.4617 57.3721 66.4079C57.3475 67.4797 57.3249 68.4646 57.3023 69.4495C57.8484 69.4756 58.3944 69.5018 58.9084 69.5264C58.8831 70.6271 58.8579 71.7279 58.832 72.8577C58.2853 72.8605 57.7713 72.8359 57.2246 72.8388C57.206 73.6499 57.1887 74.403 57.1695 75.2431C57.5221 75.289 57.8755 75.3059 58.2609 75.3243C58.2337 76.512 58.2071 77.6707 58.1799 78.8584C57.4732 78.8246 56.7987 78.7923 56.092 78.7585Z" fill="#F38B2A"/>
<path d="M84.1201 78.4383C82.0367 76.976 80.8296 75.0628 80.5629 72.702C80.2747 69.8763 81.385 67.6105 83.7669 65.8405C83.9625 65.7049 84.1894 65.5999 84.3849 65.4643C84.4057 65.9581 84.4585 66.4534 84.4793 66.9472C84.4828 68.1939 84.4223 69.4375 84.3938 70.6826C84.3898 70.8564 84.2884 71.0834 84.5421 71.2115C84.5308 71.7038 84.5189 72.225 84.5076 72.7173C84.2487 72.8208 84.3395 73.0571 84.3355 73.2308C84.2317 74.9651 84.3841 76.7117 84.1201 78.4383Z" fill="#F69223"/>
<path d="M38.8563 93.5691C38.2538 93.54 37.6514 93.5109 37.049 93.4818C35.6287 93.1244 34.8227 92.2768 34.8205 90.9771C35.2961 91 35.8034 91.0245 36.3424 91.0506C36.4251 91.6033 36.797 91.9967 37.3955 92.1989C37.8685 92.3373 38.3765 92.3329 38.8243 92.1813C39.3052 91.9734 39.5667 91.6395 39.5468 91.1187C39.5263 90.6267 39.2475 90.3244 38.7758 90.1283C38.5241 90.0296 38.2704 90.0173 38.0181 89.9474C37.8285 89.9093 37.6059 89.9274 37.448 89.8909C35.899 89.614 35.0302 88.7345 34.9038 87.3132C34.7013 85.0507 36.5646 84.0721 38.0846 84.2321C38.3382 84.2444 38.5919 84.2566 38.8132 84.2962C39.0662 84.3373 39.2855 84.4634 39.5372 84.5622C39.732 84.3694 39.9586 84.1782 40.1858 83.9581C40.561 84.2073 40.9039 84.4838 41.3095 84.7922C41.0817 85.0411 40.8855 85.2916 40.6253 85.5678C41.1195 86.1693 41.294 86.8709 41.2135 87.6179C41.1013 88.3634 40.7388 88.9524 39.9686 89.3195C40.0624 89.3818 40.0935 89.4122 40.1556 89.473C41.5971 90.2935 41.3001 92.1853 40.394 92.9502C39.9422 93.275 39.4296 93.4812 38.8563 93.5691ZM39.6671 87.2255C39.7145 86.5347 39.3795 85.912 38.7506 85.6506C37.6197 85.1339 36.4294 85.8273 36.4026 87.0101C36.3822 87.9044 37.0647 88.6017 37.9842 88.6461C38.9348 88.7209 39.6467 88.1198 39.6671 87.2255Z" fill="#F79122"/>
<path d="M26.1286 69.5517C25.9435 69.3116 25.9177 69.0503 25.9236 68.7906C25.9518 67.5495 25.9794 66.3373 26.007 65.1251C26.0122 64.8942 26.0816 64.6375 26.1179 64.437C26.6474 64.896 27.1776 65.3261 27.7382 65.8155C28.8593 66.7942 30.0116 67.8033 31.1638 68.8124C31.3509 68.9659 31.5063 69.1179 31.6927 69.3002C31.499 69.4354 31.431 69.6343 31.4892 69.8683C31.5137 70.1873 31.5699 70.5078 31.5627 70.8253C31.5813 71.4041 31.5675 72.0102 31.5227 72.5859C31.4798 73.075 31.4369 73.5641 31.394 74.0533C30.7706 73.532 30.1479 72.9818 29.5569 72.4332C28.5917 71.5776 27.6583 70.7235 26.6931 69.8679C26.4433 69.6825 26.3838 69.5062 26.1286 69.5517Z" fill="#F38D30"/>
<path d="M52.4735 83.5957C52.1178 83.924 51.7622 84.2524 51.4066 84.5808C50.5674 83.9068 49.6249 83.6021 48.6087 83.7546C47.9421 83.8376 47.3672 84.069 46.9451 84.5381C45.9731 85.5278 45.9964 87.2854 46.9542 88.3107C47.7572 89.1845 49.803 89.6865 51.4112 88.5547C51.7511 88.9167 52.091 89.2786 52.4625 89.6421C52.1063 89.9993 51.5939 90.2625 51.0526 90.4091C49.6827 90.8037 48.2923 90.7077 46.9756 90.1546C45.9408 89.7303 45.2933 88.9792 44.8723 88.0086C44.4835 87.0108 44.4438 85.9723 44.7513 84.9793C45.3293 83.2219 46.9671 82.1779 49.0866 82.2227C50.4144 82.2868 51.575 82.746 52.4735 83.5957Z" fill="#F79122"/>
<path d="M94.6088 78.343C94.6168 77.9953 94.5919 77.6751 94.5999 77.3275C94.6857 73.5901 94.7701 69.9107 94.8559 66.1734C96.2472 67.2551 97.1818 68.6049 97.5954 70.2199C98.3936 73.3034 97.5602 75.9609 95.0006 78.1007C94.8693 78.2104 94.7387 78.2912 94.6088 78.343Z" fill="#ED813C"/>
<path d="M46.3277 78.3835C46.449 73.0839 46.5703 67.7842 46.6917 62.4845C46.8847 62.4648 47.045 62.4725 47.2374 62.4817C48.4557 62.5401 49.674 62.5985 50.8924 62.6569C51.0847 62.6661 51.213 62.6723 51.4374 62.683C51.4096 63.8993 51.3837 65.0288 51.3565 66.2161C50.042 66.1531 48.7596 66.0917 47.3809 66.0256C47.2854 70.1958 47.1913 74.3081 47.0971 78.4204C46.7765 78.405 46.5521 78.3943 46.3277 78.3835Z" fill="#EF873C"/>
<path d="M79.9568 90.041C80.2661 90.3435 80.5755 90.646 80.9164 90.95C80.5927 91.2795 80.2097 91.4335 79.7642 91.5558C78.8416 91.7989 77.9551 91.8423 77.014 91.5093C75.7267 91.1021 75.0191 90.234 74.9196 89.0502C74.8662 88.6162 74.9076 88.1869 75.0122 87.7605C75.3252 86.5103 76.4498 85.7306 77.8726 85.7418C78.2839 85.7329 78.6945 85.7527 79.0716 85.8572C80.3615 86.1495 81.104 86.8755 81.2983 88.064C81.3523 88.4692 81.3425 88.9001 81.3636 89.3612C79.7197 89.3394 78.11 89.2041 76.4983 89.1551C76.5491 89.704 76.89 90.008 77.3593 90.2319C78.1109 90.5558 78.871 90.5062 79.6054 90.1966C79.7014 90.1437 79.7975 90.0908 79.9568 90.041ZM79.7781 88.1631C79.7866 87.7897 79.6023 87.5507 79.3851 87.3677C78.7013 86.8458 77.4667 86.9013 76.8528 87.4755C76.7225 87.6418 76.5304 87.7475 76.587 88.0379C77.6617 88.061 78.6725 88.1098 79.7781 88.1631Z" fill="#F79122"/>
<path d="M9.23542 67.5626C9.42558 67.6007 9.51967 67.6631 9.51507 67.8654C9.51244 67.981 9.50915 68.1255 9.50652 68.2411C9.4552 70.4951 9.40389 72.7492 9.35191 75.0321C9.34797 75.2055 9.40763 75.382 9.43614 75.528C9.23413 76.0101 9.03147 76.521 8.86127 77.0046C7.46192 76.9371 6.09438 76.8712 4.69503 76.8037C4.73012 76.6608 4.79636 76.5482 4.83079 76.4342C6.2661 73.5236 7.66895 70.6404 9.10426 67.7299C9.13803 67.6447 9.2023 67.6189 9.23542 67.5626Z" fill="#F59124"/>
<path d="M108.477 74.6063C108.072 75.4854 107.699 76.395 107.26 77.3594C107.104 77.178 107.01 77.0865 106.917 76.9661C106.236 75.89 105.524 74.8124 104.811 73.7348C104.719 73.5564 104.659 73.3796 104.76 73.1816C105.841 70.7698 106.921 68.3581 108.003 65.9173C108.037 65.832 108.103 65.7193 108.201 65.637C108.52 65.7103 108.387 65.9358 108.383 66.1095C108.325 68.6283 108.268 71.1472 108.21 73.666C108.266 74.0165 108.26 74.306 108.477 74.6063Z" fill="#F48E29"/>
<path d="M108.428 74.553C108.179 74.2806 108.186 73.9626 108.193 73.6446C108.251 71.1295 108.308 68.6145 108.365 66.0994C108.369 65.926 108.47 65.6993 108.185 65.6277C108.286 65.3721 108.387 65.1455 108.457 64.8594C109.89 64.9285 111.258 64.9945 112.691 65.0635C112.657 65.1487 112.655 65.2643 112.653 65.351C111.277 68.3814 109.901 71.4117 108.526 74.442C108.493 74.4694 108.46 74.5257 108.428 74.553Z" fill="#F08734"/>
<path d="M59.3329 88.0652C59.293 89.8171 57.939 90.9594 56.0123 90.8664C54.1172 90.7749 52.8187 89.4759 52.8579 87.7527C52.8971 86.0295 54.2834 84.8601 56.1778 84.9803C58.0729 85.0717 59.3721 86.342 59.3329 88.0652ZM56.0733 89.5755C57.0833 89.653 57.7939 88.9972 57.8161 88.0208C57.837 87.1017 57.1276 86.3199 56.2116 86.2757C55.2331 86.1997 54.5225 86.8555 54.4694 87.8017C54.3834 88.8039 55.031 89.5252 56.0733 89.5755Z" fill="#F79122"/>
<path d="M96.1222 89.3952C96.162 87.643 97.5155 86.5294 99.4107 86.6209C101.305 86.7411 102.636 88.013 102.565 89.7349C102.525 91.487 101.14 92.6278 99.2129 92.5348C97.3499 92.4162 96.0823 91.1473 96.1222 89.3952ZM99.2746 91.2151C100.285 91.2639 100.995 90.6655 101.018 89.6602C101.039 88.7123 100.329 87.9592 99.3497 87.9119C98.4021 87.8662 97.6915 88.522 97.6384 89.4683C97.6168 90.4162 98.2954 91.1678 99.2746 91.2151Z" fill="#F79122"/>
<path d="M10.5346 86.146C10.5745 84.3941 11.9285 83.2519 13.823 83.3721C15.7181 83.4635 17.0482 84.764 17.0096 86.4585C16.9698 88.2105 15.5842 89.3512 13.689 89.2597C11.7623 89.1667 10.4948 87.898 10.5346 86.146ZM15.4291 86.4397C15.4809 85.5509 14.8353 84.7435 13.9199 84.6706C12.5637 84.5189 12.0019 85.5843 12.0778 86.4218C12.1536 87.2592 12.709 87.8611 13.4973 87.9566C14.6009 88.0961 15.3733 87.5009 15.4291 86.4397Z" fill="#F79122"/>
<path d="M84.5099 71.1034C84.2592 70.9759 84.3594 70.7499 84.3633 70.577C84.3915 69.3378 84.4197 68.0985 84.4479 66.8593C84.459 66.3694 84.3751 65.8748 84.3546 65.3834C85.4483 64.6861 86.6615 64.3119 87.9961 64.1744C88.5997 64.117 89.2008 64.1749 89.8348 64.1767C89.8079 65.3583 89.7817 66.511 89.7548 67.6926C89.0265 67.6575 88.3292 67.6526 87.6266 67.8783C85.9331 68.4601 84.9576 69.5382 84.5099 71.1034Z" fill="#F38D2A"/>
<path d="M29.3199 89.6646C28.7829 89.6387 28.309 89.6158 27.8036 89.5914C27.8461 87.724 27.8879 85.8853 27.9304 84.0179C28.3726 84.0393 28.8149 84.0606 29.2888 84.0835C29.3158 84.2861 29.3744 84.4903 29.4008 84.7216C29.5291 84.6415 29.6258 84.5599 29.7219 84.507C31.1038 83.5384 33.6555 83.9779 33.9204 86.234C34.0832 87.4211 33.8977 88.6201 33.8696 89.8554C33.3958 89.8326 32.9219 89.8097 32.3849 89.7838C32.3888 89.6114 32.3934 89.4103 32.3966 89.2666C32.4123 88.5771 32.428 87.8876 32.4437 87.1981C32.4483 86.997 32.4522 86.8247 32.4252 86.622C32.3178 85.7828 31.759 85.3244 30.9369 85.3135C30.1781 85.3056 29.5023 85.8194 29.3912 86.5331C29.3537 86.7901 29.3478 87.0487 29.3419 87.3073C29.3559 88.0845 29.3382 88.8602 29.3199 89.6646Z" fill="#F79122"/>
<path d="M66.4274 91.1201C65.922 91.0957 65.4481 91.0729 64.9111 91.0469C64.9176 90.7596 64.9242 90.4724 64.93 90.2138C64.9438 89.6105 64.9568 89.0359 64.9706 88.4326C64.9751 88.2315 64.9791 88.0592 64.952 87.8565C64.844 87.046 64.3168 86.5892 63.527 86.5511C62.7057 86.5114 62.0614 87.0268 61.949 87.7979C61.9109 88.0836 61.9043 88.3709 61.8978 88.6582C61.8821 89.3477 61.8658 90.0659 61.8494 90.7841C61.8488 90.8128 61.8165 90.84 61.8152 90.8975C61.3414 90.8746 60.8675 90.8518 60.3621 90.8274C60.4046 88.96 60.4464 87.1214 60.4889 85.254C60.9627 85.2769 61.3734 85.2967 61.8473 85.3196C61.8743 85.5222 61.902 85.6961 61.9592 85.9577C62.1192 85.8791 62.2475 85.7991 62.3765 85.6902C63.0826 85.2354 63.9065 85.1601 64.7549 85.4024C65.8224 85.7415 66.5287 86.6672 66.5664 87.7907C66.51 88.8808 66.4536 89.971 66.4274 91.1201Z" fill="#F79122"/>
<path d="M73.8061 91.4001C73.3006 91.3757 72.8268 91.3529 72.3529 91.33C72.3239 91.2135 72.3265 91.0986 72.3298 90.955C72.3474 90.1793 72.3638 89.461 72.3814 88.6853C72.3867 88.4555 72.361 88.1954 72.3346 87.9641C72.2535 87.3562 71.8198 86.9613 71.2222 86.8174C70.5923 86.7008 69.9553 86.9001 69.6282 87.3732C69.4006 87.6499 69.3295 87.9916 69.321 88.3651C69.3034 89.1408 69.2871 89.859 69.2694 90.6347C69.2655 90.8071 69.2622 90.9507 69.2583 91.1231C68.7212 91.0972 68.279 91.0758 67.8051 91.053C67.7182 90.7036 67.7478 86.621 67.8997 85.5066C68.313 85.4115 68.7533 85.5191 69.2594 85.5147C69.2857 85.7461 69.3444 85.9502 69.3707 86.1816C69.499 86.1015 69.6267 86.0502 69.7234 85.9686C70.5895 85.4351 71.5089 85.3357 72.4797 85.7565C73.4505 86.1772 73.9377 87.006 73.9483 87.9269C73.89 89.1033 73.8329 90.2222 73.8061 91.4001Z" fill="#F79122"/>
<path d="M109.599 92.7593C109.093 92.7349 108.619 92.7121 108.082 92.6861C108.088 92.4276 108.093 92.1977 108.099 91.9679C108.113 91.3358 108.127 90.7324 108.142 90.0716C108.146 89.8705 108.15 89.6981 108.123 89.4955C108.015 88.6849 107.488 88.228 106.698 88.1899C105.877 88.1503 105.232 88.6656 105.121 89.4081C105.083 89.6651 105.077 89.9524 105.07 90.2397C105.053 90.9868 105.036 91.7338 105.018 92.5382C104.733 92.5245 104.481 92.5123 104.26 92.5016C104.038 92.491 103.786 92.4788 103.501 92.465C103.545 90.5688 103.586 88.73 103.629 86.8625C104.103 86.8854 104.513 86.9052 104.987 86.9281C105.014 87.1307 105.042 87.3046 105.068 87.5647C105.228 87.4861 105.356 87.4061 105.485 87.2972C106.191 86.8424 107.015 86.7671 107.863 87.0094C108.931 87.3485 109.637 88.2743 109.676 89.3691C109.681 90.5199 109.625 91.6101 109.599 92.7593Z" fill="#F79122"/>
<path d="M115.896 87.987C115.604 88.2898 115.345 88.5365 115.022 88.8377C114.617 88.5301 114.21 88.3377 113.736 88.3148C113.419 88.2995 113.103 88.313 112.785 88.3553C112.563 88.3734 112.37 88.508 112.364 88.767C112.359 88.9972 112.513 89.1774 112.733 89.2456C112.984 89.3442 113.237 89.3564 113.489 89.4261C113.993 89.5369 114.498 89.5901 115 89.7871C116.413 90.2874 116.407 91.9577 115.473 92.6327C115.151 92.8763 114.768 93.0306 114.324 93.0668C113.024 93.1768 111.792 93.0597 110.767 92.175C110.705 92.1144 110.675 92.0553 110.551 91.9629C110.811 91.6586 111.039 91.3528 111.3 91.0198C111.425 91.1122 111.549 91.2046 111.643 91.2668C112.173 91.6092 112.738 91.8093 113.37 91.8686C113.623 91.8808 113.845 91.8627 114.099 91.8174C114.417 91.7464 114.581 91.4951 114.587 91.2649C114.56 91.0332 114.406 90.853 114.029 90.7483C113.682 90.674 113.271 90.6541 112.925 90.551C112.516 90.4449 112.075 90.3372 111.7 90.1174C110.575 89.4871 110.543 88.103 111.666 87.4659C112.435 87.0423 113.29 87.0259 114.174 87.155C114.772 87.2703 115.369 87.5007 115.896 87.987Z" fill="#F69223"/>
<path d="M60.6601 66.4485C60.6869 65.2751 60.7123 64.1588 60.7391 62.9853C60.8343 62.9613 60.929 62.9658 61.0551 62.9719C62.5691 63.0448 64.0515 63.1162 65.5339 63.1877C65.6285 63.1922 65.7225 63.2254 65.8486 63.2315C65.8225 64.3763 65.7964 65.5212 65.771 66.6374C65.7072 66.663 65.6744 66.7187 65.6744 66.7187C64.0034 66.6096 62.3317 66.5291 60.6601 66.4485Z" fill="#EF863D"/>
<path d="M21.61 89.3929C21.0103 89.364 20.4737 89.3381 19.9055 89.3107C19.0951 87.4341 18.2531 85.556 17.3815 83.5903C17.7287 83.607 18.0128 83.6207 18.2653 83.6329C18.5178 83.6451 18.8019 83.6588 19.1175 83.674C19.655 85.0494 20.224 86.4262 20.7917 87.8605C21.4235 86.4841 22.0217 85.1922 22.6205 83.8717C23.1887 83.8991 23.7568 83.9265 24.325 83.9539C23.4303 85.7769 22.5363 87.5714 21.61 89.3929Z" fill="#F79122"/>
<path d="M87.6064 87.0021C87.3153 87.276 86.9926 87.5483 86.6693 87.8495C86.1404 87.4496 85.6068 87.251 84.9706 87.3931C84.5577 87.4595 84.2686 87.6472 84.0091 87.9226C83.5205 88.5325 83.4982 89.5105 84.0233 90.0829C84.6412 90.7463 85.5567 90.8481 86.7402 90.3005C86.8337 90.3626 86.9266 90.4535 86.9885 90.5141C87.2362 90.7564 87.4529 90.9684 87.669 91.2092C86.7253 92.3443 84.1646 92.2206 82.9861 91.1559C81.7141 90.029 81.7664 87.7279 83.0242 86.6944C84.2175 85.7154 86.6841 85.8057 87.6064 87.0021Z" fill="#F79122"/>
<path d="M92.1144 90.7634C92.2321 91.1735 92.3504 91.5548 92.4998 91.9664C91.6369 92.2136 90.8421 92.2619 90.0253 91.8758C89.4914 91.6189 89.1834 91.1996 89.0683 90.6741C89.0108 90.4113 88.9856 90.1213 88.9915 89.8616C88.9769 89.1098 89.025 88.3899 89.0427 87.6108C88.6628 87.5636 88.2822 87.5452 87.9022 87.498C87.9114 87.094 87.92 86.7189 87.9291 86.3149C88.3097 86.3333 88.6269 86.3486 89.0392 86.3685C89.0504 85.878 89.0615 85.3874 89.072 84.9257C89.6151 84.7786 90.1206 84.8897 90.6631 84.7715C90.65 85.3486 90.6388 85.8391 90.6257 86.4162C90.9429 86.4315 91.2283 86.4453 91.4821 86.4576C91.7358 86.4698 92.0212 86.4836 92.3067 86.4974C92.2975 86.9014 92.289 87.2765 92.2785 87.7382C92.0247 87.7259 91.7393 87.7121 91.4538 87.6984C91.2001 87.6861 90.9147 87.6723 90.6292 87.6585C90.5942 87.8013 90.5909 87.9456 90.5883 88.061C90.5739 88.6958 90.5588 89.3595 90.5443 89.9943C90.561 90.6595 90.904 90.9361 91.6361 90.8559C91.796 90.8058 91.9235 90.7831 92.1144 90.7634Z" fill="#F79224"/>
<path d="M84.0371 78.4122C84.2994 76.6885 84.1479 74.945 84.2511 73.2136C84.255 73.0402 84.1648 72.8043 84.4221 72.701C84.5641 73.4602 84.8984 74.1709 85.3619 74.8009C85.8567 75.4614 86.547 75.9287 87.3692 76.1999C87.3573 76.7202 87.3448 77.2694 87.3012 77.7882C87.2542 78.4515 87.2066 79.1437 87.1596 79.8071C86.0178 79.5784 84.9774 79.0942 84.0371 78.4122Z" fill="#F38D2A"/>
<path d="M43.3989 62.3964C43.3721 63.5738 43.3467 64.6938 43.3199 65.8713C42.0249 65.8088 40.7616 65.7478 39.435 65.6838C39.4612 64.5351 39.4873 63.3863 39.5134 62.2376C39.5773 62.2119 39.672 62.2165 39.7668 62.2211C40.9038 62.2759 42.0724 62.3323 43.2101 62.3585C43.2739 62.3328 43.3358 62.3933 43.3989 62.3964Z" fill="#F59124"/>
<path d="M72.5126 79.3883C72.5388 78.2397 72.5649 77.0911 72.5904 75.9712C73.8853 76.0337 75.117 76.0931 76.4118 76.1556C76.3857 77.3042 76.3596 78.4528 76.3341 79.5727C75.0708 79.5117 73.8075 79.4507 72.5126 79.3883Z" fill="#F18830"/>
<path d="M62.0743 75.4847C63.2123 75.5397 64.3186 75.5931 65.4881 75.6496C65.4613 76.8286 65.4352 77.9789 65.4083 79.1579C64.2704 79.1029 63.1325 79.048 61.9946 78.9931C62.0214 77.814 62.0475 76.6638 62.0743 75.4847Z" fill="#EF8740"/>
<path d="M11.0361 31.4658C14.8782 30.2035 18.5936 28.9635 22.4042 27.6996C22.1708 28.2555 21.9709 28.7279 21.7394 29.1988C21.5742 29.5311 21.2857 29.7441 20.8739 29.8378C18.1152 30.5849 15.2665 31.1292 12.3621 31.3591C11.9831 31.3976 11.5732 31.4064 11.0361 31.4658Z" fill="#F79224"/>
<path d="M87.1474 79.7754C87.1941 79.115 87.2731 78.4273 87.2881 77.7654C87.3315 77.2489 87.3439 76.7021 87.3557 76.184C88.4239 76.5525 89.4992 76.6045 90.612 76.3989C90.5852 77.5789 90.5577 78.7876 90.5309 79.9676C89.4187 80.1444 88.2808 80.0606 87.1474 79.7754Z" fill="#F1892E"/>
<path d="M76.3117 79.5398C76.3378 78.3887 76.364 77.2376 76.3895 76.1153C77.3699 76.1626 78.4135 76.213 79.3939 76.2604C79.4809 76.6103 79.4563 79.0866 79.3477 79.6864C78.3357 79.6375 77.3237 79.5886 76.3117 79.5398Z" fill="#EF863D"/>
<path d="M62.0973 75.5131C62.0704 76.6947 62.0442 77.8475 62.0174 79.0291C61.1307 78.9863 60.244 78.9435 59.3573 78.9006C59.3841 77.719 59.4103 76.5662 59.4372 75.3846C60.3239 75.4274 61.2106 75.4702 62.0973 75.5131Z" fill="#F18830"/>
<path d="M25.107 83.9131C25.5807 83.9358 26.0544 83.9584 26.5281 83.9811C26.4849 85.8632 26.4424 87.7163 26.3992 89.5984C25.9255 89.5757 25.4202 89.5516 24.9466 89.5289C24.894 89.0626 25.0043 84.256 25.107 83.9131Z" fill="#F79224"/>
<path d="M94.7816 92.1944C94.2765 92.1702 93.8029 92.1475 93.2662 92.1218C93.3094 90.2398 93.3519 88.3868 93.3951 86.5048C93.8686 86.5274 94.3737 86.5516 94.9104 86.5773C94.8679 88.4303 94.8247 90.3123 94.7816 92.1944Z" fill="#F79224"/>
<path d="M63.3538 73.0013C62.5933 72.9646 61.8011 72.9263 61.0407 72.8896C61.0656 71.7938 61.0905 70.6981 61.0844 69.572C61.8448 69.6087 62.6687 69.6485 63.4291 69.6853C63.4036 70.8098 63.3787 71.9056 63.3538 73.0013Z" fill="#EF8537"/>
<path d="M61.1046 69.6248C61.0797 70.7208 61.0548 71.8169 61.0609 72.9433C60.3002 72.9066 59.5711 72.8714 58.8103 72.8346C58.8352 71.7386 58.8602 70.6425 58.8857 69.5176C59.6148 69.5528 60.3439 69.5881 61.1046 69.6248Z" fill="#F18830"/>
<path d="M63.3319 72.9788C63.3569 71.8822 63.3825 70.7568 63.4074 69.6602C64.1053 69.6939 64.7714 69.726 65.501 69.7612C65.476 70.8578 65.4511 71.9544 65.4255 73.0799C64.6959 73.0447 64.0298 73.0125 63.3319 72.9788Z" fill="#EF8740"/>
<path d="M59.436 75.3976C59.409 76.5833 59.3826 77.7401 59.3555 78.9258C58.9478 78.9062 58.5087 78.8851 58.0696 78.864C58.0967 77.6783 58.1231 76.5215 58.1502 75.3358C58.6206 75.3584 59.0283 75.378 59.436 75.3976Z" fill="#F1892E"/>
<path d="M103.58 78.1077C103.986 78.3872 104.36 78.694 104.799 78.9461C105.205 79.1968 105.676 79.4505 106.177 79.7057C105.843 80.4692 105.476 81.2311 105.107 82.1084C104.568 80.6964 104.027 79.3997 103.548 78.1061C103.548 78.135 103.548 78.1061 103.58 78.1077Z" fill="#F18C38"/>
<path d="M25.8598 83.1442C25.3229 83.1183 24.9517 82.7554 24.9944 82.2687C25.0055 81.7805 25.3608 81.4526 25.9293 81.48C26.4978 81.5075 26.869 81.8704 26.8263 82.3571C26.7514 82.871 26.3652 83.1686 25.8598 83.1442Z" fill="#F79224"/>
<path d="M95.145 84.9795C95.1339 85.4676 94.7793 85.7667 94.2108 85.7393C93.674 85.7134 93.3028 85.3505 93.3133 84.8911C93.3244 84.4029 93.7112 84.0766 94.2797 84.1041C94.8166 84.13 95.1561 84.4913 95.145 84.9795Z" fill="#F79224"/>
<path d="M31.0894 61.9306C31.0906 61.8779 31.0912 61.8515 31.093 61.7724C31.1842 61.8296 31.2754 61.8868 31.3974 61.9454C31.366 61.9703 31.366 61.9703 31.3648 62.023C31.2422 61.9907 31.1806 61.9878 31.0894 61.9306Z" fill="#F8B06E"/>
<path d="M29.5147 24.9926C29.5135 25.0456 29.4814 25.0972 29.4802 25.1502C29.4203 25.0677 29.3308 24.9306 29.2709 24.848C29.3023 24.823 29.3332 24.8245 29.3646 24.7995C29.4251 24.8555 29.485 24.938 29.5147 24.9926Z" fill="#F8B06E"/>
<path d="M33.3775 1.41297C33.409 1.38821 33.4096 1.36196 33.4102 1.33571C33.4096 1.36196 33.4404 1.36345 33.4096 1.36196C33.409 1.38821 33.3781 1.38672 33.3775 1.41297Z" fill="#F79120"/>
<path d="M22.7117 61.3625C22.6809 61.361 22.6187 61.3842 22.588 61.3827C22.5886 61.3566 22.6193 61.358 22.6205 61.3057C22.6507 61.3334 22.6815 61.3349 22.7117 61.3625Z" fill="#F38D30"/>
<path d="M30.765 43.8438L30.7952 43.8712L30.8254 43.8986L30.7946 43.8971C30.7639 43.8956 30.7645 43.8697 30.765 43.8438Z" fill="#F79020"/>
</svg>
