<svg width="776" height="719" viewBox="0 0 776 719" fill="none" xmlns="http://www.w3.org/2000/svg">
<path d="M168.2 13.5893C220.5 -6.91071 278.5 -5.61071 325.7 27.0893C383.7 67.1893 403.5 145.989 420.1 210.589C443.6 302.189 518.2 372.889 616.1 373.289C647.3 373.389 687.2 369.689 713.1 392.889C764.1 438.789 759.5 518.689 716.8 568.789C682.5 609.089 624.5 623.389 573.6 615.389C535.5 609.389 506 587.089 482 557.989C461.2 532.889 440.4 498.889 408.6 484.489C313.6 441.789 213.5 531.889 119 493.689C75.1 475.989 45.8 434.689 30.9 391.189C-15.6 255.689 22.7 70.6893 168.2 13.5893Z" fill="#407BFF"/>
<path opacity="0.9" d="M168.2 13.5893C220.5 -6.91071 278.5 -5.61071 325.7 27.0893C383.7 67.1893 403.5 145.989 420.1 210.589C443.6 302.189 518.2 372.889 616.1 373.289C647.3 373.389 687.2 369.689 713.1 392.889C764.1 438.789 759.5 518.689 716.8 568.789C682.5 609.089 624.5 623.389 573.6 615.389C535.5 609.389 506 587.089 482 557.989C461.2 532.889 440.4 498.889 408.6 484.489C313.6 441.789 213.5 531.889 119 493.689C75.1 475.989 45.8 434.689 30.9 391.189C-15.6 255.689 22.7 70.6893 168.2 13.5893Z" fill="white"/>
<path d="M775.6 695.889C775.6 708.389 602 718.489 387.8 718.489C173.6 718.489 0 708.389 0 695.889C0 683.389 173.6 673.189 387.8 673.189C602 673.189 775.6 683.389 775.6 695.889Z" fill="#F5F5F5"/>
<path d="M86.5 625.789H34.8V589.689H86.5V625.789Z" fill="#263238"/>
<path fill-rule="evenodd" clip-rule="evenodd" d="M89.5001 581.489V695.689H18.2001V581.489H89.5001ZM81.7001 601.589C81.7001 598.389 79.1001 595.789 75.9001 595.789H64.8001C61.6001 595.789 59.0001 598.389 59.0001 601.589V615.189H81.7001V601.589Z" fill="#407BFF"/>
<path opacity="0.6" fill-rule="evenodd" clip-rule="evenodd" d="M89.5001 581.489V695.689H18.2001V581.489H89.5001ZM81.7001 601.589C81.7001 598.389 79.1001 595.789 75.9001 595.789H64.8001C61.6001 595.789 59.0001 598.389 59.0001 601.589V615.189H81.7001V601.589Z" fill="white"/>
<path opacity="0.4" d="M48.8001 695.789H18.2001V581.489H48.8001V695.789Z" fill="white"/>
<path d="M91.2001 586.489H16.3V575.489H91.2001V586.489Z" fill="#407BFF"/>
<path opacity="0.2" d="M50.9 586.489H16.3V575.489H50.9V586.489Z" fill="white"/>
<path d="M105 658.589L158.1 653.889V574.789H176.8V653.889L230.1 658.589C234.8 658.989 238.4 662.989 238.4 667.689V674.789H169.3H165.8H96.7001V667.689C96.7001 662.989 100.3 658.989 105 658.589Z" fill="#263238"/>
<path opacity="0.1" d="M105 658.589L158.1 653.889V574.789H176.8V653.889L230.1 658.589C234.8 658.989 238.4 662.989 238.4 667.689V674.789H169.3H165.8H96.7001V667.689C96.7001 662.989 100.3 658.989 105 658.589Z" fill="white"/>
<path d="M221.2 683.489C221.2 690.289 226.6 695.789 233.4 695.789C240.1 695.789 245.6 690.289 245.6 683.489C245.6 676.789 240.1 671.289 233.4 671.289C226.6 671.289 221.2 676.789 221.2 683.489Z" fill="#263238"/>
<path d="M113.9 683.489C113.9 690.289 108.4 695.789 101.7 695.789C94.9001 695.789 89.5001 690.289 89.5001 683.489C89.5001 676.789 94.9001 671.289 101.7 671.289C108.4 671.289 113.9 676.789 113.9 683.489Z" fill="#263238"/>
<path d="M163.1 588.989H171.7C176.3 588.989 180 585.289 180 580.789V516.489H154.9V580.789C154.9 585.289 158.6 588.989 163.1 588.989Z" fill="#263238"/>
<path opacity="0.2" d="M163.1 588.989H171.7C176.3 588.989 180 585.289 180 580.789V516.489H154.9V580.789C154.9 585.289 158.6 588.989 163.1 588.989Z" fill="white"/>
<path d="M112.3 378.489C112.3 378.489 118.1 493.889 142.9 513.689H116.4C116.4 513.689 92.7001 474.389 90.9001 378.489H112.3Z" fill="#263238"/>
<path opacity="0.1" d="M112.3 378.489C112.3 378.489 118.1 493.889 142.9 513.689H116.4C116.4 513.689 92.7001 474.389 90.9001 378.489H112.3Z" fill="white"/>
<path d="M228 504.189H110.2C104.7 504.189 100.2 508.589 100.2 514.189V523.289H238V514.189C238 508.589 233.5 504.189 228 504.189Z" fill="#407BFF"/>
<path d="M239.2 513.689H99.0001C96.7001 513.689 94.9001 515.489 94.9001 517.789V519.289C94.9001 521.489 96.7001 523.289 99.0001 523.289H239.2C241.4 523.289 243.2 521.489 243.2 519.289V517.789C243.2 515.489 241.4 513.689 239.2 513.689Z" fill="#263238"/>
<path opacity="0.6" d="M239.2 513.689H99.0001C96.7001 513.689 94.9001 515.489 94.9001 517.789V519.289C94.9001 521.489 96.7001 523.289 99.0001 523.289H239.2C241.4 523.289 243.2 521.489 243.2 519.289V517.789C243.2 515.489 241.4 513.689 239.2 513.689Z" fill="white"/>
<path d="M86.2001 403.789H128.8C141.3 403.789 150.3 392.589 148.9 378.689L147.1 360.289C145.7 346.489 134.5 335.289 122.1 335.289H79.5001C67.0001 335.289 58.0001 346.489 59.4001 360.289L61.2001 378.689C62.6001 392.589 73.8001 403.789 86.2001 403.789Z" fill="#407BFF"/>
<path d="M225.7 681.289L241.6 679.089L243.8 641.289L227.9 643.489L225.7 681.289Z" fill="#EBB376"/>
<path opacity="0.2" d="M227.9 643.489L243.8 641.289L242.6 662.889L226.7 664.289L227.9 643.489Z" fill="black"/>
<path d="M262.4 667.189L278.5 668.289L288.5 631.789L272.5 630.589L262.4 667.189Z" fill="#EBB376"/>
<path opacity="0.2" d="M272.5 630.589L288.5 631.789L282.8 652.689L267 650.789L272.5 630.589Z" fill="black"/>
<path d="M294 650.089L265.7 641.789C265.7 641.789 282.6 546.689 299.7 513.689C298.433 513.223 296.733 512.689 294.6 512.089C290.8 510.889 285.8 509.489 279.9 507.889C238.9 496.489 155.7 475.189 155.7 475.189L193.7 439.689C193.7 439.689 345 462.789 348.2 502.689C349.7 521.789 294 650.089 294 650.089Z" fill="#407BFF"/>
<path opacity="0.4" d="M294 650.089L265.7 641.789C265.7 641.789 282.6 546.689 299.7 513.689C298.433 513.223 296.733 512.689 294.6 512.089C290.8 510.889 285.8 509.489 279.9 507.889C238.9 496.489 155.7 475.189 155.7 475.189L193.7 439.689C193.7 439.689 345 462.789 348.2 502.689C349.7 521.789 294 650.089 294 650.089Z" fill="white"/>
<path d="M226.3 458.689L218.4 422.289L133.1 422.989C133.1 422.989 123.6 479.689 130.9 493.189C144 517.289 214.2 505.089 234.7 507.489C222.4 557.689 223.6 655.789 223.6 655.789L253 658.089C253 658.089 275.5 552.289 280.1 502.089C283.2 468.189 255.1 468.989 226.3 458.689Z" fill="#407BFF"/>
<path fill-rule="evenodd" clip-rule="evenodd" d="M280.7 668.889H280.9C280.9 668.789 281.2 668.789 281.2 668.789H280.9C281 668.589 281.7 664.089 283.7 662.989C284.233 662.723 284.767 662.723 285.3 662.989C285.9 663.189 286.3 663.789 286.3 664.389C286.2 665.389 285.1 666.689 283.9 667.689C285.6 667.289 287.5 667.089 288.4 667.789C288.8 668.089 289 668.589 288.9 668.989C289 669.789 288.6 670.589 287.9 670.889C286.9 671.289 285.8 671.289 284.8 670.889C283.467 670.489 282.167 669.923 280.9 669.189C280.833 669.189 280.8 669.189 280.8 669.189C280.7 669.189 280.7 669.089 280.7 669.089C280.7 669.023 280.7 668.956 280.7 668.889ZM285.5 664.389C285.5 664.189 285.4 663.889 284.9 663.689L284.8 663.589C284.5 663.589 284.2 663.589 283.9 663.789C282.7 664.389 281.9 666.789 281.6 668.289C281.667 668.223 281.767 668.189 281.9 668.189C283.5 667.289 285.3 665.489 285.5 664.389ZM287.6 670.289C288 669.989 288.2 669.589 288.2 669.089C288.2 668.789 288.1 668.589 287.9 668.489C287 667.789 284.1 668.389 282 668.989C284.6 670.289 286.6 670.789 287.6 670.289Z" fill="#407BFF"/>
<path d="M262.1 642.389L296.1 652.089L302.2 637.889L264.7 628.089L262.1 642.389Z" fill="#407BFF"/>
<path opacity="0.2" d="M262.1 642.389L296.1 652.089L302.2 637.889L264.7 628.089L262.1 642.389Z" fill="white"/>
<path d="M280.1 666.689L262.7 661.889C262.1 661.689 261.4 661.989 261.3 662.589C261.233 662.589 261.2 662.589 261.2 662.589L256.6 676.089C256.1 677.589 257 679.189 258.5 679.589C264.6 681.189 267.6 681.689 275.2 683.789C279.9 684.989 289.1 688.089 295.8 688.789C302.5 689.589 303.1 682.889 300.3 681.989C293.7 679.789 285.9 672.989 282.5 668.389C281.9 667.589 281 666.989 280.1 666.689Z" fill="#263238"/>
<path opacity="0.4" d="M226.3 458.689L218.4 422.289L133.1 422.989C133.1 422.989 123.6 479.689 130.9 493.189C144 517.289 214.2 505.089 234.7 507.489C222.4 557.689 223.6 655.789 223.6 655.789L253 658.089C253 658.089 275.5 552.289 280.1 502.089C283.2 468.189 255.1 468.989 226.3 458.689Z" fill="white"/>
<path d="M220.2 657.189L255.4 659.489L258.5 644.389L219.7 642.589L220.2 657.189Z" fill="#407BFF"/>
<path opacity="0.2" d="M220.2 657.189L255.4 659.489L258.5 644.389L219.7 642.589L220.2 657.189Z" fill="white"/>
<path fill-rule="evenodd" clip-rule="evenodd" d="M243.2 679.189C243.2 679.189 243.2 679.156 243.2 679.089C243.2 678.889 243.5 674.289 245.2 672.889C245.6 672.489 246.4 672.289 246.9 672.389C247.6 672.489 248.2 672.989 248.3 673.689C248.5 674.689 247.7 676.089 246.7 677.289C248.3 676.589 250.1 675.989 251.2 676.489C251.6 676.689 251.9 677.089 252 677.589C252.2 678.389 252 679.189 251.4 679.689C250.5 680.289 249.4 680.489 248.3 680.289C246.9 680.156 245.533 679.889 244.2 679.489C244.133 679.489 244.067 679.489 244 679.489C244 679.389 244 679.389 244 679.389C243.9 679.289 243.6 679.289 243.5 679.189H243.2ZM247.6 673.789C247.6 673.589 247.5 673.289 247 673.189H246.8C246.5 673.189 246.2 673.289 246 673.489C245 674.389 244.7 676.889 244.6 678.389C244.733 678.323 244.833 678.256 244.9 678.189C246.3 677.089 247.7 674.889 247.6 673.789ZM250.9 679.089C251.3 678.789 251.4 678.289 251.3 677.789C251.2 677.589 251.1 677.389 250.9 677.289C249.9 676.789 247.1 677.989 245.2 678.989C248 679.789 250.1 679.789 250.9 679.089Z" fill="#407BFF"/>
<path d="M242.8 677.189L224.8 676.089C224.2 675.989 223.6 676.489 223.6 677.089L221.8 691.289C221.7 692.889 222.9 694.189 224.4 694.289C230.7 694.589 233.7 694.389 241.7 694.889C246.5 695.189 256.1 696.189 262.8 695.489C269.5 694.889 268.7 688.289 265.8 687.989C258.9 687.189 249.8 682.089 245.5 678.289C244.8 677.589 243.8 677.289 242.8 677.189Z" fill="#263238"/>
<path opacity="0.2" d="M294.6 512.089C290.8 510.889 285.8 509.489 279.9 507.889C281.1 498.189 281.1 487.089 276.4 481.389C267.2 470.189 243.4 463.489 229.8 461.089C218.5 459.089 180.4 455.189 180.4 455.189C180.4 455.189 229.8 450.389 280.3 465.189C305.3 472.489 300.5 496.889 294.6 512.089Z" fill="black"/>
<path d="M163.5 422.789L133.1 422.989L132 430.389L163.5 430.889V422.789Z" fill="#263238"/>
<path d="M167.4 422.689V430.989L220.5 431.789V422.289L167.4 422.689Z" fill="#263238"/>
<path d="M194.6 425.489V430.989C194.6 432.289 195.7 433.389 197 433.389H206.2C207.5 433.389 208.6 432.289 208.6 430.989V425.489C208.6 424.189 207.5 423.089 206.2 423.089H197C195.7 423.089 194.6 424.189 194.6 425.489Z" fill="white"/>
<path d="M210.1 345.789C210.1 345.789 210.6 347.189 211.5 349.289C212.4 351.589 213.7 354.789 215.4 358.389C219.4 367.089 225.2 378.089 231.3 384.089C233.1 385.889 234.9 387.189 236.7 387.889C243.1 390.289 259.4 390.789 273.9 390.689C288.1 390.489 300.8 389.789 300.8 389.789V378.789L253.1 366.089C253.1 366.089 228 320.689 213.1 313.989L210.1 345.789Z" fill="#263238"/>
<path opacity="0.2" d="M211.5 349.289C212.4 351.589 213.7 354.789 215.4 358.389C219.4 367.089 225.2 378.089 231.3 384.089C237.4 361.289 214.6 339.689 214.6 339.689L211.5 349.289Z" fill="black"/>
<path d="M130.9 425.589H221.9C233.1 342.889 213.1 314.389 213.1 314.389C205.7 312.189 198.1 310.689 190.5 309.789C179.3 308.856 168.067 308.589 156.8 308.989C149.133 309.189 141.533 309.956 134 311.289C129.9 312.989 125.8 330.889 129.9 386.389C131.2 404.789 131.2 419.989 130.9 425.589Z" fill="#263238"/>
<path opacity="0.1" d="M130.9 425.589H221.9C233.1 342.889 213.1 314.389 213.1 314.389C205.7 312.189 198.1 310.689 190.5 309.789C179.3 308.856 168.067 308.589 156.8 308.989C149.133 309.189 141.533 309.956 134 311.289C129.9 312.989 125.8 330.889 129.9 386.389C131.2 404.789 131.2 419.989 130.9 425.589Z" fill="white"/>
<path d="M201.5 342.689H217.4L218.6 361.689L210.1 367.189L201.5 362.989V342.689Z" fill="#263238"/>
<path d="M157.6 308.189L184.3 317.289L185.4 309.689C182.8 305.089 182.1 302.189 184.3 296.889L166.5 276.489C167 286.989 165.1 301.289 157.6 308.189Z" fill="#EBB376"/>
<path opacity="0.2" d="M173.7 284.789L184.3 296.889C183.5 298.756 182.867 300.689 182.4 302.689C177.9 301.289 172.4 295.389 172.6 290.589C172.6 288.589 173 286.589 173.7 284.789Z" fill="black"/>
<path d="M196.1 251.889C189.7 255.189 191.5 262.389 203.6 274.789C210 268.389 212.6 254.789 208.7 250.689C204.8 246.689 201.8 249.089 196.1 251.889Z" fill="#263238"/>
<path d="M169.1 259.689C167.9 274.389 166.5 282.889 172.7 291.389C182.1 304.189 201 300.089 206.5 286.089C211.5 273.589 212.7 251.789 199.3 243.889C189.8 238.289 177.5 241.489 171.9 250.989C170.3 253.589 169.3 256.589 169.1 259.689Z" fill="#EBB376"/>
<path d="M190.2 266.889C190 267.989 190.5 269.089 191.3 269.189C192.1 269.289 192.8 268.389 193 267.289C193.2 266.089 192.7 264.989 191.9 264.889C191.2 264.789 190.5 265.689 190.2 266.889Z" fill="#263238"/>
<path d="M203.6 268.789C203.4 269.989 203.9 270.989 204.7 271.189C205.5 271.289 206.2 270.389 206.4 269.189C206.6 267.989 206.1 266.989 205.3 266.889C204.6 266.789 203.8 267.589 203.6 268.789Z" fill="#263238"/>
<path d="M199.2 268.689C200 272.589 201.5 276.189 203.3 279.689C200.9 281.289 197.5 279.889 197.5 279.889L199.2 268.689Z" fill="#D58745"/>
<path d="M187.2 262.089C187 262.089 186.833 262.023 186.7 261.889C186.5 261.689 186.4 261.189 186.7 260.889C188.3 259.289 190.5 258.489 192.8 258.889C193.1 258.989 193.4 259.289 193.3 259.689C193.2 260.089 192.9 260.289 192.5 260.289C190.7 259.989 188.9 260.589 187.7 261.889C187.567 262.023 187.4 262.089 187.2 262.089Z" fill="#263238"/>
<path d="M210.4 265.189C210.1 265.089 209.9 264.889 209.8 264.689C209.3 262.989 208 261.589 206.4 260.989C206 260.889 205.8 260.489 205.9 260.089C206 259.789 206.4 259.489 206.7 259.589C208.9 260.389 210.5 262.089 211.1 264.289C211.3 264.589 211.1 264.989 210.7 265.089C210.567 265.156 210.467 265.189 210.4 265.189Z" fill="#263238"/>
<path d="M176.8 247.689C183.2 250.989 181.3 258.189 169.1 270.589C162.8 264.089 160.2 250.389 164.2 246.489C168.1 242.489 171.1 244.889 176.8 247.689Z" fill="#263238"/>
<path d="M160.5 270.289C161 273.989 163 277.289 165.9 279.589C169.8 282.489 173.5 279.389 173.9 274.789C174.3 270.589 172.6 264.089 168 262.989C163.4 261.889 159.9 265.789 160.5 270.289Z" fill="#EBB376"/>
<path d="M186.3 280.889C186.3 280.889 188.2 285.989 195.3 286.689" stroke="#263238" stroke-width="1.1" stroke-linecap="round" stroke-linejoin="round"/>
<path d="M191.8 247.289C191.8 247.289 187.8 261.589 173.6 260.689C159.5 259.889 157.6 250.789 157.6 250.789C157.6 250.789 159.7 251.389 161 251.489C161 251.489 157.8 243.889 162.8 237.589C167.8 231.289 182.6 225.989 192.6 230.989C192.6 230.989 202.9 228.489 212 235.389C221 242.289 217.7 254.289 217.7 254.289C217.7 254.289 219.1 246.889 214.8 244.289C214.8 244.289 218.4 260.389 209.5 263.389C209.5 263.389 210.6 248.089 191.8 247.289Z" fill="#263238"/>
<path opacity="0.5" d="M176 287.289C176 287.289 181.7 275.789 185.4 275.689C189.1 275.489 193.3 281.489 193.3 281.489L191.6 282.589C191.6 282.589 188.1 278.489 186.5 278.189C185 277.789 179.4 284.689 180.4 287.289C181.4 289.789 184.7 290.889 184.7 290.889L187.9 287.489L190.8 289.189L189 293.689C189 293.689 192.7 295.189 195.3 293.689C197.9 292.289 198.7 285.489 198.5 284.989C198.3 284.589 194.3 283.789 194.3 283.789L195.3 282.189C195.3 282.189 200.7 281.589 201.5 283.289C202.4 284.989 199.8 295.489 197.1 296.689C194.5 297.889 190.3 299.589 184.3 296.989C178.2 294.389 174.4 290.189 176 287.289Z" fill="black"/>
<path d="M206.5 377.989C206.5 377.989 257 376.889 259.8 376.589C262.6 376.289 274.6 369.589 277.1 369.289C279.7 368.989 286.5 379.689 287.3 382.189C288.2 384.789 268.3 391.489 266.3 391.189C264.3 390.889 259.8 388.789 259.8 388.789L208.3 395.389L206.5 377.989Z" fill="#EBB376"/>
<path opacity="0.2" d="M128.4 357.789C135.9 369.989 146.4 382.989 156.8 382.389C167.8 381.689 156.8 359.389 145 339.889C144.533 340.823 144.133 341.723 143.8 342.589C141.2 350.089 133 340.889 128.9 328.889C128.3 335.889 128 345.389 128.4 357.789Z" fill="black"/>
<path d="M134 311.289C108.2 320.589 153.5 390.489 167.6 397.689C181.6 404.889 218.6 396.589 218.6 396.589L216.3 374.989C216.3 374.989 187 376.989 181.2 375.489C175.4 373.989 161.5 344.189 153.6 330.189C145.6 316.089 134 311.289 134 311.289Z" fill="#263238"/>
<path d="M159.3 303.389C159.3 303.389 169.6 310.589 183.3 315.889C183.3 315.889 184.9 309.789 183.3 304.489L195.1 310.389C195.1 310.389 196.1 319.589 193.3 324.289L184.7 317.989L175 325.889C175 325.889 156.6 318.789 153.7 309.189L159.3 303.389Z" fill="#263238"/>
<path d="M313.1 695.789H301.7L299.8 409.589H315L313.1 695.789Z" fill="#263238"/>
<path opacity="0.4" d="M315 410.089L314.7 456.189L313.1 695.789H301.7L300.1 456.189L299.8 410.089H315Z" fill="white"/>
<path opacity="0.2" d="M315 410.089L314.7 456.689H300.1L299.8 410.089H315Z" fill="black"/>
<path d="M434.5 695.789H423.1L402.6 409.589H417.7L434.5 695.789Z" fill="#263238"/>
<path opacity="0.5" d="M434.6 695.789H423.1L403.6 423.789L402.5 410.089H417.7L418.6 423.789L434.6 695.789Z" fill="white"/>
<path opacity="0.2" d="M418.6 423.089H403.6L402.5 410.089H417.7L418.6 423.089Z" fill="black"/>
<path d="M191.7 695.789H180.2L197 409.589H212.2L191.7 695.789Z" fill="#263238"/>
<path opacity="0.5" d="M212.2 410.089L211.2 423.789L191.6 695.789H180.2L196.2 423.789L197 410.089H212.2Z" fill="white"/>
<path opacity="0.2" d="M197 410.089H212.2L211.2 423.089H196.2L197 410.089Z" fill="black"/>
<path d="M425.4 416.789H189.3C186.9 416.789 185 414.789 185 412.389V402.389H429.8V412.389C429.8 414.789 427.8 416.789 425.4 416.789Z" fill="#263238"/>
<path opacity="0.6" d="M425.4 416.789H189.3C186.9 416.789 185 414.789 185 412.389V402.389H429.8V412.389C429.8 414.789 427.8 416.789 425.4 416.789Z" fill="white"/>
<path opacity="0.2" d="M429.8 409.589H185V402.389H429.8V409.589Z" fill="black"/>
<path d="M436.9 404.289H177.9C175.7 404.289 173.9 402.489 173.9 400.289C173.9 397.989 175.7 396.189 177.9 396.189H436.9C439.1 396.189 440.9 397.989 440.9 400.289C440.9 402.489 439.1 404.289 436.9 404.289Z" fill="#263238"/>
<path opacity="0.6" d="M436.9 404.289H177.9C175.7 404.289 173.9 402.489 173.9 400.289C173.9 397.989 175.7 396.189 177.9 396.189H436.9C439.1 396.189 440.9 397.989 440.9 400.289C440.9 402.489 439.1 404.289 436.9 404.289Z" fill="white"/>
<path d="M356.1 387.989V392.589C356.1 393.989 353.7 394.989 352.3 394.989H242.9C241.5 394.989 239.2 393.989 239.2 392.589V387.989H356.1Z" fill="#263238"/>
<path opacity="0.6" d="M356.1 387.989V392.589C356.1 393.989 353.7 394.989 352.3 394.989H242.9C241.5 394.989 239.2 393.989 239.2 392.589V387.989H356.1Z" fill="white"/>
<path opacity="0.2" d="M356.1 387.989V392.589C356.1 393.989 353.7 394.989 352.3 394.989H280.1C278.7 394.989 276.4 393.989 276.4 392.589V387.989H356.1Z" fill="black"/>
<path d="M373.7 330.389L360.6 389.689C360.2 391.689 358.3 393.289 356.4 393.289H285.2C283.4 393.289 282.1 391.189 282.6 389.289L295.6 330.589C296 328.689 297.9 327.689 299.8 327.689H371C372.9 327.689 374.1 328.489 373.7 330.389Z" fill="#263238"/>
<path opacity="0.6" d="M373.7 330.389L360.6 389.689C360.2 391.689 358.3 393.289 356.4 393.289H285.2C283.4 393.289 282.1 391.189 282.6 389.289L295.6 330.589C296 328.689 297.9 327.689 299.8 327.689H371C372.9 327.689 374.1 328.489 373.7 330.389Z" fill="white"/>
<path opacity="0.4" d="M373.7 330.389L360.6 389.689C360.2 391.689 358.3 393.289 356.4 393.289H287.7C285.8 393.289 284.6 391.189 285 389.289L298 330.589C298.4 328.689 300.3 327.689 302.2 327.689H371C372.9 327.689 374.1 328.489 373.7 330.389Z" fill="white"/>
<path opacity="0.2" d="M331.8 368.389C335.1 368.389 338.5 364.889 339.4 360.489C340.2 356.089 338.3 352.489 334.9 352.489C334.3 352.489 333.7 352.623 333.1 352.889C332.3 356.289 330 359.189 327.4 360.089C327.4 360.223 327.367 360.356 327.3 360.489C326.5 364.889 328.5 368.389 331.8 368.389Z" fill="black"/>
</svg>
