<svg id="Calque_1" data-name="Calque 1" xmlns="http://www.w3.org/2000/svg" viewBox="0 0 1201.4 818.08"><defs><style>.cls-1{fill:#fff7f4;opacity:0.75;isolation:isolate;}.cls-2{opacity:0.49;}.cls-3{opacity:0.8;}.cls-4{fill:#d3bd9f;}.cls-5{fill:#f8f4ef;}.cls-6{fill:#f1ebe1;}.cls-7{fill:#e4d7c5;}.cls-8{fill:#eae0d1;}.cls-9{fill:#ede5d8;}.cls-10{fill:#f3ede4;}.cls-11{fill:#e0d1bc;}.cls-12,.cls-13,.cls-24{fill:#95621a;}.cls-12{opacity:0.43;}.cls-14{fill:#d65c1b;}.cls-15{fill:#fbd8c8;}.cls-16,.cls-18{opacity:0.9;}.cls-17{fill:#f7e1d5;}.cls-18{fill:#ebb090;}.cls-19{fill:#efc0a7;}.cls-20{fill:#f4d2c0;}.cls-21{fill:#faede6;}.cls-22{fill:none;stroke:#f3ceba;stroke-width:0;}.cls-23{fill:#fef9f7;}.cls-24{opacity:0.14;}.cls-25,.cls-26{fill:#eb6128;}.cls-26{opacity:0.5;}.cls-27{fill:#f47a00;}.cls-28{fill:#f79224;}</style></defs><path class="cls-1" d="M12.16,0h1166.5a12.08,12.08,0,0,1,12.16,12V806.08a12.08,12.08,0,0,1-12.16,12H12.16A12.08,12.08,0,0,1,0,806.08V12A12.08,12.08,0,0,1,12.16,0Z" transform="translate(10.58)"/><g class="cls-2"><g class="cls-3"><g class="cls-3"><path class="cls-4" d="M483.86,489.67c-1.89-1.4-9.53.13-17.63.53l3.9.14Q477,490.27,483.86,489.67Z" transform="translate(10.58)"/><path class="cls-4" d="M470.13,490.34l-3.9-.14c-1,.05-2,.09-3,.1C465.5,490.36,467.82,490.37,470.13,490.34Z" transform="translate(10.58)"/><path class="cls-4" d="M484.3,490.44a1,1,0,0,0-.44-.77q-6.9.58-13.73.67C474.92,490.49,479.67,490.5,484.3,490.44Z" transform="translate(10.58)"/><path class="cls-4" d="M463.25,490.3c-2.41-.05-4.9-.17-7.3-.3A55.48,55.48,0,0,0,463.25,490.3Z" transform="translate(10.58)"/><path class="cls-5" d="M275.09,474.87c7.24-.11,14.48.08,21.68.56s14.45,1.27,21.63,2.22,14.33,2.15,21.46,3.55,14.3,2.92,21.47,4.56c14.31,3.25,28.64,6.85,43.24,10.05q5.48,1.2,11,2.3l5.51,1.06c1.82.35,3.7.69,5.58,1q11.25,1.92,22.62,3c-8.39-1.13-16.58-2.62-24.43-4.38s-15.18-3.56-22.13-5.36C381.8,488,360.85,482.58,339.46,479a320,320,0,0,0-32.15-3.81A266.53,266.53,0,0,0,275.09,474.87Z" transform="translate(10.58)"/><path class="cls-6" d="M540.05,491.35c4.93-1.85,9.64-3.88,14.33-6.06s9.29-4.56,13.8-7.09,8.91-5.19,13.32-8.14,8.54-6,12.61-9.28c-4,3.11-8.17,6.11-12.47,9s-8.75,5.49-13.27,8-9.13,4.94-13.85,7.2S545,489.36,540.05,491.35Z" transform="translate(10.58)"/><path class="cls-5" d="M277.89,474.4q8.06-.31,16.13-.16c5.38.11,10.74.39,16.16.81a322,322,0,0,1,32.17,4.06c21.38,3.7,42.36,9.16,63.3,14.51q5.24,1.32,10.8,2.65l5.61,1.3c1.88.45,3.85.88,5.8,1.29,7.85,1.67,16.05,3.08,24.44,4.12,3,.24,6,.44,9.06.58s6.14.2,9.2.2q9.19,0,18.36-.87c6.08-.59,12.18-1.41,18.23-2.6s12-2.58,17.84-4.28,11.65-3.64,17.41-5.87,11.28-4.76,16.76-7.49,10.82-5.7,16-8.88c2.59-1.58,5.25-3.29,7.77-5s5-3.55,7.49-5.43q6.24-5,12-10.36c3.86-3.56,7.6-7.35,11.08-11.09a273.42,273.42,0,0,0,19.55-23.37c14-19.4,25.28-40.21,36.13-60.64s21.48-40.82,33.51-60q4.51-7.2,9.31-14.2,2.4-3.5,4.88-6.93l2.48-3.39,2.6-3.46c.91-1.22,1.66-2.16,2.47-3.21l1.2-1.55,1.36-1.67,2.73-3.35,1.36-1.68.68-.83c.24-.29.46-.56.65-.77l5.67-6.4c1.89-2.1,3.75-4.13,5.63-6l6.18-6.2,2.86-2.69,3.09-2.83c4-3.84,8.5-7.44,13-11.22l.88-.74.45-.37.34-.25,1.34-1,3.5-2.62c2.3-1.73,4.54-3.39,6.85-5q6.9-4.89,14.12-9.36c4.81-3,9.71-5.81,14.7-8.46s10.11-5.22,15.28-7.6a298.78,298.78,0,0,1,31.87-12.58q8.16-2.68,16.47-4.93c5.54-1.48,11.15-2.8,16.84-4q17-3.66,34.42-5.74t35-2.62c6-.17,11.88-.3,17.78-.28s11.84.14,17.77.38c3,.12,5.91.28,8.94.45l4.48.23,4.42.34,8.93.7c3,.23,6,.62,9,.93,6,.67,12,1.24,18,2s11.92,1.67,17.92,2.63l15.94,2.56c3.57.62,7.7,1.42,11.86,2.17s8.37,1.45,12.8,2.42c8.78,1.8,17.58,3.54,24.91,5.11,3.68.72,6.91,1.5,9.64,2.05s4.88,1,6.29,1.2l4.89,1,4.86,1.13,9.86,2.31.15-.54-12.81-3.68c-4.25-1.21-8.54-2.3-12.91-3.47l-6.59-1.72-6.74-1.59c-4.54-1.09-9.15-2-13.89-3-5.61-1.26-11.29-2.44-16.82-3.32l-8.43-1.45c-2.82-.5-5.68-1.06-8.41-1.51-6.39-1.11-12.66-2.18-18.87-3.15q-4.66-.74-9.27-1.38c-3.1-.44-6.08-.83-9.28-1.22l-18.48-2c-3.08-.35-6.16-.53-9.25-.8s-6.13-.52-9.25-.67c-6.27-.33-12.51-.67-18.85-.79s-12.76-.12-19.28.05c-3.25.08-6.61.21-9.92.34s-6.65.33-10,.58q-10.1.72-20.61,2.1c-8.4,1.23-19.64,2.37-30.85,4.07-5.6.85-11.2,1.83-16.39,2.93a137.31,137.31,0,0,0-14,3.66,339.36,339.36,0,0,0-45.69,17.3,285.94,285.94,0,0,0-40.26,22.59c-3.15,2.12-6.21,4.29-9.28,6.54l-4.52,3.31-1,.72-1.15.94-2.27,1.84-4.44,3.63-2.22,1.82-2.09,1.88c-2.77,2.51-5.63,5.06-8.22,7.49-.34.31-.66.59-1,.94l-1,1L743.27,239c-1.43,1.41-2.69,2.64-4,4-2.57,2.69-5.1,5.54-7.67,8.47l-1.93,2.19c-.57.62-1.19,1.41-1.8,2.16l-3.67,4.56-1.82,2.28-1.68,2.21c-1.1,1.43-2.31,3.08-3.48,4.67-7.49,10.33-13.77,20.27-19.46,29.94S687,318.64,682.05,328.19s-10,19.23-15.2,29.32-11,20.75-17.77,32.11c-3,5.08-6.66,11.48-10.61,17.76s-8.13,12.51-11.8,17.24a238.15,238.15,0,0,1-19.42,21.91,179.83,179.83,0,0,1-22.62,19c-4,2.84-8.21,5.56-12.39,8s-8.5,4.84-12.87,7-8.81,4.23-13.32,6.11c-2.24.94-4.55,1.85-6.86,2.7s-4.61,1.65-6.93,2.41a202.67,202.67,0,0,1-28.41,7.07,193.39,193.39,0,0,1-29.17,2.68c-4.87.07-9.75,0-14.62-.32s-9.61-.7-14.4-1.24-9.55-1.2-14.3-2c-2.38-.4-4.75-.82-7.11-1.28l-7-1.39c-17.31-3.27-33.65-9.82-50.69-13l-17.05-2.83c-5.67-.89-11.37-1.78-17-2.52-11.29-1.49-22.68-2.52-34-3-2.81-.18-5.61-.78-9.13-1.35a73.61,73.61,0,0,0-13.47-1c-5.47,0-10.93.29-16.25.73l-4.05.36-3.87.41c-1.26.12-2.6.32-3.94.52l-4,.57-4,.59-3.84.74c-2.62.5-5.2,1-7.74,1.56s-5,1.14-7.48,1.8c-1.27.35-2.57.66-3.85,1l-1.92.49c-.63.17-1.2.36-1.8.53L206,483.19l-3.69,1.14c-1.23.37-2.45.76-3.63,1.2l-7.13,2.54c-2.36.86-4.69,1.82-7,2.72-9.36,3.64-18.43,7.78-27.31,12.16l6.24-2.45q6.8-3.12,13.74-5.9c4.62-1.88,9.31-3.48,14-5.19,4.72-1.51,9.32-3.14,14.22-4.43l7.13-2,1.7-.47c.57-.15,1.12-.32,1.76-.45l3.74-.85,3.62-.85c1.17-.26,2.36-.51,3.55-.75,2.38-.48,4.81-.92,7.26-1.35l3.71-.64,1.8-.32c.52-.1,1.14-.18,1.77-.25l7.44-1,1.85-.23,1.74-.16,3.5-.33c2.47-.2,5-.41,7.34-.54Q270.57,474.43,277.89,474.4Z" transform="translate(10.58)"/><path class="cls-5" d="M63.13,571.88c4.24-4.69,8.52-9.16,12.73-13.31a365,365,0,0,0-41.93,43A438.66,438.66,0,0,0-2.55,652.83q14.57-22.05,31-42.44A461.32,461.32,0,0,1,63.13,571.88Z" transform="translate(10.58)"/><path class="cls-5" d="M111.05,530.9l-1,.62q12.72-9,26.11-16.81a306.32,306.32,0,0,1,27.31-14.21L157.19,503c-10.54,5.21-20.74,10.93-30.88,16.89l-4,2.42-4.08,2.54c-3.58,2.62-7.28,5.43-10.94,8.41l-2,1.23c-8.37,5.22-18.7,13.55-29.38,24.13,2.44-2.11,4.88-4.19,7.3-6.16Q96.73,541.24,111.05,530.9Z" transform="translate(10.58)"/><path class="cls-7" d="M115.29,508.12c18-10.56,32.35-18.49,47.19-25.53,3.71-1.76,7.46-3.45,11.3-5.08s7.85-3.15,12-4.71l6.4-2.19,3.29-1.1,3.32-.95,6.89-1.91,3.9-1c.64-.16,1.35-.36,1.95-.48l1.82-.38a317.78,317.78,0,0,1,44.62-6.84,307.52,307.52,0,0,1,44.28-.38,282.88,282.88,0,0,0-49.82.12c-4.55.39-8.33.94-12.35,1.43l-1.5.19c-.51.07-.94.1-1.55.22l-3.08.52-5.95,1q-3,.54-6.09,1.18l-3.08.67-3,.7-2.84.64c-1,.22-1.84.4-2.94.71l-6.15,1.69-5.77,1.63-2.88.82-2.92.95c-3.9,1.28-7.82,2.52-11.62,4L175,476.16q-2.82,1.09-5.65,2.25-5.64,2.31-11.18,4.83-11.1,5-21.77,10.94c-7.11,3.94-14,8.11-20.82,12.52C116.51,506.42,116.78,506.66,115.29,508.12Z" transform="translate(10.58)"/><path class="cls-8" d="M2.49,632c3-5.08,6.59-10.72,11.13-17.07s10-13.44,16.79-21.27A385.16,385.16,0,0,1,64.71,559c11.37-10.18,22.65-19.38,34.21-28.15a397.5,397.5,0,0,1,52.91-33.72,310.83,310.83,0,0,1,29.44-13.55c2.54-1,5.06-2,7.62-3l7.73-2.73c2.58-.92,5.2-1.64,7.79-2.46l3.92-1.2,4-1.19c2.66-.73,5.24-1.31,7.9-2s5.37-1.28,8.05-1.83,5.35-1.06,8-1.57,5.41-.86,8.09-1.27a235,235,0,0,1,32.52-2.47,240.59,240.59,0,0,1,31.92,1.85,280.13,280.13,0,0,1,30.57,5.45c18.4,4.23,37.23,9.38,56.77,14.07,9.76,2.34,19.73,4.5,29.88,6.3a262.39,262.39,0,0,0,31.05,3.58,186.21,186.21,0,0,0,63.35-7.19,190,190,0,0,0,30.25-11.65,201.68,201.68,0,0,0,28.07-16.43,147.7,147.7,0,0,0,21.68-19.07c6.92-7.36,13.26-15.24,18.52-22.08,4.41-5.7,8.42-11.57,12.28-17.46s7.46-11.86,10.92-17.84c6.92-11.94,13.19-24,19.44-35.8,12.45-23.68,24.6-46.85,39.25-68.51A229.67,229.67,0,0,1,715.94,259c2.26-2.67,4.45-5,6.54-7.38.53-.58,1-1.17,1.57-1.73l1.62-1.65,3.23-3.28c2.16-2.19,4.36-4.4,6.75-6.67l7.77-7.3,9.36-8.44,1.31-1.19,1.39-1.17,2.9-2.44c2-1.65,4-3.49,6.27-5.3s5.92-4.11,9.54-6.41,7.38-4.49,9.76-6.09q10.26-6.94,21.16-13c7.27-4,14.74-7.7,22.35-11.1a303.56,303.56,0,0,1,47.31-16.63,384.06,384.06,0,0,1,49.62-9.35q12.55-1.51,25.22-2.24c4.22-.22,8.43-.41,12.67-.5s8.47-.2,12.69-.21c16.91-.07,33.84.87,50.66,2.42l12.61,1.42c4.19.48,8.41.93,12.61,1.5,8.36,1.11,16.69,2.46,25,3.91,4.16.74,8.33,1.44,12.43,2.26l12.37,2.53,6.15,1.27,6.14,1.42,12.29,2.86,12.23,3c4.06,1.05,8.1,2.16,12.14,3.24l6.05,1.63,6,1.73,12,3.51c1.57-1,1.92-2.19,1-3.69l-16.62-4.66-16.75-4.4c-2.78-.75-5.6-1.38-8.41-2.08s-5.61-1.38-8.43-2l-16.91-3.9-17-3.5c-2.83-.61-5.68-1.12-8.52-1.63l-8.53-1.52c-11.37-2-22.78-3.76-34.18-5-11.39-1.43-22.78-2.61-34.14-3.3s-22.67-1.16-33.9-1.13c-2.81,0-5.6.05-8.39.1s-5.58.11-8.37.2q-8.35.3-16.61.93c-11,.87-21.86,2.17-32.5,3.92a351.86,351.86,0,0,0-42.67,9.46,306.23,306.23,0,0,0-41,15.27,287,287,0,0,0-38.4,21.08c-6.12,4-12.09,8.28-17.86,12.68l-2.18,1.64c-.76.59-1.55,1.19-2.27,1.77l-4.15,3.47c-2.77,2.35-5.61,4.59-8.26,7.14s-5.38,4.93-8.09,7.53l-1,1-.94,1-1.88,1.92c-1.23,1.27-2.58,2.56-3.84,3.9-2.56,2.67-5,5.4-7.39,8.13L721.87,248l-3.45,4.23L715,256.44l-3.4,4.41c-2.17,2.87-4.37,5.81-6.48,8.79q-6.36,8.91-12.22,18.14c-15.68,24.61-28.66,50.63-42.59,75.9-6.49,11.86-13.36,23.76-21,35.3-1.89,2.88-3.87,5.75-5.85,8.59s-4,5.6-6.16,8.34q-6.36,8.22-13.47,15.89a172.77,172.77,0,0,1-31.41,26.91,202.73,202.73,0,0,1-36.41,19,1,1,0,0,1,.64.61c-4.42,1.38-9,2.72-13.62,4-2.2.69-4.4,1.32-6.61,1.94a52.74,52.74,0,0,1-7,1.79c2.33-.56,4.71-1.15,7-1.79,1-.31,1.9-.63,2.85-1-5,1.27-10.14,2.42-15.31,3.4s-10.36,1.75-15.59,2.37a204.46,204.46,0,0,1-30.77,1.25,249.82,249.82,0,0,1-27.83-2.43c-8.42-1.28-16-2.76-22-4.32-20.92-5.33-43.29-11.58-66.81-16a339.62,339.62,0,0,0-36-4.88,271,271,0,0,0-36.59-.5c-3,.16-6.05.37-9.1.63l-4.47.44-4.6.51c-1.57.16-3,.41-4.47.61l-4.38.64c-1.47.23-2.89.39-4.45.72l-4.31.82c-2.88.55-5.77,1.12-8.65,1.76-1.44.31-2.88.65-4.32,1s-2.78.71-4.17,1c-2.7.6-5.61,1.49-8.4,2.29L199,475c-1.34.37-2.68.83-4,1.29l-4,1.34L187,478.93l-3.86,1.45c-2.55,1-5.13,1.87-7.6,2.87s-5,2-7.38,3c-9.69,4.1-18.8,8.45-27.28,12.84a338.79,338.79,0,0,0-47.21,30.27c-7.15,5.49-14,11.13-20.42,17S60.72,558,54.9,564A410.73,410.73,0,0,0-1.43,636.64C-.07,635,1.25,633.41,2.49,632Z" transform="translate(10.58)"/><path class="cls-9" d="M9.94,631.27l4.35-4.46a369.45,369.45,0,0,1,57.26-69.59c6-5.72,12.25-11.33,18.78-16.72S103.63,530,110.59,525a330.86,330.86,0,0,1,43.46-25.93c5.15-2.6,16.08-6.46,27-10,3.38-1.17,6.55-2.39,9.61-3.49s6-2.11,8.8-3.15,5.63-1.87,8.3-2.79l3.92-1.34c1.28-.44,2.53-.9,3.86-1.26l3.89-1.16c1.28-.41,2.53-.77,3.8-1.13,2.53-.72,5.08-1.35,7.68-1.94s5.24-1.13,7.91-1.64,5.48-.77,8.35-1.09a275.44,275.44,0,0,1,37.67-1.32,323.37,323.37,0,0,1,37.51,3.58c24.84,3.75,49.29,10.19,74,15.9,6.19,1.43,12.4,2.8,18.66,4.05,3.14.63,6.25,1.2,9.39,1.78s6.32,1.09,9.5,1.55q9.52,1.38,19.13,2.1c6.38.49,12.86.76,19.31.63a186.16,186.16,0,0,0,38.42-4.58,192.43,192.43,0,0,0,36.68-12.23q8.81-4,17.22-8.77A181.34,181.34,0,0,0,581,462.4a177.26,177.26,0,0,0,28.7-25.86A239.25,239.25,0,0,0,633.05,406c7-10.69,13.34-21.76,19.37-32.95,12-22.39,23.08-45.15,35.61-67.05,6.26-10.94,13-21.64,20.15-32,3.58-5.15,7.38-10.27,11.19-15.15l5.94-7.39,6.22-7.11c3.84-4.28,4.43-3.71,5.52-3.66a4.16,4.16,0,0,0,2.53-.86,23.77,23.77,0,0,0,2.55-1.86c1.07-.88,2.4-2.12,4-3.55l3-2.77,3.11-2.81,3.09-2.79,1.53-1.39,1.61-1.33,6.4-5.29,1.65-1.36.41-.34.36-.27.72-.54,3.17-2.37a275.36,275.36,0,0,1,26.09-17.57,250.69,250.69,0,0,1,55-24.18c2.76-.66,8-2.76,14.66-5.2A227.89,227.89,0,0,1,890,159a310.64,310.64,0,0,1,45.57-7.66q11.34-1.07,22.62-1.37c3.75-.09,7.56-.16,11.32-.19s7.52,0,11.27.07c7.52.13,15,.45,22.53.95,3.8.26,7.56.45,11.3.81l11.33,1,22.93,2.54c7.65.91,15.36,2,23.2,3.12,4.21.58,8.47,1.22,12.66,1.89s8.4,1.53,12.56,2.3l6.22,1.2,3.11.61,3.13.7,12.5,2.81c8.33,1.89,16.67,3.93,24.92,6.11,4.13,1.09,8.26,2.07,12.35,3.24l12.41,3.35a9,9,0,0,0,1.83-.83l-12-3.51-6-1.73-6.05-1.63c-4-1.08-8.08-2.19-12.14-3.24l-12.23-3L1113,163.67l-6.14-1.42-6.15-1.27-12.37-2.53c-4.1-.82-8.27-1.52-12.43-2.26-8.32-1.45-16.65-2.8-25-3.91-4.2-.57-8.42-1-12.61-1.5l-12.61-1.42c-16.82-1.55-33.75-2.49-50.66-2.42-4.22,0-8.46.1-12.69.21s-8.45.28-12.67.5q-12.65.71-25.22,2.24a384.06,384.06,0,0,0-49.62,9.35,303.56,303.56,0,0,0-47.31,16.63c-7.61,3.4-15.08,7.1-22.35,11.1s-14.32,8.33-21.16,13c-2.38,1.6-6.1,3.79-9.76,6.09s-7.33,4.72-9.54,6.41c-3.43,2.85-6.46,5.47-9.3,7.79-1.45,1.14-2.72,2.35-4,3.46l-3.7,3.22c-4.79,4.1-9,8-13.5,12.15-2.22,2.13-4.48,4.4-6.88,6.9-1.2,1.25-2.45,2.55-3.75,3.92l-3.89,4.46a251.8,251.8,0,0,0-18.8,24.74c-14.9,22.06-26.91,45.07-39.27,68.54-6.19,11.74-12.41,23.66-19.3,35.57-3.45,6-7.07,11.93-10.92,17.86s-7.93,11.86-12.4,17.64c-5.26,6.84-11.6,14.72-18.52,22.08a147.7,147.7,0,0,1-21.68,19.07,201.68,201.68,0,0,1-28.07,16.43,190,190,0,0,1-30.25,11.65,186.21,186.21,0,0,1-63.35,7.19A262.39,262.39,0,0,1,426,491.52c-10.15-1.8-20.12-4-29.88-6.3-19.54-4.69-38.37-9.84-56.77-14.07a280.13,280.13,0,0,0-30.57-5.45,240.59,240.59,0,0,0-31.92-1.85,235,235,0,0,0-32.52,2.47c-2.68.41-5.37.7-8.09,1.27s-5.33,1-8,1.57-5.37,1.15-8.05,1.83-5.24,1.3-7.9,2l-4,1.19-3.92,1.2c-2.59.82-5.21,1.54-7.79,2.46l-7.73,2.73c-2.56.94-5.08,2-7.62,3a310.83,310.83,0,0,0-29.44,13.55,397.5,397.5,0,0,0-52.91,33.72c-11.56,8.77-22.84,18-34.21,28.15a385.16,385.16,0,0,0-34.3,34.69c-6.78,7.83-12.26,14.91-16.79,21.27S5.47,626.93,2.49,632c8.57-9.65,13.58-12.68,15.23-11.45C15.77,623.17,12.75,627.29,9.94,631.27Z" transform="translate(10.58)"/><path class="cls-10" d="M-10.58,653.7A166.61,166.61,0,0,0,7.15,637c3.78-4.06,3.86-5-3.79,3,2.73-4,5.66-8.2,7.57-10.85-1.68-1.21-6.62,1.92-15,11.75C-6.71,645.61-8.82,649.83-10.58,653.7Z" transform="translate(10.58)"/><path class="cls-10" d="M17.24,623.77c3.91-5.18,7.86-10.26,11.93-15.26A373.8,373.8,0,0,1,71,561.68c7.63-7.18,15.41-14,23.35-20.11s15.94-11.77,23.82-16.77c12.14-8.8,23.65-15.51,32.72-19.29l6.29-2.56c8.88-4.38,17.95-8.52,27.31-12.16,2.34-.9,4.67-1.86,7-2.72l7.13-2.54c1.18-.44,2.4-.83,3.63-1.2l3.69-1.14,7.28-2.24c.6-.17,1.17-.36,1.8-.53l1.92-.49c1.28-.33,2.58-.64,3.85-1,2.47-.66,4.94-1.24,7.48-1.8s5.12-1.06,7.74-1.56l3.84-.74,4-.59,4-.57c1.34-.2,2.68-.4,3.94-.52l3.87-.41,4.05-.36c5.32-.44,10.78-.68,16.25-.73a73.61,73.61,0,0,1,13.47,1c3.52.57,6.32,1.17,9.13,1.35,11.3.46,22.69,1.49,34,3,5.63.74,11.33,1.63,17,2.52l17.05,2.83c17,3.17,33.38,9.72,50.69,13l7,1.39c2.36.46,4.73.88,7.11,1.28q7.13,1.17,14.3,2c4.79.54,9.58,1,14.4,1.24s9.75.39,14.62.32a193.39,193.39,0,0,0,29.17-2.68,202.67,202.67,0,0,0,28.41-7.07c2.32-.76,4.63-1.57,6.93-2.41s4.62-1.76,6.86-2.7q6.76-2.82,13.32-6.11t12.87-7c4.18-2.46,8.39-5.18,12.39-8a179.83,179.83,0,0,0,22.62-19,238.15,238.15,0,0,0,19.42-21.91c3.67-4.73,7.9-11,11.8-17.24s7.65-12.68,10.61-17.76c6.82-11.36,12.47-22,17.77-32.11s10.21-19.71,15.2-29.32,10.06-19,15.73-28.68,12-19.61,19.46-29.94c1.17-1.59,2.38-3.24,3.48-4.67l1.68-2.21,1.82-2.28,3.67-4.56c.61-.75,1.23-1.54,1.8-2.16l1.93-2.19c2.57-2.93,5.1-5.78,7.67-8.47,1.29-1.36,2.55-2.59,4-4l2.09-2.11,1-1c.34-.35.66-.63,1-.94,2.59-2.43,5.45-5,8.22-7.49l2.09-1.88,2.22-1.82,4.44-3.63,2.27-1.84,1.15-.94,1-.72,4.52-3.31c3.07-2.25,6.13-4.42,9.28-6.54a285.94,285.94,0,0,1,40.26-22.59,339.36,339.36,0,0,1,45.69-17.3,137.31,137.31,0,0,1,14-3.66c5.19-1.1,10.79-2.08,16.39-2.93,11.21-1.7,22.45-2.84,30.85-4.07q10.51-1.4,20.61-2.1c3.38-.25,6.7-.44,10-.58s6.67-.26,9.92-.34q9.78-.25,19.28-.05c6.34.12,12.58.46,18.85.79,3.12.15,6.15.44,9.25.67s6.17.45,9.25.8l18.48,2c3.2.39,6.18.78,9.28,1.22s6.16.89,9.27,1.38c6.21,1,12.48,2,18.87,3.15,2.73.45,5.59,1,8.41,1.51l8.43,1.45c5.53.88,11.21,2.06,16.82,3.32,4.74,1,9.35,1.94,13.89,3l6.74,1.59,6.59,1.72c4.37,1.17,8.66,2.26,12.91,3.47l12.81,3.68.56-2a16,16,0,0,0,1.86-.49l-12.41-3.35c-4.09-1.17-8.22-2.15-12.35-3.24-8.25-2.18-16.59-4.22-24.92-6.11L1109.7,165l-3.13-.7-3.11-.61-6.22-1.2c-4.16-.77-8.42-1.62-12.56-2.3s-8.45-1.31-12.66-1.89c-7.84-1.13-15.55-2.21-23.2-3.12l-22.93-2.54-11.33-1c-3.74-.36-7.5-.55-11.3-.81-7.52-.5-15-.82-22.53-.95-3.75-.07-7.51-.1-11.27-.07s-7.57.1-11.32.19q-11.28.32-22.62,1.37A310.64,310.64,0,0,0,890,159a227.89,227.89,0,0,0-23.06,7.24c-6.66,2.44-11.9,4.54-14.66,5.2a250.69,250.69,0,0,0-55,24.18,275.36,275.36,0,0,0-26.09,17.57L768,215.57l-.72.54-.36.27-.41.34-1.65,1.36-6.4,5.29-1.61,1.33-1.53,1.39-3.09,2.79-3.11,2.81-3,2.77c-1.57,1.43-2.9,2.67-4,3.55a23.77,23.77,0,0,1-2.55,1.86,4.16,4.16,0,0,1-2.53.86c-1.09,0-1.68-.62-5.52,3.66l-6.22,7.11-5.94,7.39c-3.81,4.88-7.61,10-11.19,15.15-7.2,10.33-13.89,21-20.15,32-12.53,21.9-23.6,44.66-35.61,67.05-6,11.19-12.37,22.26-19.37,32.95a239.25,239.25,0,0,1-23.35,30.53A177.26,177.26,0,0,1,581,462.4a181.34,181.34,0,0,1-16.31,10.41q-8.4,4.79-17.22,8.77a192.43,192.43,0,0,1-36.68,12.23,186.16,186.16,0,0,1-38.42,4.58c-6.45.13-12.93-.14-19.31-.63s-12.78-1.18-19.13-2.1c-3.18-.46-6.34-1-9.5-1.55s-6.25-1.15-9.39-1.78c-6.26-1.25-12.47-2.62-18.66-4.05-24.73-5.71-49.18-12.15-74-15.9a323.37,323.37,0,0,0-37.51-3.58,275.44,275.44,0,0,0-37.67,1.32c-2.87.32-5.66.65-8.35,1.09s-5.33,1.05-7.91,1.64-5.15,1.22-7.68,1.94c-1.27.36-2.52.72-3.8,1.13l-3.89,1.16c-1.33.36-2.58.82-3.86,1.26l-3.92,1.34c-2.67.92-5.43,1.85-8.3,2.79s-5.73,2.09-8.8,3.15-6.23,2.32-9.61,3.49c-10.93,3.54-21.86,7.4-27,10A330.86,330.86,0,0,0,110.59,525c-7,4.92-13.74,10.08-20.26,15.46s-12.77,11-18.78,16.72a369.45,369.45,0,0,0-57.26,69.59Z" transform="translate(10.58)"/><path class="cls-7" d="M631.65,389c-3.25,5.33-6.63,10.53-10.22,15.74s-7.3,10.15-11.31,15-8.27,9.65-12.74,14.22a161.82,161.82,0,0,1-14.21,12.9c-1.25,1-4.28,3.46-8.73,6.57a164.33,164.33,0,0,0,16.81-13.38q4-3.63,7.76-7.55t7.41-8.08a214.44,214.44,0,0,0,13.46-17.18C624,401.33,628,395.2,631.65,389Z" transform="translate(10.58)"/><path class="cls-7" d="M537.41,473.4a185.76,185.76,0,0,1-40.55,11A183.6,183.6,0,0,1,463,486.24a157.62,157.62,0,0,0,28.56-.08A154.89,154.89,0,0,0,522.37,480l5.62-2.44C531.12,476.2,534.85,474.48,537.41,473.4Z" transform="translate(10.58)"/><path class="cls-11" d="M79.07,533.88c-32.78,28-61,61.72-84.81,99.19C19.56,596.43,47.14,562.94,79.07,533.88Z" transform="translate(10.58)"/><path class="cls-7" d="M-1.43,636.64A410.73,410.73,0,0,1,54.9,564q8.73-8.93,18.39-17.62c6.44-5.82,13.27-11.46,20.42-17a338.79,338.79,0,0,1,47.21-30.27c8.48-4.39,17.59-8.74,27.28-12.84,2.42-1,4.89-2,7.38-3s5-1.9,7.6-2.87l3.86-1.45,3.94-1.34,4-1.34c1.32-.46,2.66-.92,4-1.29l8.11-2.4c2.79-.8,5.7-1.69,8.4-2.29,1.39-.33,2.73-.67,4.17-1s2.88-.7,4.32-1c2.88-.64,5.77-1.21,8.65-1.76l4.31-.82c1.56-.33,3-.49,4.45-.72l4.38-.64c1.48-.2,2.9-.45,4.47-.61l4.6-.51,4.47-.44c3-.26,6.06-.47,9.1-.63a271,271,0,0,1,36.59.5,339.62,339.62,0,0,1,36,4.88c23.52,4.44,45.89,10.69,66.81,16,6.06,1.56,13.59,3,22,4.32a249.82,249.82,0,0,0,27.83,2.43A204.46,204.46,0,0,0,488.39,489c5.23-.62,10.45-1.37,15.59-2.37s10.29-2.13,15.31-3.4c7.63-2.7,14.55-6.36,16.74-5.55a202.73,202.73,0,0,0,36.41-19,172.77,172.77,0,0,0,31.41-26.91q7.11-7.65,13.47-15.89,3.18-4.11,6.16-8.34c2-2.84,4-5.71,5.85-8.59,7.61-11.54,14.48-23.44,21-35.3,13.93-25.27,26.91-51.29,42.59-75.9q5.88-9.22,12.22-18.14c2.11-3,4.31-5.92,6.48-8.79l3.4-4.41,3.43-4.23,3.45-4.23,3.61-4.11c2.4-2.73,4.83-5.46,7.39-8.13,1.26-1.34,2.61-2.63,3.84-3.9l1.88-1.92.94-1,1-1c2.71-2.6,5.39-5,8.09-7.53s5.49-4.79,8.26-7.14l4.15-3.47c.72-.58,1.51-1.18,2.27-1.77l2.18-1.64c5.77-4.4,11.74-8.69,17.86-12.68a287,287,0,0,1,38.4-21.08,306.23,306.23,0,0,1,41-15.27A351.86,351.86,0,0,1,905.44,148c10.64-1.75,21.5-3.05,32.5-3.92q8.26-.63,16.61-.93c2.79-.09,5.58-.17,8.37-.2s5.58-.09,8.39-.1c11.23,0,22.55.34,33.9,1.13s22.75,1.87,34.14,3.3c11.4,1.26,22.81,3,34.18,5l8.53,1.52c2.84.51,5.69,1,8.52,1.63l17,3.5,16.91,3.9c2.82.63,5.62,1.33,8.43,2s5.63,1.33,8.41,2.08l16.75,4.4L1174.7,176c-1.39-2.21-5.58-5-13.12-8.22a145,145,0,0,0-13.95-5c-2.76-.85-5.73-1.81-9-2.64s-6.66-1.73-10.35-2.6l-10.87-2.62-5.4-1.29c-1.79-.44-3.57-.87-5.41-1.25l-10.86-2.3c-3.57-.75-7.07-1.55-10.72-2.19-7.09-1.32-14.15-2.58-21.2-3.72q-5.28-.85-10.57-1.6l-5.22-.71-5.23-.62L1032.43,140l-5.19-.6c-1.73-.18-3.46-.31-5.19-.47l-10.38-.88-10.26-.61c-13.7-.76-27.32-.86-40.64-.46a395,395,0,0,0-78.56,9.94,292.84,292.84,0,0,0-121.85,58.41l-1.6,1.26-1.33,1.12-2.68,2.27-5.4,4.58c-1.8,1.55-3.53,3.25-5.3,4.86s-3.51,3.23-5.33,5l-1.34,1.28-.68.64-.59.61-2.39,2.43-2.5,2.5-2.52,2.62c-3.32,3.53-6.35,7-9.47,10.48,3.16-3.64,6.25-7.3,9.64-11,1.66-1.84,3.53-3.68,5.09-5.33l2.42-2.54,2.75-2.68,1.38-1.35,1.34-1.27,2.69-2.56c1.8-1.69,3.57-3.47,5.43-5l5.51-4.8,2.68-2.32,3.18-2.53c-1,.76-2.71,2.06-3.74,2.92l-3.26,2.74c-2.21,1.89-4.44,3.73-6.65,5.65l-6.52,6c-1.07,1-2.21,2.09-3.32,3.15l-1.68,1.6-1.47,1.51c-1,1-1.93,2-3,3s-2.13,2.18-3.16,3.28c-2.07,2.2-4,4.43-6,6.63l-2.86,3.29-1.51,1.73-1.39,1.71-5.51,6.87-2.85,3.71-2.64,3.53c-.86,1.15-1.76,2.41-2.64,3.61l-2.58,3.65q-5.14,7.32-10,14.9c-6.45,10.09-12.5,20.54-18.29,31.12.7-1.22,1.42-2.46,2.12-3.69-5.63,10.11-11,20.34-16.52,30.75-6.7,13.05-13.58,26.33-21.09,39.13-3.77,6.41-7.68,12.71-11.78,18.82s-8.35,12-12.89,17.63c-3.14,3.94-7.26,8.82-12.23,14.09a167.86,167.86,0,0,1-17.24,15.94c-1.09.88-4.39,3.63-9.24,7.08a174.94,174.94,0,0,1-18.4,11.28,172.27,172.27,0,0,1-21.89,9.84,136.33,136.33,0,0,1-18.12,5.27c-5.53,1.44-9.51,2.2-11.12,2.54a177.89,177.89,0,0,1-37.13,3.1c-6.08-.13-12.36-.62-18.48-1.24s-12.23-1.49-18.25-2.55c-24.29-4.28-48.06-10.95-72.26-16.33-3.52-.7-7.06-1.39-10.61-2s-7.1-1.3-10.71-1.89q-10.83-1.79-21.82-3c-3.66-.42-7.33-.78-11-1.11s-7.48-.58-11.24-.77q-11.28-.58-22.78-.42-3.94,0-8.13.23c-2.91.13-5.53.33-8.51.55l-4.64.42-4.32.51-4.31.54-2.17.27-2.35.39c-5.66.95-11.57,2-17.47,3.36-1.44.35-2.73.65-4.07,1s-2.56.56-4.08,1L205.32,466l-3.83,1.1c-2.52.74-4.94,1.37-7.32,2.15l-6.83,2.28c-2.19.7-4.19,1.47-6.08,2.17L176,475.69c-6.33,2.41-10.17,4.11-10.43,4.12q-10.46,4.51-20.59,9.79c-6.76,3.51-13.4,7.32-19.86,11.29a405.89,405.89,0,0,0-51.3,40.05A550.28,550.28,0,0,0,28,588.54c-7.16,9-14,18.38-20.55,28A198.21,198.21,0,0,0-4.69,636.42c-2.38,4.63-3.32,7.37-3.3,8.7C-5.66,641.94-3.47,639.13-1.43,636.64Z" transform="translate(10.58)"/></g></g><path class="cls-12" d="M1106.93,129.1a26.3,26.3,0,0,1,17.62,32.63,26.8,26.8,0,0,1-33,17.55A26.3,26.3,0,0,1,1074,146.65,26.82,26.82,0,0,1,1106.93,129.1Z" transform="translate(10.58)"/><path class="cls-13" d="M4,632.07a1.5,1.5,0,1,0,2.07-.47,1.5,1.5,0,0,0-2.07.47Z" transform="translate(10.58)"/><path class="cls-14" d="M2.64,617.2a25.86,25.86,0,0,0,6.26-5l-.82,4,2,3.56A23.39,23.39,0,0,0,2.64,617.2Z" transform="translate(10.58)"/></g><circle class="cls-15" cx="91.61" cy="731.1" r="36.81"/><circle class="cls-15" cx="1062.59" cy="285.52" r="48.97"/><g class="cls-2"><g class="cls-16"><g class="cls-16"><path class="cls-17" d="M346.22,673.62a19.9,19.9,0,0,0,4-2.8l3-2.51L355,666.9c.61-.52,1.41-1.19,2.34-2.13l3.95-3.8,2.11-2.05,1.25-1.18c.41-.41.83-.88,1.25-1.33l4.44-4.82c.74-.8,1.54-1.65,2.39-2.61.42-.48.85-1,1.29-1.5l1.15-1.38,4.42-5.27c1.43-1.8,2.81-3.66,4.18-5.44,2.78-3.64,5.23-7.11,7.42-10.26,4.37-6.29,7.49-11.27,8.72-13.08,2.72-4.13,6-9.7,9.65-16.33,1.82-3.32,3.71-6.92,5.64-10.73s3.93-7.86,5.86-12l12.28-26.15c4.17-8.94,8.45-17.9,12.87-26.39,2.24-4.29,4.43-8.4,6.68-12.35s4.53-7.74,6.79-11.33,4.52-7,6.64-10,4.28-5.91,6.28-8.46c4-5.09,7.55-9.08,10.09-11.77s4-4,4.12-4c0,.48,1.66-.23,4.42-1.81l1.13-.71a.75.75,0,0,1,.39-.18l.31-.07c-.12.17.24-.08.43-.18l.69-.39c.47-.28.86-.47,1.32-.72,1.77-1,3.69-2.05,5.7-3.22,1-.62,2-1.08,3.06-1.63l3.11-1.63,1.55-.83.77-.42,1-.6a11,11,0,0,1,1.34-.71,1.25,1.25,0,0,1,.33-.08,6.16,6.16,0,0,0,.74-.35l3.31-1.75,3-1.62,2.41-1.36c.72-.4,1.29-.67,2-1.08l5.58-3.23,1.39-.81.35-.2.17-.11.12-.06.49-.25c.65-.33,1.29-.67,1.92-1l2.81-1.42c1-.48,1.92-1,2.86-1.5l1.42-.76c.44-.24,1-.57,1.28-.68.63-.3,1.26-.61,1.88-.94l.46-.24.8-.36,1.51-.68,2.83-1.31c1.82-.84,3.54-1.63,5.16-2.34.81-.36,1.59-.69,2.36-1l1.13-.45,1.33-.5,3-1.17,1.42-.57,1-.38,1-.39.49-.2c.18-.07.3-.13.58-.22l2.88-.95,5.63-1.9a22.34,22.34,0,0,1,2.14-.71l2.51-.71,5.49-1.55,2.33-.66,1-.27.46-.11.23-.06.31-.06c1.76-.41,3.51-.8,5.24-1.19,3.51-.9,6.75-1.36,10-2,1.66-.3,2.89-.5,4.21-.71l3.48-.54c2.07-.31,3.7-.55,5.11-.72a44.24,44.24,0,0,1,7.67-.42c2.4.08,8.85-2.6,26.57-2.3a195.07,195.07,0,0,1,19.84,1.77c7,.88,13.64,1.84,19.24,2.35,5.41.6,13.78,1.81,23.69,3.41s21.36,3.58,33,5.34,23.45,3.23,33.9,4.15c5.23.47,10.11.8,14.46,1s8.27.36,11.3.34l8.57,0,8.11-.25,3.86-.13c1.27-.07,2.51-.18,3.74-.27l7.18-.52c1.15-.06,2.33-.19,3.51-.33l3.43-.38,6.48-.76c4.57-.63,8.47-1.3,12.54-1.93l3.13-.56c1-.19,2-.39,3-.58l5.84-1.15,3-.61c1-.21,2-.49,2.93-.73l5.79-1.46,2.92-.73c1-.25,2.05-.57,3.08-.85l1.56-.44,1.48-.44,3-.89,6.22-1.83c2.11-.65,4.28-1.42,6.5-2.15,1.69-.53,3.28-1.11,4.87-1.69l4.71-1.74c3.07-1.25,6.11-2.44,9-3.74,5.9-2.6,11.62-5.39,17.22-8.39a329.76,329.76,0,0,0,33.67-20.89,337.44,337.44,0,0,0,31.24-25.26c9.39-8.55,18.29-17.57,28.27-28.5l3.56-3.79,3.41-3.85c2.25-2.56,4.57-5.1,6.72-7.74s4.34-5.17,6.46-7.8,4.2-5.28,6.23-8c4.08-5.44,8.29-10.9,12.29-16.7s8-11.74,12-18c2.07-3.41,4.12-6.82,5.4-9.37s5.34-9,7.25-12.53c3.1-5.16,6.13-10.19,9.11-15.16,1.49-2.44,3-5,4.41-7.52s2.83-4.94,4.23-7.41,2.79-5,4.17-7.55,2.66-5.05,4-7.59l3.9-7.69c1.26-2.6,2.48-5.24,3.7-7.89,1.34-2.94,3-6.69,4-9.5s1.55-4.68.9-3.89a194,194,0,0,0-12,17c-4.68,7.11-9.89,15.54-15.59,24.4-2.7,4.26-5.47,8.76-8.4,13.53s-6,9.81-9.15,15c-6.36,10.35-13.31,21.27-20.82,32.05-2.59,3.74-5.18,7.28-7.72,10.63s-5.15,6.45-7.61,9.46c-4.92,6-9.78,11.32-14.49,16l-3.4,3.4-3.38,3.14c-2.24,2-4.35,4-6.47,5.78s-4.19,3.45-6.12,5-3.85,2.95-5.68,4.28c-5.19,3.64-10.09,6.31-16.45,10.61s-14.11,10.14-25.61,19.35c-3.34,2.7-6.74,5.37-10.07,7.89s-6.69,5-10.08,7.36c-6.79,4.72-13.69,9.15-20.85,13.2a208.45,208.45,0,0,1-22.45,11.13l-3,1.26-3,1.16c-2,.75-4.08,1.59-5.9,2.17l-2.84.95c-1,.32-1.85.65-2.95.94l-6.39,1.79-2.34.65c-.77.21-1.63.45-2.1.55-1.17.26-2,.51-3.79.88l-9,2-1,.22-.92.15-1.8.27-4.32.68-4.38.67-3.36.4-4.42.49-2.2.25-.55.07-.43,0-.81.07-1.62.16-2.21.15-4.56.32-4,.26c-.56.05-1.41.06-2.17.08l-2.34.06-4.56.12c-1.53,0-3.09.13-4.64.08-1.72-.1-6.18-.17-10.47-.38l-11.72-.74-2.51-.13-2.69-.18c-1.8-.12-3.61-.27-5.44-.43-3.65-.32-7.34-.72-11.05-1.15-7.41-.89-14.85-2-22-3.1L740,393.42c-6.49-1-12.49-1.75-17.68-2.15-16.3-2.77-28.82-5.12-40.64-6.89-3-.42-5.71-.83-8.7-1.22s-5.94-.73-9-1c-6-.56-12.29-.89-19.14-.92-4.28,0-8.79.05-13.23.25s-8.91.51-13.37.94a246.76,246.76,0,0,0-26.87,4.06l-3.29.73-1.65.36-1.82.38c-2.71.58-5.06,1.27-7.14,1.86l-6.71,1.88q-1,.24-1.89.57l-1.83.62-3.2,1.1-3.23,1.1-1.63.56-1.95.72-2,.72-1,.37-.79.32-3.17,1.29c-1.06.4-2.42.93-3.62,1.43s-2.42,1-3.6,1.57c-2.35,1.06-4.6,2.14-6.79,3.17l-1.84.87-.86.4-1.1.55-2.2,1.12c-.72.38-1.51.78-2,1.08l-3.5,1.95-3.55,1.89L517,415.47l-3.41,2.08-3.37,2.06-1.81,1.11c-.64.39-1.27.79-1.88,1.21l-6.65,4.56-1.6,1.09-1,.71-1.08.79L493,431.52c-2.2,1.7-4.45,3.38-6.63,5.1l-6.28,5.31-1.19,1-1.11.94-1,.94-.76.69-.92.78L473,448c-.69.58-1.56,1.37-2.35,2.07l-2.42,2.16c-1.64,1.49-3.33,3.05-5,4.64-6.71,6.35-13,13.27-15.88,16.58A121.32,121.32,0,0,0,439.32,484c-2.68,3.9-5.32,8.13-7.78,12.45-1.23,2.16-2.43,4.35-3.56,6.53s-2.18,4.25-3.22,6.36c-2.05,4.2-3.87,8.21-5.42,11.79l-7,17.07c-2.3,5.68-4.68,11.44-7.16,17.33s-5,12-7.79,18-5.75,12.32-9.05,18.72c-4.85,9-10.2,16.54-16.58,25.77l-2.72,4-2.7,3.85c-1.71,2.56-3.61,5-5.4,7.39l-2.49,3.34c-.79,1-1.7,2.12-2.66,3.31l-2.72,3.42-1.2,1.53c-.36.49-.84,1-1.25,1.45-1.91,2.19-3.8,4.35-5.68,6.52l-.47.57-.56.61-1.5,1.55c-1,1-2,2.07-3,3.11-1.8,2-3.68,3.81-5.75,5.76l-3.18,3-1.67,1.55-1.53,1.33-1.46,1.22-1.58,1.27-3.06,2.46-1.47,1.19-1.39,1.07c-1,.72-1.95,1.42-2.89,2.12l-5.57,4.07-2.49,1.81-2.62,1.76c-6.72,4.57-12.4,8.08-17.26,10.94-9.72,5.69-15.86,8.74-19.62,10.73-7.54,3.87-5.58,3.21-7.26,3.86a68.09,68.09,0,0,1-10.41,3.45c-3.3.86-6.86,1.75-12.13,3.39-7.1,2.3-14.16,4.56-20.61,6.51l-17.05,5.07a298.36,298.36,0,0,1-46.9,9.61c-8.54,1-17.38,1.75-26.39,2s-18.21.14-27.47-.49a32.74,32.74,0,0,0,5.58.89c26,1.38,49.53,1.24,73.44-1.22A322.7,322.7,0,0,0,215,736.12a260.93,260.93,0,0,0,38.12-11.54c5-2.12,11.2-5,17.14-7.75a256.49,256.49,0,0,0,28.91-15.32c3.91-2.3,8.6-5.06,13.37-7.74l7.29-4.35,3.59-2.09c1.22-.69,2.45-1.44,3.62-2.17,2.27-1.43,4.45-2.77,6.49-4l5.71-3.6A60,60,0,0,1,346.22,673.62Z" transform="translate(10.58)"/><path class="cls-18" d="M1078.13,259.29c7.54-10.77,14.49-21.7,20.86-32l9.16-15c2.95-4.78,5.72-9.26,8.42-13.52,5.72-8.87,10.92-17.29,15.62-24.39a189.19,189.19,0,0,1,12-16.95c.66-.8.13,1.07-.9,3.89s-2.65,6.56-4,9.49c-1.22,2.65-2.42,5.3-3.7,7.88l-3.91,7.69c-1.32,2.54-2.58,5.05-4,7.59s-2.78,5.11-4.17,7.53-2.75,4.89-4.24,7.43-2.93,5-4.42,7.5q-4.49,7.44-9.12,15.16c-1.92,3.47-6,10-7.27,12.52s-3.33,6-5.41,9.35c-4,6.28-8,12.26-12.06,18s-8.24,11.25-12.31,16.7c-2,2.74-4.16,5.36-6.23,8L1056,304c-2.16,2.64-4.49,5.16-6.73,7.73-1.14,1.27-2.25,2.58-3.43,3.83s-2.36,2.52-3.55,3.78c-10,10.92-18.92,19.94-28.34,28.46A331.09,331.09,0,0,1,982.6,373a328,328,0,0,1-33.72,20.81c-5.61,3-11.34,5.77-17.24,8.35-3,1.27-6,2.5-9.07,3.72l-4.72,1.73-2.4.87-2.49.81-3.29,1.1c-1.08.37-2.15.73-3.21,1l-6.21,1.83c-3.9,1.18-8.31,2.43-12,3.31s-7.7,2-11.77,2.77c-3.88.74-7.67,1.55-11.95,2.26l-6.06.95c-2,.33-4.35.68-6.46.94l-6.49.75c-2.23.24-4.66.56-6.94.68-4.65.3-9.57.81-14.8.89-2.6.09-5.32.2-8.11.22l-8.56,0c-6.21,0-15.32-.49-25.75-1.43s-22.25-2.42-33.9-4.19-23.1-3.77-33-5.35-18.28-2.8-23.7-3.41c-5.59-.51-12.28-1.44-19.24-2.33a196.42,196.42,0,0,0-19.8-1.73s-2.17-.47-6.76-1.27-11.56-2-21.24-2.7q6.65-.4,13.33-.41c4.46,0,9,.09,13.48.27s9,.43,13.5.78,9,.83,13.54,1.3c18.07,1.9,36.14,4.71,54.26,7.36s36.35,4.95,54.59,6c4.57.26,9.13.46,13.68.56s9.12,0,13.67,0c1.13,0,2.27,0,3.4-.06l3.39-.16,6.8-.36c2.26-.11,4.52-.4,6.79-.6s4.55-.41,6.79-.66l9.19-.89,2.32-.24,2.2-.29c1.43-.19,3-.44,4.55-.66l4.62-.69c1.48-.26,2.88-.48,4.4-.77l4.6-.89,2.3-.45,2.22-.46c1.46-.26,3-.67,4.44-1.06l4.52-1.19,4.53-1.19c1.43-.43,2.78-.8,4.28-1.28l8.86-2.79c1.49-.45,2.9-1,4.33-1.49l4.28-1.55a283.5,283.5,0,0,0,64.94-34.8C1017.63,338.15,1050.68,300.32,1078.13,259.29Z" transform="translate(10.58)"/><path class="cls-19" d="M650.77,405l-4.13-.14c-2.6-.07-6.39-.16-10.77-.16s-9.48.13-14.87.46c-2.69.16-5.46.37-8.26.63l-4.2.42-2,.23-2.09.27-4.17.54-2.07.26c-.68.09-1.38.25-2.06.36l-4.07.73-3.8.64c-2.09.37-4.46.95-6.84,1.46s-4.52,1-6.11,1.27l-2.41.57c-.86.2-1.65.38-2.38.53a29.45,29.45,0,0,1-3.59.58c-1.81.15-2.41-.21-1.43-1.2l3.2-1.55,3.78-1.81c.68-.32,1.4-.73,2.2-1l2.64-1.07,6.35-2.49c1.12-.44,2.27-.87,3.45-1.26L591,402a168.82,168.82,0,0,1,17.92-4.64,194.06,194.06,0,0,1,21-3.1c7.41-.68,15.07-.93,22.76-.89s15.49.46,23,1.23,14.81,1.7,21.67,2.9c0,0,9.93,1.74,22.33,4.08s27.27,5.14,37.44,6.65c0,0,2.26.51,6.31,1.33s9.88,1.9,17,3c3.58.51,7.49,1,11.67,1.47s8.66.84,13.23,1.09l7.2.23,3.63.1c1.22,0,2.45,0,3.68,0l7.59-.18c2.56-.1,5.15-.36,7.76-.56l1.89-.13c1.23-.09,3.14-.17,5.26-.44l8.31-1,1.24-.14,1.15-.18,2.38-.36,5.72-.95c2.12-.32,3.83-.68,5.79-1l6.67-1.41,3.27-.71c1-.21,2.2-.54,3.35-.87l7.26-2,1.88-.51c.61-.18,1.1-.35,1.66-.52l1.63-.51,1.83-.6,7.5-2.48,1.88-.62c.63-.21,1.2-.44,1.81-.67l3.61-1.35,1.81-.68,1.86-.75,3.74-1.53c5-2.08,10-4.31,14.78-6.66s9.47-4.77,14-7.27c9-5,17.22-10.2,24.3-15s13-9.37,17.53-12.82,7.59-5.83,8.87-6.61c0,0,3.32-2.65,8.34-7s11.74-10.42,18.55-17.2c3.41-3.41,6.93-6.9,10.23-10.44l5-5.24,4.63-5.12c3-3.25,5.63-6.33,8-9l3.26-3.67c1-1.11,1.81-2.09,2.55-2.91,0,0,1.2-1.16,3.25-3.32s4.93-5.33,8.41-9.29a239.67,239.67,0,0,0,23.73-32.8s3.33-4.86,7.75-11.65c2.21-3.39,4.7-7.26,7.19-11.24s5.06-8,7.37-11.77c4.63-7.51,8.43-13.78,9.81-15.45.68-.84.75-.52,0,1.37s-2.41,5.37-5.14,10.7l-.54,1.1c-.34.71-.84,1.74-1.49,3-1.29,2.57-3.07,6.13-5.11,10-4,7.8-9.15,17.14-12.83,23.35,0,0-1.67,2.73-4.7,7.46s-7.45,11.46-13,19.4c-2.76,4-5.81,8.28-9.19,12.7s-6.86,9.19-10.64,14c-1.87,2.4-3.88,4.76-5.86,7.19l-3,3.67-3.15,3.64c-4.17,4.91-8.62,9.68-13.11,14.52s-9.17,9.47-13.91,14-9.52,8.83-14.29,12.92A343.43,343.43,0,0,1,980.6,371c-17.15,11.85-30.67,18.37-33.31,19.5L945,391.59c-1.47.74-3.66,1.8-6.5,3.13-5.67,2.64-13.91,6.31-24.31,10.08-2.62.9-5.35,1.88-8.21,2.82l-9,2.71q-4.63,1.44-9.64,2.65l-5.06,1.28-2.58.65-2.64.53a279.55,279.55,0,0,1-46.21,5.62,355.4,355.4,0,0,1-50.31-1.9c-16.88-1.71-33.6-4.27-49.48-6.8s-31-4.77-44.65-6.09c-3.41-.33-6.72-.62-10-.84s-6.35-.43-9.33-.53C661.22,404.68,655.72,404.74,650.77,405Z" transform="translate(10.58)"/><path class="cls-20" d="M647.41,406.21l-2.76.05-7.52.17c-6.28.19-15,.69-24.61,1.78l-3.66.44c-1.22.16-2.35.29-3.63.49-2.51.39-5.05.7-7.64,1.12s-5.27,1-7.92,1.46l-.86.15L588,412l-1.68.35-3.87.89-4,.88-1.79.38c-.56.11-1.1.22-1.63.38l-3.65,1-3.82,1-1.87.45-.81.21-.73.2-1.44.37-.72.17c-.23.05-.58.16-.86.24l-3.52,1-3,.71s-1.34.42-3.76,1.31c-1.22.44-2.7,1-4.46,1.68l-2.82,1.1-1.59.61c-.62.23-.92.38-1.39.57l-1.33.55-.68.28c-.23.09-.46.18-.76.33l-3.48,1.63-3.68,1.63-3.22,1.48c-.27.13-.51.22-.82.38l-.93.49-1.87,1-3.78,1.95c-1.32.7-2.36,1.18-3.49,1.83l-3.48,2-6.62,3.83-3.16,2-2.9,1.84c-3.79,2.26-6.89,4.56-9.21,5.91-.58.35-1.1.65-1.56.91s-.9.48-1.24.63c-.57.19-.94.23-1.07,0a.56.56,0,0,1,0-.46l.14-.34c.09-.16.21-.33.35-.53a34.84,34.84,0,0,1,2.75-3.24l3.64-3.9,4.58-4.39,2.93-2.78c.53-.49,1.05-1,1.62-1.5l1.79-1.51,3.91-3.26c1.38-1.11,2.77-2.36,4.34-3.52l4.86-3.57c1.67-1.23,3.38-2.5,5.33-3.77l1.44-1,1.44-.91c1-.61,1.95-1.21,2.93-1.85l3-2,3.33-2c2.19-1.26,4.36-2.43,6.68-3.7s4.71-2.53,7.28-3.73l3.81-1.72,1.86-.86.94-.43,1-.44,2.11-.88c.72-.3,1.45-.61,2.09-.84l4-1.52,4.13-1.55c1.46-.58,3.08-1,4.52-1.46l4.33-1.31c1.41-.43,2.9-.89,4.5-1.32s3.43-.82,4.87-1.15l4.61-1.05c3.07-.78,6.32-1.22,9.56-1.77l2.44-.4,2.53-.35c1.65-.22,3.31-.43,5-.61q5-.56,10.11-.9c6.78-.46,13.78-.57,20.65-.4s13.81.52,20.75,1.13c3.47.31,7,.68,10.42,1.1s6.76.85,10.19,1.33c6.82,1,13.57,2.07,20.24,3.26,0,0,2.87.53,8.42,1.34s13.76,1.91,24.41,2.94l9.16,1.44c5.62.87,13.34,2,21.81,3.19s17.65,2.27,26.23,3.21l6.3.67,2.93.31,1.42.16,1.47.13c2,.17,3.82.35,5.59.54s3.33.41,4.83.62l2.93.15,8.23.36c3.48,0,7.66,0,12.34-.06l3.24-.14,3.82-.22,4-.23,3.38-.3,8.26-.91,1.76-.23c.6-.07,1.13-.13,1.9-.26l4.29-.69,4.13-.67,1.89-.32c.63-.11,1.33-.3,2-.44l8.29-1.94,1-.25c.35-.08.69-.16,1-.24l1.66-.45.83-.22.42-.12.49-.14,1.94-.58,7.28-2.18c.57-.18,1.17-.35,1.71-.54l1.58-.56,3-1.09c1.94-.67,3.88-1.49,5.65-2.23,0,0,1.52-.44,4-1.24l4.45-1.55,2.67-1,2.88-1.12a141.21,141.21,0,0,0,24.63-12.51l-1.64,1c-1.06.66-2.65,1.59-4.68,2.79-4.06,2.36-10,5.62-17.3,9.22-1.86.9-3.81,1.84-5.85,2.74s-4.12,1.92-6.31,2.8l-3.33,1.39c-1.13.47-2.28,1-3.4,1.38l-3.41,1.3c-1.16.44-2.28.91-3.55,1.31l-7.6,2.55c-1.31.44-2.68.91-3.79,1.25l-1.77.57c-.6.19-1.35.38-2,.58L879.69,408c-1.38.42-2.67.68-4,1s-2.79.6-4.19.9l-4.31.91-3.9.74-8.58,1.39-2,.29-1,.15-1.08.12-4.33.48-4.17.45-2,.21-2.12.13-8.29.5c-1.36.1-2.7.1-4,.12l-4,.06c-2.63,0-5.15.09-7.66,0l-7.42-.22c-9.47-.4-18-1.32-24.71-2.2a128.25,128.25,0,0,1-14.28-2.54L754.51,408c-8.41-1.55-20.45-4-35.15-6.63s-32.08-5.45-51-7a269.12,269.12,0,0,0-29.4-.7,187,187,0,0,0-30.27,3.39,14.89,14.89,0,0,0-2.66,1.37c-1.19.81-2.11,1.88-1.07,2.77a7.85,7.85,0,0,0,3.18,1.24,63.58,63.58,0,0,0,7.32,1c3.26.3,7.41.57,12.65,1,2.62.2,5.52.42,8.7.71S643.56,405.8,647.41,406.21Z" transform="translate(10.58)"/><path class="cls-21" d="M596.73,414.72l-4,1-2,.52-.5.13-.42.11-.68.21-7.54,2.48-2.08.68-.51.17-.4.14-.8.27c-.54.17-1,.43-1.55.64l-.4.17-.53.2-1.08.42-4.35,1.65-2.2.83-.27.1-.18.09-.35.17-.72.33-.81.34-1,.39-2.88,1.14c-2.21.85-3.44,1.28-5.16,2s-3.49,1.52-5.39,2.39L548,432.68l-1.47.68-.79.37-.39.18-.21.12c-.72.4-1.46.78-2.21,1.13l-3.55,1.89-6.14,3.05-.55.27a6.94,6.94,0,0,0-.63.31l-1.61.9-3.08,1.7-2.87,1.57c-.71.39-1.35.67-2,1.07l-1.1.63-1.38.82-2.83,1.71-3,1.86-.19.12-.1.06,0,0h0c-.25-.36.53.82-.57-.8l.32.62c0,.08.14.25.13.25l0,0c-.06,0,0,0-.05,0l-.21.1c-.21.13-.58.38-1.09.75l-5.67,4c-.91.67-1.83,1.24-2.76,2l-2.81,2.26-2.84,2.3-1.63,1.35c.21-.19.13-.12.12-.12l-.05,0a4.71,4.71,0,0,0-.58.53l-.82.78-.75.67-1.5,1.34-.75.67-.67.61-1.23,1.15c-3.53,3.34-7,6.85-10.24,10.46s-6.42,7.33-9.34,11c-1.43,1.81-2.9,3.76-4.31,5.65s-2.79,3.78-4.12,5.64c-5.35,7.42-9.88,14.32-13.92,20.23-2.49,3.91-4.31,7-6.62,11.38-.53,1.28-2.71,6.07-3.21,7.36l-10,20.58-9.66,20q-3.9,8.19-8.28,16c-2.91,5.21-5.94,10.32-9.2,15.35s-6.64,9.82-10.13,14.45l-2.64,3.44L386,634.77l-5.45,6.56-3.16,3.53L374,648.78c-1.31,1.47-2.56,2.74-3.67,3.9l-3.53,3.74c-.7.73-1.4,1.53-2.1,2.17l-2,1.87L359,664l-.91.88-.58.59-.67.64c-.87.81-1.56,1.38-2.09,1.85-1.26,1.11-2.51,2.16-3.77,3.31a103.55,103.55,0,0,1-11.64,8.93l-1.21.79-1.27.81c-.82.5-1.69,1.07-2.38,1.44l-4.2,2.33L326,687.92c-1.53.8-3,1.59-4.64,2.49l-2.53,1.44L316,693.53c-1,.6-2.09,1.33-3.16,1.94s-2.2,1.3-3.42,2A398,398,0,0,1,262.67,722a256.71,256.71,0,0,1-50.34,16.51,339.85,339.85,0,0,1-59.59,7.17c-7.23.09-14.88.12-22.7,0s-15.8-.53-23.66-1.07c-1.83-.12-5-.54-7.64-1s-4.81-.93-4.65-1.05c1.7-.25,10.4.29,15.73.11,14.62-.37,21.92,1,31.51,1.11,12.14,0,27.89-1.72,42.95-4l16.86-2.07c8.18-.9,20-4.16,31.28-8,13.93-4.79,28.89-9.34,43-16.11a208.37,208.37,0,0,0,25.16-14.35c3.8-2.48,7.44-5,11.06-7.41,3.62-2.58,7.09-5,10.74-7.34-1.57,1-1.91,1.15-1.37.71s2-1.48,4-3,4.48-3.49,7.31-5.77c1.44-1.14,2.83-2.34,4.28-3.59s2.95-2.52,4.43-3.8,2.95-2.62,4.34-4,2.75-2.57,4-3.76c.64-.58,1.3-1.18,1.93-1.81L353,657.8l2.9-2.93c1.66-1.71,3-2.86,3.37-3.31s.16.06-1.24,1.5c.23-.28.64-.65,1.11-1.1s1-1,1.56-1.45a15.2,15.2,0,0,1,2.56-2c0,.4.86,0,0,1.17-1.63,2.25-2.93,4.18-3.89,5.5a18.49,18.49,0,0,0-1.69,3.16c-.66,1.68-.67,2.73-1.54,4.56.22-.17,2.11-2.08,5-5l1.22-1.21c.44-.43.9-.89,1.36-1.41l2.7-3c.9-1,1.84-2,2.8-3.09s2.13-2.34,3.25-3.72c2-2.41,4.08-4.81,6.09-7.35s4-5.09,5.87-7.64c3.71-4.94,7-9.5,9.34-12.71,3.64-4.86,7-9.56,10.36-14.68s6.74-10.73,10.36-17.58c1.75-3.59,2.09-5.7,3.78-9.33,1-2,4.38-9.76,9-20.38s10.35-24,16.81-37.09c1.63-3.29,3.26-6.53,4.94-9.69s3.41-6.26,5.14-9.26c3.47-6,7-11.61,10.29-16.35a148.7,148.7,0,0,1,14.67-18.32c1.28-1.24,2.71-2.53,4.08-3.7s2.81-2.28,4-3.18l1.66-1.26.36-.27a2.36,2.36,0,0,1,.24-.14,2.2,2.2,0,0,1,.39-.18.34.34,0,0,1,.15,0s0,0,.09,0a1,1,0,0,1,.27-.06c.12,0,.12.13,0,.37.09.23.29.34.39.51s.68-.07,1.19-.28a34.84,34.84,0,0,0,4-2.15c1.55-.91,3.22-2.05,4.83-2.9a33.47,33.47,0,0,1,4.21-2c.86-.16-1.11,2-.25,1.86.9-.34,2-.81,3.16-1.39l.91-.45a5.9,5.9,0,0,0,.59-.31l.61-.35a7.9,7.9,0,0,1,1.67-.79.93.93,0,0,0,.31-.11l.61-.31,1.27-.68,2.62-1.45c.87-.49,1.75-1,2.64-1.55l2.37-1.45,2.12-1.14,2.53-1.4,2.57-1.44,1.3-.73.65-.36.48-.24,1.89-1,.47-.25.69-.33,1.37-.67c1.84-.89,3.65-1.85,5.45-2.8.51-.28.74-.36,1.07-.52l.92-.45.92-.45.22-.12.35-.16.76-.33,5.25-2.37c1.63-.74,3.15-1.43,4.56-2l2-.86c.66-.27,1.22-.49,2-.8l2.58-.95,1.3-.48.65-.24.45-.15,1.81-.62.45-.16a4,4,0,0,1,.52-.17l1.29-.39,5.15-1.52,2.44-.73c.65-.19,1.3-.4,2-.53l9.76-2.22c.71-.14,1.35-.27,1.93-.36l2.3-.37Z" transform="translate(10.58)"/><path class="cls-22" d="M961.29,361.71,959.43,363c-1.21.87-3,2.12-5.34,3.66a216.63,216.63,0,0,1-19.91,11.7c-2.12,1.11-4.35,2.22-6.67,3.33-1.15.55-2.36,1.12-3.62,1.68s-2.51,1.13-3.79,1.67c-2.57,1.09-5.21,2.22-7.93,3.23l-4.12,1.56-3.91,1.32c-2.5.91-5.6,1.75-8.57,2.61l-4.67,1.33-.6.16-.45.12-.88.21-1.84.46-5,1.11-4.85,1c-1.62.38-2.88.49-4.26.7l-5,.68-2,.32c-.59.09-1.52.25-2.06.3l-2.14.27-7.53.86-3.34.34-4.61.31-4.52.31-1.93.12c-.29,0-.73,0-1.11,0l-1.17,0-8.64.21c-2.67.05-5.08,0-7.14,0s-3.62,0-4.76,0l-6.92-.52c-2.36-.18-4.86-.33-7-.59l-2.81-.21c-1.85-.14-4.51-.35-7.74-.66-6.47-.6-15.24-1.59-24.44-2.9s-18.8-2.82-27-4.13-15-2.25-18.23-2.33l-17.67-3c-9.22-1.58-19.25-3.13-21.94-3.74,0,0-1.76-.31-4.84-.74s-7.72-1.09-13.47-1.62-12.62-1-20.23-1c-3.75,0-7.85,0-12.08.17s-8.58.53-13,1" transform="translate(10.58)"/><path class="cls-23" d="M409.58,602.37c-.76,1.29-1.89,3.18-3.32,5.51s-3.23,5.17-5.25,8.24-4.32,6.41-6.79,9.86c-1.23,1.73-2.52,3.48-3.84,5.24l-2,2.64c-.7.92-1.41,1.84-2.1,2.7l-4.19,5.25c-1.42,1.66-2.86,3.27-4.25,4.87l-2.18,2.5c-.84,1-1.64,1.82-2.38,2.6l-4,4.14-2,2.12c-.37.38-.74.78-1.1,1.12l-1.07,1-3.42,3.18-1.51,1.4-.71.65-.34.31-.38.37a32,32,0,0,1-3,2.59l-3.33,2.73-1.81,1.53-1.88,1.52c-2.49,2-4.91,3.74-7.21,5.45l-1.68,1.23-2,1.4-2,1.42-1.81,1.2c-2.43,1.59-4.78,3.25-7.51,4.93l-7.48,4.46-4,2.36L311.29,699c-5.17,2.82-10.52,5.53-16,8.08-2.23,1.13-5.27,2.74-6.9,3.77a167.06,167.06,0,0,1-21.63,11c-7.62,3.31-15.34,6.2-22.13,8.85a185.33,185.33,0,0,1-17.95,6.25c-8.81,2.37-17.44,4.19-26,5.71s-17,2.62-25.27,3.39a357.77,357.77,0,0,1-47.87,1.18c-6.42-.3-12.35-.8-18.19-1.41s-11.65-1.32-17.9-2.2c-2.23-.4-6.14-.91-5.73-1.24-.54-.3,5.26.15,8.35.2,3.63.38,6.61.85,11.46,1.2,8.82.72,19.9.72,27.82,1,8.84.21,15.85.49,25.66.06,6.62-.36,12.49-.88,19.22-1.76a340.54,340.54,0,0,0,35.82-6.24,280.19,280.19,0,0,0,34.82-10.37c4.4-2.11,10.07-4.39,15.9-6.82s11.81-5,16.85-7.48c3.09-1.51,6.06-2.79,9.79-4.68,4.55-2.42,9.08-5.16,13.23-7.73l5.89-3.65,5.14-3a200.1,200.1,0,0,0,37.82-25.29c.7-.58,1.23-1,2.35-1.94l.89-.81.87-.84,1.47-1.36,3.32-3.1,2-1.86c.72-.65,1.5-1.53,2.19-2.23l4-4.17c.7-.72,1.46-1.51,2.27-2.38s1.72-1.94,2.38-2.68c1.43-1.63,2.9-3.29,4.39-5s2.9-3.57,4.36-5.36c3-3.67,5.74-7.38,8.38-11s5.09-7.2,7.29-10.53,4.16-6.45,5.78-9.1,2.95-4.89,3.91-6.55c2.58-4.4,5-8.86,7.33-13.33q1.74-3.36,3.4-6.72t3.22-6.65c4.24-8.83,8.43-17.66,12.79-26.24.19-.38.05.27-.61,2.1s-1.84,4.93-3.72,9.37-4.48,10.29-8,17.68c-1.7,3.66-3.77,7.87-6.13,12.4S412.66,597,409.58,602.37Z" transform="translate(10.58)"/></g></g><path class="cls-24" d="M1099.33,113.43a30.41,30.41,0,0,1,39.89-16.08l.39.17a29.8,29.8,0,0,1,17.05,38.55c-.22.59-.47,1.16-.73,1.73a30.61,30.61,0,0,1-40.26,15.92h0a30,30,0,0,1-16.89-38.94C1098.94,114.32,1099.13,113.87,1099.33,113.43Z" transform="translate(10.58)"/><path class="cls-13" d="M31.71,725.32a1.51,1.51,0,1,0-.33,3h0a1.51,1.51,0,0,0,.33-3Z" transform="translate(10.58)"/><path class="cls-14" d="M43.87,717.23a22.64,22.64,0,0,0,7,3l-3.74,1.29L45,725A25.3,25.3,0,0,0,43.87,717.23Z" transform="translate(10.58)"/></g><circle class="cls-15" cx="138.45" cy="104.96" r="39.56" transform="translate(23.24 224.81) rotate(-80.78)"/><circle class="cls-25" cx="1031.34" cy="637.8" r="41.24"/><circle class="cls-15" cx="189.05" cy="544.71" r="25.83"/><circle class="cls-25" cx="967.64" cy="129.77" r="17.52"/><circle class="cls-26" cx="198.03" cy="147.29" r="60.32"/><circle class="cls-25" cx="893.57" cy="604.58" r="17.52"/><path class="cls-27" d="M292.26,653.05c-.95,1.62-1.85,3.25-2.85,4.86a33.13,33.13,0,0,1-13.94,12.69,30.72,30.72,0,0,1-9.78,2.77,49.3,49.3,0,0,1-10.86-.14,52.61,52.61,0,0,0-6.86-.4,28.81,28.81,0,0,0-11.86,2.56A19,19,0,0,0,226,687.21a10.52,10.52,0,0,0-.48,2.94c.22-.22.39-.35.53-.5a50.3,50.3,0,0,1,6.53-5.5,35.47,35.47,0,0,1,22.79-6.24c2,.11,4,.27,6.06.33a29.75,29.75,0,0,0,9.32-1.39,29.24,29.24,0,0,0,16-12,41.92,41.92,0,0,0,4.53-8.35c.41-1.06.69-2.17,1-3.28C292.32,653.18,292.28,653.12,292.26,653.05Z" transform="translate(10.58)"/><path class="cls-27" d="M297.09,675.29a1.46,1.46,0,0,1,.1-.32,67.82,67.82,0,0,0,4.29-10.57c.17-.55.33-1.09.53-1.63s.37-1,.59-1.49a3.14,3.14,0,0,0,.3-1.9,5.31,5.31,0,0,0-1,1.57,11.19,11.19,0,0,1-.63,1.41,120.09,120.09,0,0,1-6.62,10.72,66.39,66.39,0,0,1-10.89,12.3,1.81,1.81,0,0,0-.24.24.89.89,0,0,0-.05.13,5.71,5.71,0,0,0,3.27.65,14,14,0,0,0,5-1.6c2.16-1.12,4.2-2.46,6.22-3.77a35.66,35.66,0,0,1,5.16-3,4.82,4.82,0,0,1,1.76-.5,2.23,2.23,0,0,1,2,1.09,6.05,6.05,0,0,1,.8,3,12,12,0,0,1-.92,4.63,36.39,36.39,0,0,1-2.81,5.31,39.43,39.43,0,0,1-3.21,4.25c-.07.12-.17.21-.25.33l0,.18a9.68,9.68,0,0,0,2.26-1.92,64.82,64.82,0,0,0,4.68-5.93A30,30,0,0,0,312.17,678a9.61,9.61,0,0,0,.17-4,3.6,3.6,0,0,0-3.59-3.1,9.81,9.81,0,0,0-3.92.66,42,42,0,0,0-7.21,3.49,5.05,5.05,0,0,1-.53.24.06.06,0,0,0,0,.07H297Z" transform="translate(10.58)"/><path class="cls-27" d="M220.56,731.46a6.29,6.29,0,0,0,2-.71,9.83,9.83,0,0,0,3.56-3.25A22.35,22.35,0,0,0,228.7,722c.76-2.27,1.27-4.6,1.83-6.92.5-2.14,1-4.28,1.6-6.41a19.87,19.87,0,0,1,1-2.63,5,5,0,0,1,3.91-3,59.13,59.13,0,0,0,8.2-2.13,19.69,19.69,0,0,0,8.9-6.44c.66-.82,1.24-1.76,1.87-2.62a6.57,6.57,0,0,1,.67-.85,2.16,2.16,0,0,0,.59-1.62c-.34.36-.57.66-.84.91-.46.44-.93.91-1.43,1.31a30.91,30.91,0,0,1-7.35,4.2,27.82,27.82,0,0,1-6.41,1.7c-2.83.41-5.66.52-8.5.76a10.56,10.56,0,0,0-3,.47,3.21,3.21,0,0,0-2.18,2.17,6.88,6.88,0,0,0-.29,2.43A64.2,64.2,0,0,1,225,721.42c-.5,1.72-1.11,3.42-1.68,5.13A16.57,16.57,0,0,1,221,731,1.53,1.53,0,0,0,220.56,731.46Z" transform="translate(10.58)"/><path class="cls-27" d="M285.23,626.62c.09.2.17.43.28.63a26.42,26.42,0,0,0,9.74,9.81,2.08,2.08,0,0,1,.29.19.93.93,0,0,0,0,.13,21.7,21.7,0,0,1-8.5-2.35,23.49,23.49,0,0,1-7-5.39,1.32,1.32,0,0,0,.1.39,14.83,14.83,0,0,0,1,1.6,40.54,40.54,0,0,0,4.57,5,24.4,24.4,0,0,0,2.34,1.82,10.7,10.7,0,0,0,6.28,1.68,25.75,25.75,0,0,1,3.42.2,5.64,5.64,0,0,1,4.37,3.08,4.54,4.54,0,0,1,.44,1.18,1.78,1.78,0,0,0,1.65,1.44,2.8,2.8,0,0,0,.4,0,10,10,0,0,1,5.23,1.68c1.15.73,2.3,1.52,3.44,2.28a20.15,20.15,0,0,0,3.78,2,5.89,5.89,0,0,1,1.44.82,1.53,1.53,0,0,1,.57,1.54,1,1,0,0,1-1,.92c-.41,0-.83,0-1.26-.05a.92.92,0,0,0-.77.28c1.05.32,2,.65,3,.93a.92.92,0,0,0,1-.38,3.14,3.14,0,0,0,.28-3.63,4,4,0,0,0-1.34-1.33,11.22,11.22,0,0,0-1.68-.89,34.13,34.13,0,0,1-6.89-4c-.55-.4-1.1-.82-1.67-1.21a2.07,2.07,0,0,1-.9-1.69,10.75,10.75,0,0,0-.73-3.81,5.41,5.41,0,0,0-2.5-2.67,11.8,11.8,0,0,0-2.93-1c-.8-.17-1.61-.31-2.42-.46a22.55,22.55,0,0,1-10.31-5,31.23,31.23,0,0,1-3.45-3.35,2,2,0,0,0-.35-.47Z" transform="translate(10.58)"/><path class="cls-27" d="M220.17,725.11a1.57,1.57,0,0,0,0-1.11l-1.86-8.75c0-.19-.21-.44.1-.58l-.47-.83-4.45.94c0,.12.08.23.12.32,2.12,3.29,4.26,6.6,6.41,9.89Z" transform="translate(10.58)"/><path class="cls-28" d="M315.66,657.48,302.57,655c.38.63.71,1.15,1.05,1.69a1.38,1.38,0,0,0,1.05.6,45.72,45.72,0,0,0,9.5.36C314.62,657.55,315.08,657.5,315.66,657.48Z" transform="translate(10.58)"/></svg>