<svg id="Calque_1" data-name="Calque 1" xmlns="http://www.w3.org/2000/svg" viewBox="0 0 1190.82 818.08"><defs><style>.cls-1{fill:#fff7f4;opacity:0.75;}.cls-2{opacity:0.49;}.cls-3,.cls-4,.cls-6{fill:none;}.cls-3,.cls-6{stroke:#d65c1b;}.cls-3,.cls-4{stroke-linecap:round;stroke-linejoin:round;}.cls-3{stroke-width:0.5px;}.cls-4{stroke:#95621a;}.cls-5{fill:#95621a;}.cls-7{fill:#d65c1b;}.cls-8{fill:#fbd8c8;}.cls-9{fill:#eb6128;}</style></defs><rect class="cls-1" width="1174.68" height="818.08" rx="12"/><g class="cls-2"><path class="cls-3" d="M1171.48,154.78l-5.91-1.55-5.94-1.43-5.94-1.43-4.4-1.05c-5.47-1.28-11-2.42-16.46-3.63-2.74-.62-5.5-1.14-8.26-1.68l-8.28-1.62c-2.75-.56-5.53-1-8.3-1.51l-8.32-1.43a626.91,626.91,0,0,0-67.25-7.64c-5.65-.28-11.3-.63-17-.7-2.83-.07-5.66-.16-8.49-.2l-8.51,0h-4.26l-4.26.12-8.51.25-8.52.48-4.26.25-4.25.36a379.17,379.17,0,0,0-67.53,11.37,312.83,312.83,0,0,0-64.31,24.69c-2.57,1.29-5.07,2.72-7.62,4.08s-5,2.88-7.5,4.31-4.91,3-7.37,4.52l-7.19,4.82-3.59,2.41c-1.19.81-2.4,1.6-3.54,2.49l-6.93,5.21-3.46,2.6c-1.13.9-2.22,1.85-3.33,2.77l-6.65,5.57c-1.13.91-2.19,1.89-3.24,2.88L769,213.07l-3.18,3c-1,1-2.13,1.95-3.12,3l-6,6.2c-1,1-2,2.05-3,3.12l-2.88,3.24L745,238.05l-5.45,6.7-2.72,3.35-2.58,3.45-5.15,6.89c-13.3,18.67-24.77,38.34-35.29,58.07S673.35,356,662.42,374.63q-8.1,14.08-17.37,27A210.62,210.62,0,0,1,625,425.9l-5.51,5.55-5.8,5.2c-1.89,1.79-4,3.34-6,5l-3,2.42-1.52,1.2-1.6,1.11-6.41,4.42a37.14,37.14,0,0,1-3.29,2.07l-3.34,2c-4.37,2.8-9.12,5-13.73,7.41a38.12,38.12,0,0,1-3.55,1.65l-3.6,1.56L564,467c-1.2.52-2.39,1.06-3.63,1.47l-7.38,2.69-1.84.67-1.87.56-3.75,1.12-3.74,1.13c-1.24.41-2.53.63-3.79,1-2.53.59-5.05,1.23-7.59,1.79l-7.67,1.37c-.64.11-1.28.24-1.92.34l-1.93.23-3.87.47a189.51,189.51,0,0,1-31.27,1,281.43,281.43,0,0,1-31.64-3.6c-10.58-1.75-21.21-4-31.94-6.46s-21.52-5-32.48-7.38-22.09-4.58-33.35-6.35a334.93,334.93,0,0,0-34.23-3.6l-8.65-.35h-8.68c-2.89-.06-5.78.13-8.67.24l-4.34.19-2.17.1-2.17.19-8.65.77c-1.45.1-2.88.33-4.31.52l-4.31.59c-5.76.67-11.42,1.89-17.11,2.92-1.43.24-2.83.6-4.23.93l-4.22,1-4.21,1-2.11.5-2.08.6L225.84,465c-1.38.41-2.78.77-4.14,1.23l-4.1,1.36a307.37,307.37,0,0,0-32.11,12.64,341.12,341.12,0,0,0-59.14,35.05A403.86,403.86,0,0,0,75.1,560.53Q63.28,572.85,52.43,586c-1.82,2.17-3.61,4.38-5.37,6.59s-3.53,4.44-5.27,6.68L39,602.91l-3.71,4.92c-2.43,3.32-4.87,6.62-7.23,10" transform="translate(-9.92 -12.8)"/><path class="cls-4" d="M1199.3,167.46l-11.77-3.32-5.88-1.66-5.92-1.54-11.84-3.09L1152,155c-6.64-1.66-13.36-3-20-4.5-3.33-.76-6.71-1.36-10.07-2l-10.09-2c-13.5-2.36-27-4.63-40.67-6.23-6.8-.93-13.65-1.51-20.48-2.22-3.42-.31-6.85-.54-10.27-.81l-5.14-.39-5.15-.26c-13.73-.81-27.51-1-41.29-.6a396.85,396.85,0,0,0-82.11,10.35A310.56,310.56,0,0,0,829,175.88a280,280,0,0,0-35,22.62l-4.17,3.14c-.69.53-1.4,1-2.07,1.59l-2,1.67-8,6.71c-2.61,2.31-5.12,4.72-7.68,7.08-1.26,1.2-2.59,2.33-3.79,3.59L762.65,226c-5,4.89-9.49,10.18-14.09,15.39L742,249.49c-1.12,1.33-2.15,2.73-3.18,4.12l-3.12,4.16c-8.23,11.16-15.77,22.77-22.79,34.6-14,23.71-26,48.22-38.94,71.84-6.49,11.78-13.28,23.32-20.76,34.3a232.43,232.43,0,0,1-24.76,30.81,172.34,172.34,0,0,1-30.09,25.1,203.43,203.43,0,0,1-34.85,18.1,195.55,195.55,0,0,1-37.81,10.67,190.1,190.1,0,0,1-39.18,2.58,277.5,277.5,0,0,1-39.49-4.5c-13.16-2.35-26.3-5.37-39.53-8.41s-26.57-6.12-40.11-8.65a365.7,365.7,0,0,0-41.12-5.52,277,277,0,0,0-41.74.06l-5.21.46c-1.74.17-3.48.28-5.2.55l-10.36,1.42c-6.86,1.25-13.73,2.42-20.47,4.16l-5.08,1.2c-1.7.41-3.35.94-5,1.41-3.33,1-6.69,1.89-10,2.91s-6.6,2.16-9.88,3.32-6.53,2.37-9.75,3.65a315.36,315.36,0,0,0-37.63,17.8,356.29,356.29,0,0,0-67.12,48.63q-15.32,14-29.2,29.35t-26.37,31.8q-14.88,19.58-28,40.33" transform="translate(-9.92 -12.8)"/><path class="cls-5" d="M1199.64,166a1.5,1.5,0,0,1,1,1.86,1.52,1.52,0,0,1-1.87,1,1.5,1.5,0,0,1-1-1.86A1.52,1.52,0,0,1,1199.64,166Z" transform="translate(-9.92 -12.8)"/><path class="cls-5" d="M13.93,644.87A1.5,1.5,0,1,0,16,644.4,1.5,1.5,0,0,0,13.93,644.87Z" transform="translate(-9.92 -12.8)"/><path class="cls-6" d="M1186.79,156.4l-1,.63a13.75,13.75,0,0,0-6.58,11,29.15,29.15,0,0,0,2,12.73c2.87,7.55,7.54,11.66,6.67,3.28-.79-7.5-5.47-12.58-10-15.62a33.39,33.39,0,0,0-8.83-4.19l-5.85-1.53-5.88-1.42-5.88-1.41-4.35-1c-5.4-1.27-10.84-2.39-16.26-3.59-2.71-.61-5.44-1.12-8.17-1.66l-8.17-1.59c-2.72-.56-5.46-1-8.2-1.49l-8.21-1.42a617.8,617.8,0,0,0-66.21-7.52c-5.56-.27-11.1-.62-16.67-.69-2.78-.06-5.55-.16-8.33-.19H994.34l-4.17.13-8.34.24-8.33.47-4.16.24-4.16.35a369.68,369.68,0,0,0-65.8,11.08,303.26,303.26,0,0,0-62.32,23.91c-2.5,1.25-4.91,2.64-7.37,4s-4.84,2.78-7.26,4.16-4.75,2.92-7.13,4.37l-6.95,4.66-3.47,2.34c-1.15.78-2.32,1.53-3.42,2.4l-6.69,5-3.34,2.51c-1.09.87-2.14,1.79-3.22,2.68l-6.41,5.37c-1.09.87-2.11,1.82-3.13,2.78l-3.07,2.85-3.06,2.84c-1,1-2.07,1.88-3,2.9l-5.85,6c-1,1-2,2-2.89,3L758,238.12l-5.55,6.26-5.27,6.49-2.64,3.24-2.5,3.35-5,6.69c-12.93,18.16-24.17,37.41-34.61,57s-20.4,39.37-31.55,58.42q-8.26,14.35-17.88,27.79a219.1,219.1,0,0,1-21,25.35l-5.79,5.84L620.06,444c-2,1.89-4.19,3.53-6.34,5.24l-3.22,2.55-1.61,1.27-1.69,1.17-6.77,4.67c-1.11.81-2.3,1.49-3.48,2.2l-3.53,2.1c-4.62,3-9.61,5.28-14.47,7.82-1.2.65-2.47,1.19-3.73,1.73l-3.78,1.63-3.78,1.64c-1.25.55-2.51,1.11-3.81,1.55l-7.74,2.82-1.93.69-2,.6-3.94,1.18-3.94,1.19c-1.31.42-2.66.66-4,1-2.67.62-5.33,1.3-8,1.88l-8.1,1.45c-.68.12-1.35.25-2,.36l-2,.24-4.08.5a198.21,198.21,0,0,1-32.87,1,289.7,289.7,0,0,1-32.78-3.72c-10.87-1.8-21.67-4.13-32.47-6.57s-21.58-5-32.42-7.36-21.76-4.51-32.76-6.24a324.29,324.29,0,0,0-33.23-3.5l-8.36-.34h-8.37c-2.79-.05-5.58.13-8.37.24l-4.18.18-2.09.09-2.08.19-8.34.74c-1.39.1-2.77.32-4.15.5l-4.15.57c-5.55.64-11,1.83-16.5,2.81-1.38.23-2.73.58-4.09.9l-4.07,1-4.07,1-2,.48-2,.58-8,2.31c-1.34.4-2.69.74-4,1.19l-4,1.32a296.41,296.41,0,0,0-31.1,12.24,331,331,0,0,0-57.42,34,392.32,392.32,0,0,0-50,44.18c-7.7,8-15.1,16.35-22.2,24.91-1.79,2.13-3.54,4.29-5.27,6.46s-3.46,4.35-5.16,6.55l-2.77,3.61-3.65,4.83c-2.38,3.25-4.78,6.5-7.1,9.8A26.36,26.36,0,0,0,34.54,626,33.8,33.8,0,0,0,32,632.4a25,25,0,0,0-.85,8.81,19.39,19.39,0,0,0,3.51,9.49c4.88,6.85,5.64.74,2.87-6.8s-9-16.69-19-15l-1.2.21" transform="translate(-9.92 -12.8)"/><path class="cls-7" d="M1191,153.91a25.86,25.86,0,0,1-7.93.28c1.08.82,2.15,1.69,3.22,2.54l.84,4A23.36,23.36,0,0,1,1191,153.91Z" transform="translate(-9.92 -12.8)"/><path class="cls-7" d="M12.56,630a25.9,25.9,0,0,0,6.26-5L18,629,20,632.56A23.37,23.37,0,0,0,12.56,630Z" transform="translate(-9.92 -12.8)"/></g><circle class="cls-8" cx="81.03" cy="731.1" r="36.81"/><circle class="cls-8" cx="1052.01" cy="285.52" r="48.97"/><g class="cls-2"><path class="cls-3" d="M1114.62,147.48l-2.43,5.43-2.53,5.39-2.54,5.38-1.88,4c-2.36,4.93-4.85,9.79-7.27,14.69-1.19,2.45-2.48,4.86-3.74,7.27l-3.81,7.25c-1.24,2.43-2.57,4.81-3.89,7.19l-4,7.16a604.91,604.91,0,0,1-34.81,55.13c-3.18,4.38-6.31,8.82-9.64,13.08-1.64,2.15-3.27,4.32-4.93,6.45l-5.09,6.31-2.55,3.16-2.62,3.08-5.25,6.17-5.41,6-2.71,3-2.78,2.92a357.37,357.37,0,0,1-48,42.77,289.66,289.66,0,0,1-55.1,32.15c-2.41,1.11-4.89,2.07-7.33,3.12s-5,1.93-7.42,2.91-5,1.79-7.5,2.69l-7.6,2.38L870,403.75c-1.26.4-2.52.82-3.82,1.12l-7.7,2-3.85,1c-1.3.3-2.6.53-3.9.8L843,410.16c-1.29.29-2.6.48-3.92.67l-3.93.57-3.93.58c-1.31.19-2.61.42-3.94.52l-7.92.77c-1.32.11-2.63.29-4,.36l-4,.19-8,.39-8,.05-4,0-4-.14-8-.28c-21.38-1.23-42.78-4.39-64.35-8.46s-43.35-8.72-65.79-12c-11.2-1.74-22.62-2.93-34.14-3.58a234.06,234.06,0,0,0-34.9.55l-8.75.94-8.71,1.43c-2.91.41-5.77,1.14-8.65,1.79l-4.3,1-2.16.5-2.12.63-8.47,2.53c-1.42.39-2.79.92-4.17,1.43l-4.14,1.54c-5.58,1.9-10.86,4.48-16.23,6.85-1.35.58-2.64,1.26-3.93,1.95L504.75,413l-3.88,2c-1.3.68-2.6,1.35-3.83,2.14l-7.5,4.54-1.87,1.15-1.81,1.24-3.63,2.49-3.62,2.5c-1.23.81-2.34,1.77-3.52,2.65-2.32,1.81-4.66,3.58-6.95,5.43l-6.65,5.8c-.55.49-1.11,1-1.65,1.46L458.26,446,455.1,449a211.6,211.6,0,0,0-22.83,26.67A304.17,304.17,0,0,0,413.79,505c-5.6,10-10.65,20.07-15.55,30.1s-9.65,20-14.51,29.82-9.9,19.38-15.24,28.71a311.33,311.33,0,0,1-17.32,26.94l-4.72,6.41-5,6.2c-1.62,2.1-3.41,4-5.14,6l-2.61,3-1.31,1.49L331,645.07l-5.49,5.72c-.89,1-1.88,1.86-2.83,2.77l-2.88,2.73C316.08,660,312,663.34,308,666.82c-1,.89-2.05,1.68-3.09,2.5l-3.14,2.44-3.14,2.45L297,675.43l-1.63,1.15-6.52,4.59c-1.09.76-2.15,1.56-3.27,2.28l-3.36,2.16a282,282,0,0,1-27.71,15.85A317.74,317.74,0,0,1,194.66,724,380.88,380.88,0,0,1,131.2,734.9q-16.11,1.43-32.34,1.67c-2.7.06-5.4.07-8.11.06s-5.41,0-8.12-.07l-4.42-.09-5.9-.18c-3.93-.18-7.86-.33-11.79-.59" transform="translate(-9.92 -12.8)"/><path class="cls-4" d="M1130.9,122.25l-4.72,11.1-2.36,5.55-2.46,5.5-4.93,11-5.14,10.89c-2.82,6.13-5.92,12.11-8.89,18.15-1.48,3-3.09,6-4.64,9l-4.7,8.94c-6.49,11.79-13.06,23.54-20.2,34.93-3.46,5.77-7.2,11.34-10.84,17-1.86,2.79-3.78,5.54-5.67,8.32l-2.84,4.15-3,4.08c-7.76,10.94-16,21.49-24.69,31.7a383.12,383.12,0,0,1-57.43,55.61,297.33,297.33,0,0,1-68.51,40.25,267,267,0,0,1-37.7,12.53l-4.81,1.23c-.81.2-1.6.43-2.41.59l-2.44.49-9.73,1.95c-3.27.55-6.55,1-9.82,1.48-1.64.21-3.27.53-4.92.67l-5,.48c-6.58.77-13.21,1-19.83,1.29l-10,.06c-1.66,0-3.32,0-5-.09l-5-.17a399.9,399.9,0,0,1-39.86-3.75c-26.56-3.84-53-9.75-80-14.53-13.51-2.35-27.17-4.35-41-5.44a245.87,245.87,0,0,0-41.86,0,186.5,186.5,0,0,0-41.31,8.35,217.31,217.31,0,0,0-38.51,17A209.12,209.12,0,0,0,466.61,445a203.16,203.16,0,0,0-28.44,31,290.92,290.92,0,0,0-22.26,35.25c-6.6,12.12-12.57,24.45-18.48,36.68s-11.78,24.38-18.1,36.2a352.23,352.23,0,0,1-20.65,34.22c-29.76,44-73.89,77.06-123.11,97.06a342.71,342.71,0,0,1-76.91,21.07q-19.78,3.07-39.85,4.26t-40.16.64q-24-.63-47.87-3.28" transform="translate(-9.92 -12.8)"/><path class="cls-5" d="M1129.48,121.74a1.51,1.51,0,0,1,2-.79,1.48,1.48,0,0,1,.81,2,1.52,1.52,0,0,1-2,.79A1.49,1.49,0,0,1,1129.48,121.74Z" transform="translate(-9.92 -12.8)"/><path class="cls-5" d="M31,736.6a1.5,1.5,0,0,0-.33,3,1.5,1.5,0,0,0,.33-3Z" transform="translate(-9.92 -12.8)"/><path class="cls-6" d="M1118.47,133l.5,1.1a14.13,14.13,0,0,0,10,8.07,27.42,27.42,0,0,0,12.88-.25c7.86-1.93,12.64-6.3,4.16-6.36-7.62-.08-13.12,4-16.86,8a33.43,33.43,0,0,0-5.59,8l-2.46,5.5-2.56,5.44-2.56,5.45-1.91,4c-2.38,5-4.9,9.9-7.35,14.86-1.2,2.49-2.51,4.92-3.79,7.37l-3.85,7.34c-1.27,2.46-2.61,4.87-4,7.28l-4,7.26a614.92,614.92,0,0,1-35.37,56c-3.24,4.47-6.42,9-9.82,13.34-1.68,2.18-3.33,4.39-5,6.57l-5.19,6.44-2.6,3.22-2.68,3.15-5.37,6.3-5.53,6.16-2.77,3.07-2.85,3a365.76,365.76,0,0,1-49.31,43.93,299.45,299.45,0,0,1-56.94,33.22c-2.5,1.15-5.07,2.15-7.6,3.23s-5.12,2-7.68,3-5.18,1.86-7.77,2.79l-7.87,2.47-3.94,1.22c-1.32.41-2.62.85-4,1.16l-8,2-4,1c-1.34.31-2.69.55-4,.83l-8.09,1.61c-1.34.3-2.7.5-4.06.69l-4.09.6-4.08.6c-1.36.2-2.71.44-4.09.54l-8.21.8c-1.37.12-2.73.29-4.11.37l-4.12.2-8.24.4-8.26.06-4.13,0-4.12-.14-8.26-.28c-22-1.27-43.88-4.52-65.61-8.61s-43.44-8.73-65.45-12c-11-1.71-22.09-2.86-33.22-3.49a225.5,225.5,0,0,0-33.48.53l-8.34.88-8.28,1.37c-2.77.39-5.49,1.08-8.22,1.7l-4.09.94-2,.47-2,.6-8,2.4c-1.35.37-2.66.88-4,1.37l-3.93,1.46c-5.31,1.8-10.34,4.27-15.46,6.53-1.29.54-2.52,1.2-3.75,1.86l-3.71,1.95-3.71,2c-1.23.65-2.48,1.29-3.66,2L494.77,430,493,431.06l-1.73,1.19-3.46,2.38L484.34,437c-1.16.77-2.22,1.69-3.34,2.53-2.21,1.73-4.44,3.41-6.62,5.17l-6.32,5.52c-.53.46-1.06.91-1.58,1.38l-1.5,1.47L462,456a203.15,203.15,0,0,0-21.79,25.45,295.42,295.42,0,0,0-17.86,28.28c-5.46,9.71-10.43,19.65-15.3,29.62s-9.62,20-14.54,29.87-10,19.68-15.53,29.25a319.19,319.19,0,0,1-17.86,27.78l-4.89,6.64-5.16,6.44c-1.68,2.18-3.54,4.21-5.34,6.28l-2.72,3.1-1.36,1.55-1.43,1.49-5.71,6c-.93,1-2,1.93-2.95,2.88l-3,2.83c-3.91,3.87-8.19,7.34-12.34,11-1,.92-2.13,1.74-3.21,2.59l-3.25,2.53L304.49,682l-1.62,1.27-1.69,1.19-6.75,4.76c-1.13.78-2.23,1.61-3.38,2.35l-3.47,2.24a294,294,0,0,1-28.66,16.38,327.24,327.24,0,0,1-61.75,23.21,389.9,389.9,0,0,1-65.11,11.22c-11,1-22,1.53-33,1.71q-4.14.09-8.28.06c-2.76,0-5.52,0-8.27-.07L78,746.25l-6-.19c-4-.17-8-.33-12-.59a26.78,26.78,0,0,0-2.87.08,34.88,34.88,0,0,0-6.82,1.1,26.9,26.9,0,0,0-8.15,3.56,20.4,20.4,0,0,0-6.9,7.53c-4.05,7.47,2.16,5.38,7.63-.64s10-16,3.94-23.85l-.72-1" transform="translate(-9.92 -12.8)"/><path class="cls-7" d="M1116.5,128.6a22.81,22.81,0,0,1-.68,7.69c1-.89,1.94-1.82,2.91-2.73l4-.25A24.52,24.52,0,0,1,1116.5,128.6Z" transform="translate(-9.92 -12.8)"/><path class="cls-7" d="M43.16,728.51a22.72,22.72,0,0,0,7,3l-3.74,1.29-2.11,3.43A25.16,25.16,0,0,0,43.16,728.51Z" transform="translate(-9.92 -12.8)"/></g><circle class="cls-8" cx="138.45" cy="86.03" r="20.62"/><circle class="cls-9" cx="1020.76" cy="637.8" r="41.24"/><circle class="cls-8" cx="178.47" cy="544.71" r="25.83"/><circle class="cls-9" cx="957.06" cy="129.77" r="17.52"/></svg>