<svg id="Layer_1" data-name="Layer 1" xmlns="http://www.w3.org/2000/svg" viewBox="0 0 283.22 705.8"><defs><style>.cls-1{fill:#ff8b7b;}.cls-2{fill:#263238;}.cls-3{fill:#ff5652;}.cls-4{opacity:0.2;}.cls-10,.cls-11,.cls-4,.cls-7,.cls-8{isolation:isolate;}.cls-10,.cls-11,.cls-5,.cls-6{fill:#407bff;}.cls-6,.cls-9{fill-rule:evenodd;}.cls-7{opacity:0.4;}.cls-11,.cls-8{opacity:0.3;}.cls-9{fill:#fff;}.cls-10{opacity:0.6;}</style></defs><g id="Character"><g id="_Group_" data-name="&lt;Group&gt;"><path id="_Path_" data-name="&lt;Path&gt;" class="cls-1" d="M667.8,348.6c2.7,4.2,4.9,8.3,7.2,12.6s4.3,8.5,6.3,12.9a176.69,176.69,0,0,1,10.2,27.5c.4,1.1.7,2.4,1,3.6l.4,1.9.2.9.3,1.5a30.4,30.4,0,0,1-.6,10.3,58.12,58.12,0,0,1-6.3,14.9,117,117,0,0,1-17.7,23.4l-8.5-6.4a209.37,209.37,0,0,0,11.3-24.1,50,50,0,0,0,3.1-11.2,11.77,11.77,0,0,0-.2-3.6l-.8-2.4c-.3-1-.6-2-1-3a242.5,242.5,0,0,0-10.5-24.2c-4-7.9-8.3-16.1-12.6-23.6Z" transform="translate(-552.68 -126.7)"/><path id="_Path_2" data-name="&lt;Path&gt;" class="cls-1" d="M662.5,448.9l-9.2,4.8,10.5,12.4s6.6-4.5,6.9-11.3Z" transform="translate(-552.68 -126.7)"/><path id="_Path_3" data-name="&lt;Path&gt;" class="cls-1" d="M640.9,461.3l11.3,9,11.6-4.2-10.5-12.4Z" transform="translate(-552.68 -126.7)"/><path id="_Path_4" data-name="&lt;Path&gt;" class="cls-2" d="M602.3,283.1c-.2,1.1-1,1.9-1.7,1.8s-1.2-1.2-.9-2.3,1-1.9,1.7-1.8S602.5,282,602.3,283.1Z" transform="translate(-552.68 -126.7)"/><path id="_Path_5" data-name="&lt;Path&gt;" class="cls-3" d="M601.4,285s-3.8,5.9-7.2,8.5c1.6,2.2,5.1,2.1,5.1,2.1Z" transform="translate(-552.68 -126.7)"/><path id="_Path_6" data-name="&lt;Path&gt;" class="cls-1" d="M597.8,324.3l.1-13.1,17.3,2.1s-.2,11.2-9.9,14.6Z" transform="translate(-552.68 -126.7)"/><path id="_Path_7" data-name="&lt;Path&gt;" class="cls-1" d="M602.8,301.7l12.2,3.5.2,8.1-17.3-2.1Z" transform="translate(-552.68 -126.7)"/><path id="_Path_8" data-name="&lt;Path&gt;" class="cls-4" d="M615,305.2l-12.2-3.5-2.4,4.6a19.3,19.3,0,0,0,11.3,16.9,18.56,18.56,0,0,0,3.5-9.9Z" transform="translate(-552.68 -126.7)"/><path id="_Path_9" data-name="&lt;Path&gt;" class="cls-2" d="M607.6,277.8a.69.69,0,0,0,.5-.2.56.56,0,0,0,0-.9,6.37,6.37,0,0,0-5.7-2.2.59.59,0,0,0-.5.7.76.76,0,0,0,.8.6,5.1,5.1,0,0,1,4.4,1.8A.69.69,0,0,0,607.6,277.8Z" transform="translate(-552.68 -126.7)"/><path id="_Path_10" data-name="&lt;Path&gt;" class="cls-1" d="M633.2,303.4c-2,10.3-3.3,24.5,3.9,31.4,0,0-2.8,10.4-21.9,10.4-21,0-10.1-9.1-10.1-9.1,8.7-2.8,8.7-12.7,6.7-20.7Z" transform="translate(-552.68 -126.7)"/><path id="_Path_11" data-name="&lt;Path&gt;" class="cls-5" d="M641.1,341.7c1.9-2.7,1.8-11.1-.2-12.5-3.2-2.4-17.1-3-35.7,1.3,2.1,8.1-2.2,12.4-2.2,12.4Z" transform="translate(-552.68 -126.7)"/><path id="_Compound_Path_" data-name="&lt;Compound Path&gt;" class="cls-6" d="M703.6,816.5c-1.4.3-2.8.4-3.5-.2a1.34,1.34,0,0,1-.3-1.6,1.51,1.51,0,0,1,.8-.9c1.9-1,6.3.8,6.5.9s.2.2.2.3-.1.3-.2.3A19.78,19.78,0,0,1,703.6,816.5Zm-2.3-2.3-.4.2a.64.64,0,0,0-.5.5c-.2.6,0,.8.1.9.8.6,3.6,0,5.6-.8a13.81,13.81,0,0,0-4.8-.8Z" transform="translate(-552.68 -126.7)"/><path id="_Compound_Path_2" data-name="&lt;Compound Path&gt;" class="cls-6" d="M707,815.3c-.07.07-.1.07-.1,0-1.6-.4-5-2.9-5.1-4.4a1.08,1.08,0,0,1,.9-1.1,1.49,1.49,0,0,1,1.4.1c1.9,1,3.1,4.8,3.2,5a.4.4,0,0,1-.1.3.28.28,0,0,1-.2.1Zm-4-4.9h-.1c-.4.1-.4.3-.4.4,0,1,2.3,2.9,3.9,3.6-.4-1.1-1.3-3.3-2.6-3.9a1.13,1.13,0,0,0-.8-.1Z" transform="translate(-552.68 -126.7)"/><path id="_Compound_Path_3" data-name="&lt;Compound Path&gt;" class="cls-6" d="M599.7,818.8c-1.8,0-3.5-.2-4.1-1a1.32,1.32,0,0,1,0-1.5,1.9,1.9,0,0,1,1.1-.8c2.3-.6,7.2,2.2,7.4,2.3s.2.2.2.4-.1.2-.3.2a22.39,22.39,0,0,1-4.3.4Zm-2.2-2.7a1.33,1.33,0,0,0-.6.1,1.05,1.05,0,0,0-.7.4,1.27,1.27,0,0,0-.1.8c.7.9,4.2.9,6.9.5-1.3-.6-3.9-1.8-5.5-1.8Z" transform="translate(-552.68 -126.7)"/><path id="_Compound_Path_4" data-name="&lt;Compound Path&gt;" class="cls-6" d="M604,818.4h-.2c-1.7-.7-5-3.8-4.8-5.4.1-.4.4-.8,1.3-.9a2.26,2.26,0,0,1,1.8.6c1.8,1.4,2.2,5.2,2.2,5.4a.4.4,0,0,1-.1.3Zm-3.5-5.7a.28.28,0,0,0-.2.1c-.6,0-.6.2-.6.3-.2,1,2.1,3.4,3.9,4.4-.2-1.1-.7-3.4-1.9-4.3A1.64,1.64,0,0,0,600.5,812.7Z" transform="translate(-552.68 -126.7)"/><path id="_Path_12" data-name="&lt;Path&gt;" class="cls-1" d="M619.4,818.1h-14L604,785.5h14Z" transform="translate(-552.68 -126.7)"/><path id="_Path_13" data-name="&lt;Path&gt;" class="cls-1" d="M722.7,811.6l-13.8,3-13.8-30.4,13.8-2.9Z" transform="translate(-552.68 -126.7)"/><path id="_Path_14" data-name="&lt;Path&gt;" class="cls-2" d="M707.6,813.2l15.5-3.3a1,1,0,0,1,1.3.6l5.4,11.7a2.08,2.08,0,0,1-1.5,2.9c-5.4,1-8.1,1.3-14.9,2.7-4.1,1-13.6,3.3-19.4,4.5-5.6,1.2-7.7-4.3-5.5-5.3,10.1-4.6,14.3-8.7,17.1-12.5a3.36,3.36,0,0,1,2-1.3Z" transform="translate(-552.68 -126.7)"/><path id="_Path_15" data-name="&lt;Path&gt;" class="cls-2" d="M605.5,816.5h15.3a1.2,1.2,0,0,1,1.2.9l2.8,12.5a2.13,2.13,0,0,1-2,2.6c-5.6-.1-13.6-.5-20.5-.5-8.2,0-15.2.5-24.8.5-5.7,0-7.3-5.9-4.9-6.4,11-2.4,20-2.7,29.5-8.5A6,6,0,0,1,605.5,816.5Z" transform="translate(-552.68 -126.7)"/><g id="_Group_2" data-name="&lt;Group&gt;"><path id="_Path_16" data-name="&lt;Path&gt;" class="cls-5" d="M662.3,338c13.2,3,24.1,36.6,24.1,36.6l-26.5,20.2s-9.7-9.1-14-26c-4.6-17.6,3-33.9,16.4-30.8Z" transform="translate(-552.68 -126.7)"/><path id="_Path_17" data-name="&lt;Path&gt;" class="cls-7" d="M662.3,338c13.2,3,24.1,36.6,24.1,36.6l-26.5,20.2s-9.7-9.1-14-26c-4.6-17.6,3-33.9,16.4-30.8Z" transform="translate(-552.68 -126.7)"/></g><path id="_Path_18" data-name="&lt;Path&gt;" class="cls-1" d="M593,378.1c-3.3,3.6-6.6,6.7-10,10q-2.5,2.4-5.1,4.7l-2.7,2.4-.7.6c-.3.2-.7.6-1.1.9a18.78,18.78,0,0,1-3.9,2.3,13.4,13.4,0,0,1-4.8,1,11.47,11.47,0,0,1-4.2-.8,10.12,10.12,0,0,1-4-2.5,12.4,12.4,0,0,1-3.2-5.2,9.74,9.74,0,0,1-.5-3,13.44,13.44,0,0,1,0-3.5,17.82,17.82,0,0,1,.4-2.6,52.21,52.21,0,0,1,2.3-8.1,65.07,65.07,0,0,1,3.1-7.2c1.3-2.6,2.5-4.4,3.7-6.5a176.86,176.86,0,0,1,16.9-23,157.2,157.2,0,0,1,20.5-19.4l7.4,7.6c-5.2,6.9-10.3,14.3-15,21.6a253.64,253.64,0,0,0-12.8,22.5c-.8,1.9-1.9,4-2.5,5.5-.7,1.8-1.3,3.6-1.9,5.4a43.28,43.28,0,0,0-1.1,5.1c0,.3-.1.6-.1.8s.1.2,0-.2a4.34,4.34,0,0,0-.2-1.3,9,9,0,0,0-2.3-3.7,9.33,9.33,0,0,0-3.3-2.1,9,9,0,0,0-3.4-.6,7.54,7.54,0,0,0-3.2.6c-1,.4-1,.5-1,.5l.8-.7,2.4-2.2,4.8-4.5c3.1-3,6.3-6.2,9.3-9.1Z" transform="translate(-552.68 -126.7)"/><path id="_Path_19" data-name="&lt;Path&gt;" class="cls-4" d="M651,362.7c7.2,7.1,9.5,20,10.1,31.2l-1.2.9s-9.7-9.1-14-26c-.27-1.07-.5-2.1-.7-3.1Z" transform="translate(-552.68 -126.7)"/><g id="_Group_3" data-name="&lt;Group&gt;"><path id="_Path_20" data-name="&lt;Path&gt;" class="cls-5" d="M579,352.1c-2.9,15.2-4.7,46.4,3.7,108.2h75.2c.6-11.6-6.7-67.9,4.4-122.3a196,196,0,0,0-25.2-3.2c-9.6-.5-23.5-.8-31.9,0a94.7,94.7,0,0,0-10.1,1.4A19.91,19.91,0,0,0,579,352.1Z" transform="translate(-552.68 -126.7)"/><path id="_Path_21" data-name="&lt;Path&gt;" class="cls-7" d="M579,352.1c-2.9,15.2-4.7,46.4,3.7,108.2h75.2c.6-11.6-6.7-67.9,4.4-122.3a196,196,0,0,0-25.2-3.2c-9.6-.5-23.5-.8-31.9,0a94.7,94.7,0,0,0-10.1,1.4A19.91,19.91,0,0,0,579,352.1Z" transform="translate(-552.68 -126.7)"/></g><path id="_Path_22" data-name="&lt;Path&gt;" class="cls-4" d="M590.5,374.5l-13.6-3.2c-.4,8.2-.4,18.4.2,31,6.2-7.1,14.2-18.2,13.4-27.8Z" transform="translate(-552.68 -126.7)"/><g id="_Group_4" data-name="&lt;Group&gt;"><path id="_Path_23" data-name="&lt;Path&gt;" class="cls-4" d="M604,785.5l.7,16.8h14.1l-.7-16.8Z" transform="translate(-552.68 -126.7)"/><path id="_Path_24" data-name="&lt;Path&gt;" class="cls-4" d="M708.9,781.3l-13.8,2.9,7.2,15.7,13.7-3Z" transform="translate(-552.68 -126.7)"/></g><path id="_Path_25" data-name="&lt;Path&gt;" class="cls-1" d="M639.9,288.3c-3.6,13.5-5.1,21.6-13.4,27.2-12.5,8.4-28.1-1.3-28.6-15.6-.4-12.8,5.6-32.7,20-35.4A19,19,0,0,1,639.9,288.3Z" transform="translate(-552.68 -126.7)"/><path id="_Path_26" data-name="&lt;Path&gt;" class="cls-2" d="M608.3,288.8c-.7-1.8-3.8-15.7-.9-19.3s36.3-1.1,41.2,3.8c8.2,8,2.5,15.2-6.5,24.5-6.7,6.9-6.9,14.8-10.3,15.9-6,2-15.2.1-17-6.2s-6.5-18.7-6.5-18.7Z" transform="translate(-552.68 -126.7)"/><path id="_Path_27" data-name="&lt;Path&gt;" class="cls-2" d="M644.5,257.4c-11.7-5-33.8.6-45.7-2.3-.4,6.2,3.3,16.1,15.2,18.7,0,0,16.9,3.3,30,2.8s10.5-14.9.5-19.2Z" transform="translate(-552.68 -126.7)"/><path id="_Path_28" data-name="&lt;Path&gt;" class="cls-2" d="M646.4,273.7s7.3.8,12.4-2.4C661,276.7,648.9,278.1,646.4,273.7Z" transform="translate(-552.68 -126.7)"/><path id="_Path_29" data-name="&lt;Path&gt;" class="cls-1" d="M614.7,289.4a15.78,15.78,0,0,1-3.9,9.3c-3.1,3.4-6.3,1.3-6.9-2.8-.4-3.7.6-10,4.3-11.8s6.8,1.1,6.5,5.3Z" transform="translate(-552.68 -126.7)"/><path id="_Path_30" data-name="&lt;Path&gt;" class="cls-5" d="M609.4,460.3s15.9,107.5,24.7,147.8c9.6,44.1,61.1,190,61.1,190l25.2-5.5s-36-118.9-44.1-180.5c-6.2-47.4-18.4-151.8-18.4-151.8Z" transform="translate(-552.68 -126.7)"/><path id="_Path_31" data-name="&lt;Path&gt;" class="cls-2" d="M689.1,789.7c-.1,0,4.7,9.1,4.7,9.1l28.4-6.1-2.4-8.6Z" transform="translate(-552.68 -126.7)"/><path id="_Path_32" data-name="&lt;Path&gt;" class="cls-8" d="M619.5,498.6c18.4,3.6,16.5,72.4,14.3,107.9-5.4-25.1-13.2-73.2-18.5-107.4A6.5,6.5,0,0,1,619.5,498.6Z" transform="translate(-552.68 -126.7)"/><path id="_Path_33" data-name="&lt;Path&gt;" class="cls-5" d="M582.7,460.3s-1.9,105.2-.4,148.1c1.6,44.6,17.2,190.7,17.2,190.7h23.8s.9-143.5,1.9-187.3c1.2-47.8,6.9-151.5,6.9-151.5Z" transform="translate(-552.68 -126.7)"/><path id="_Path_34" data-name="&lt;Path&gt;" class="cls-2" d="M594.9,789.6c-.1,0,1.3,9.9,1.3,9.9h29l.8-8.8Z" transform="translate(-552.68 -126.7)"/><g id="_Group_5" data-name="&lt;Group&gt;"><path id="_Path_35" data-name="&lt;Path&gt;" class="cls-5" d="M608.5,356.7c6.7,18.2-32.9,39.6-32.9,39.6l-17.1-22.1s11.4-22.8,25.5-33C601.3,328.5,603.4,342.8,608.5,356.7Z" transform="translate(-552.68 -126.7)"/><path id="_Path_36" data-name="&lt;Path&gt;" class="cls-7" d="M608.5,356.7c6.7,18.2-32.9,39.6-32.9,39.6l-17.1-22.1s11.4-22.8,25.5-33C601.3,328.5,603.4,342.8,608.5,356.7Z" transform="translate(-552.68 -126.7)"/></g></g></g><g id="Thinking"><g id="_Group_6" data-name="&lt;Group&gt;"><path id="_Path_37" data-name="&lt;Path&gt;" class="cls-5" d="M835.9,172.7c0,25.4-32.3,46-72.2,46s-72.1-20.6-72.1-46,32.3-46,72.1-46S835.9,147.3,835.9,172.7Z" transform="translate(-552.68 -126.7)"/><path id="_Compound_Path_5" data-name="&lt;Compound Path&gt;" class="cls-9" d="M737.7,195.8A20.3,20.3,0,0,1,717.8,179a20.45,20.45,0,0,1,15.5-23.1,20.2,20.2,0,0,1,21.6,9l46.3-9.5a7.14,7.14,0,0,1,8.5,5,6.85,6.85,0,0,1-.8,5.4,6.72,6.72,0,0,1-4.5,3.2l-1.2.2a1.46,1.46,0,0,0-.9.6,1.4,1.4,0,0,0,0,1.1l.8,2.1a3.32,3.32,0,0,1-1.3,3.9,3.78,3.78,0,0,0-1.7,2.8,3.31,3.31,0,0,1-2.5,2.8l-.9.2a3.23,3.23,0,0,1-3.3-1.6,3.85,3.85,0,0,0-7.2,1.5,3.1,3.1,0,0,1-2.4,2.7l-1,.2a3,3,0,0,1-3.3-1.6,4,4,0,0,0-2.8-1.9,3,3,0,0,1-2.6-3l-.1-2.3a1.19,1.19,0,0,0-.5-.9,1.25,1.25,0,0,0-1-.2l-14.8,3a20,20,0,0,1-15.9,16.8,20.58,20.58,0,0,1-4.1.4Zm-4-37.9a18.12,18.12,0,0,0-6.2,32.7,17.58,17.58,0,0,0,13.9,2.8,18,18,0,0,0,14.4-15.7l.1-.8,16.2-3.3a3,3,0,0,1,2.6.6,3.42,3.42,0,0,1,1.3,2.4l.1,2.3a1.2,1.2,0,0,0,.9,1.2,5.67,5.67,0,0,1,4.2,2.8c.3.4.7.8,1.2.7l.9-.2c.6-.1.8-.6.9-1.1a5.85,5.85,0,0,1,4.6-5,5.77,5.77,0,0,1,6.3,2.8,1.21,1.21,0,0,0,1.2.6l.9-.2a1.16,1.16,0,0,0,.9-1,5.74,5.74,0,0,1,2.7-4.3,1.34,1.34,0,0,0,.4-1.5l-.8-2.1a3.19,3.19,0,0,1,.2-2.7,3.1,3.1,0,0,1,2.2-1.6l1.2-.3a5.22,5.22,0,0,0,3.2-2.2,5,5,0,0,0-5.6-7.5l-47.7,9.9-.4-.6a18,18,0,0,0-19.8-8.7Zm4,30.5a12.78,12.78,0,0,1-12.5-10.2,12.86,12.86,0,0,1,1.8-9.6,13,13,0,0,1,17.8-3.7,13.13,13.13,0,0,1,5.5,8.1,12.8,12.8,0,0,1-1.9,9.7,12.61,12.61,0,0,1-8.1,5.5,17.51,17.51,0,0,1-2.6.2Zm.1-23.6a12.59,12.59,0,0,0-2.2.2,10.88,10.88,0,0,0-6.9,4.7,10.54,10.54,0,0,0-1.5,8.1,10.19,10.19,0,0,0,4.6,6.8,10.58,10.58,0,0,0,8.1,1.6,10.82,10.82,0,0,0,3.8-19.6,10.5,10.5,0,0,0-5.9-1.8Z" transform="translate(-552.68 -126.7)"/><path id="_Path_38" data-name="&lt;Path&gt;" class="cls-10" d="M728.7,230.5c0,8.4-10.6,15.1-23.7,15.1s-23.7-6.7-23.7-15.1,10.6-15.1,23.7-15.1S728.7,222.2,728.7,230.5Z" transform="translate(-552.68 -126.7)"/><path id="_Path_39" data-name="&lt;Path&gt;" class="cls-11" d="M677,245.6c0,3.5-4.4,6.2-9.7,6.2s-9.8-2.7-9.8-6.2,4.4-6.2,9.8-6.2S677,242.2,677,245.6Z" transform="translate(-552.68 -126.7)"/></g></g></svg>