<svg width="60" height="55" viewBox="0 0 60 55" fill="none" xmlns="http://www.w3.org/2000/svg">
<g clip-path="url(#clip0_580_966)">
<path opacity="0.65" d="M30.0014 54.3272C46.1853 54.3272 59.305 42.3163 59.305 27.5C59.305 12.6837 46.1853 0.67276 30.0014 0.67276C13.8174 0.67276 0.697754 12.6837 0.697754 27.5C0.697754 42.3163 13.8174 54.3272 30.0014 54.3272Z" fill="#FBAF5F" stroke="#F7941D" stroke-width="5" stroke-miterlimit="10"/>
<g opacity="0.48">
<g opacity="0.9">
<path d="M44.9505 35.3122C44.9505 40.9769 40.7862 45.8073 33.1888 47.0883V53.5468C32.1729 53.6276 31.0592 53.6733 29.8619 53.6599C28.7315 53.6464 27.6792 53.5818 26.7107 53.4903C26.7107 51.5061 26.7107 49.5237 26.7107 47.5431C22.2813 47.3493 17.9914 46.1975 15.4822 44.8036L17.4639 37.3493C20.2382 38.8159 24.1345 40.1534 28.43 40.1534C32.1924 40.1534 34.7714 38.7487 34.7714 36.2029C34.7714 33.781 32.6585 32.247 27.7657 30.6566C20.7015 28.3638 15.8757 25.183 15.8757 19.0097C15.8757 13.4015 19.973 9.01238 27.0401 7.67223L27.0122 1.48278C28.1011 1.38183 29.195 1.33871 30.2889 1.35361C31.3898 1.36629 32.4891 1.43545 33.5824 1.56082L33.5126 7.2282C37.9393 7.41658 40.9146 8.30463 43.0916 9.32723L41.1769 16.5285C39.4632 15.8262 36.4321 14.3568 31.6649 14.3568C27.3722 14.3568 25.985 16.141 25.985 17.9252C25.985 20.0269 28.2961 21.3617 33.9089 23.4042C41.7826 26.071 44.9505 29.5748 44.9505 35.3122Z" fill="#808285"/>
</g>
</g>
<path d="M49.3102 30.0834V46.8138H46.0335V39.1389L42.7568 36.3482V46.8003H39.48V39.1389L36.1949 36.3428H30.7439V46.8003H27.4672V36.3428H24.1904V46.8003H20.9137V35.958C19.3968 35.4427 18.1313 34.4046 17.3607 33.0436L17.3467 33.057L12.8391 25.3418L8.74735 27.7637C8.41668 27.9213 8.04967 27.9947 7.68126 27.9768C7.31286 27.9589 6.95534 27.8504 6.64278 27.6615C6.33021 27.4726 6.07301 27.2098 5.89567 26.8979C5.71833 26.5861 5.62677 26.2356 5.62971 25.88C5.63987 25.4308 5.80374 24.9975 6.09582 24.6475L6.07907 24.6259L10.5588 17.5565H10.5727C10.7065 17.3291 10.8626 17.1147 11.0388 16.916C10.8072 15.6997 10.4527 12.3009 12.9535 9.44294C14.6114 7.5592 15.4515 6.04682 15.4515 4.95963H18.7283C18.7283 7.44886 16.8638 9.86005 15.4655 11.4585C14.6096 12.479 14.1488 13.7549 14.1621 15.0673C15.4054 13.3017 17.0887 11.8656 19.0576 10.8907C21.6282 9.59902 23.2722 8.73788 24.3133 4.97039H27.6626C26.3954 10.331 24.0146 11.9456 20.5732 13.6814C19.2346 14.339 18.0669 15.279 17.1569 16.4316C17.5524 16.7503 17.8852 17.135 18.1394 17.5673C19.1414 19.0877 20.71 23.4553 23.0768 23.8052H42.7344C43.5942 23.7995 44.4467 23.9576 45.243 24.2703C46.0393 24.583 46.7637 25.0443 47.3746 25.6276C47.9856 26.2109 48.4711 26.9048 48.8032 27.6694C49.1354 28.4341 49.3077 29.2544 49.3102 30.0834Z" fill="#F7941D"/>
<path opacity="0.5" d="M27.6738 4.9704C26.4066 10.331 24.0259 11.9456 20.5844 13.6814C19.2458 14.339 18.0781 15.279 17.1681 16.4316C16.3861 15.7871 15.392 15.4313 14.3631 15.4279C14.2933 15.4279 14.2319 15.4279 14.1649 15.4467C13.5669 15.4724 12.9808 15.6169 12.4434 15.8712C11.906 16.1254 11.4288 16.4839 11.0417 16.9241C10.81 15.7104 10.4556 12.3116 12.9564 9.45371C14.6143 7.56997 15.4544 6.05759 15.4544 4.9704H18.7312C18.7312 7.45963 16.8667 9.87083 15.4684 11.4693C14.6173 12.4879 14.164 13.7622 14.1873 15.07C15.4243 13.3052 17.1047 11.8712 19.0717 10.9015C21.6423 9.6098 23.2862 8.74866 24.3273 4.98116L27.6738 4.9704Z" fill="#010101"/>
<path opacity="0.3" d="M36.195 36.3428H42.7569V46.8003H39.4801V39.1388L36.195 36.3428ZM23.0992 36.3428C22.3533 36.3359 21.6141 36.2058 20.9138 35.958V46.8003H24.1906V36.3428H23.0992Z" fill="#010101"/>
<path opacity="0.4" d="M42.7234 36.3429H30.744V32.1609H37.7748L42.7234 36.3429ZM16.6993 23.049L12.8308 25.3418L17.3384 33.0571L17.3524 33.0436C17.9238 34.0313 18.7551 34.8563 19.7625 35.4355C20.77 36.0147 21.918 36.3277 23.0908 36.3429H27.4589V32.1609H23.0992C21.1315 31.8703 18.212 25.9203 16.6993 23.049Z" fill="white"/>
</g>
<defs>
<clipPath id="clip0_580_966">
<rect width="60" height="55" fill="white"/>
</clipPath>
</defs>
</svg>
